<?xml version="1.0" encoding="UTF-8" standalone="no"?>
<!-- Created with Inkscape (http://www.inkscape.org/) -->

<svg
   version="1.1"
   id="svg255"
   xml:space="preserve"
   width="611.49707"
   height="172.76855"
   viewBox="0 0 611.49707 172.76856"
   sodipodi:docname="firstleft.svg"
   inkscape:version="1.1.1 (3bf5ae0d25, 2021-09-20)"
   xmlns:inkscape="http://www.inkscape.org/namespaces/inkscape"
   xmlns:sodipodi="http://sodipodi.sourceforge.net/DTD/sodipodi-0.dtd"
   xmlns="http://www.w3.org/2000/svg"
   xmlns:svg="http://www.w3.org/2000/svg"><defs
     id="defs259"><clipPath
       clipPathUnits="userSpaceOnUse"
       id="clipPath269"><path
         d="M 0,0 H 6000 V 3406.25 H 0 Z"
         clip-rule="evenodd"
         id="path267" /></clipPath><clipPath
       clipPathUnits="userSpaceOnUse"
       id="clipPath283"><path
         d="M 0,0 H 6000 V 3375 H 0 Z"
         clip-rule="evenodd"
         id="path281" /></clipPath><clipPath
       clipPathUnits="userSpaceOnUse"
       id="clipPath303"><path
         d="M 0,0 H 1229 V 1749 H 0 Z"
         id="path301" /></clipPath><clipPath
       clipPathUnits="userSpaceOnUse"
       id="clipPath331"><path
         d="M 3816.3711,2932.0911 H 6000 V 3375 H 3816.3711 Z"
         clip-rule="evenodd"
         id="path329" /></clipPath><clipPath
       clipPathUnits="userSpaceOnUse"
       id="clipPath343"><path
         d="M 0,0 H 6000 V 3375 H 0 Z"
         clip-rule="evenodd"
         id="path341" /></clipPath><clipPath
       clipPathUnits="userSpaceOnUse"
       id="clipPath367"><path
         d="m 0,1080.1894 h 1920.0562 v 540.625 H 0 Z"
         clip-rule="evenodd"
         id="path365" /></clipPath><clipPath
       clipPathUnits="userSpaceOnUse"
       id="clipPath400"><path
         d="M 4769.4119,1.1782718e-5 H 6000.0001 V 1748.6174 H 4769.4119 Z"
         clip-rule="evenodd"
         id="path402"
         style="stroke-width:1" /></clipPath></defs><sodipodi:namedview
     id="namedview257"
     pagecolor="#505050"
     bordercolor="#eeeeee"
     borderopacity="1"
     inkscape:pageshadow="0"
     inkscape:pageopacity="0"
     inkscape:pagecheckerboard="0"
     showgrid="false"
     inkscape:zoom="0.73333333"
     inkscape:cx="372.95455"
     inkscape:cy="119.31818"
     inkscape:window-width="1920"
     inkscape:window-height="1051"
     inkscape:window-x="-9"
     inkscape:window-y="-9"
     inkscape:window-maximized="1"
     inkscape:current-layer="g261" /><g
     id="g261"
     inkscape:groupmode="layer"
     inkscape:label="john-chimaobi-projects-portfolio"
     transform="matrix(0.31999998,0,0,0.31999998,0,-345.66059)"
     style="display:inline"><g
       id="g263"
       style="display:none"><g
         id="g265"
         clip-path="url(#clipPath269)"><g
           id="g271"
           transform="scale(3.125)"><path
             d="M 0,0 H 1920 V 9800 H 0 Z"
             style="fill:#ffffff;fill-opacity:1;fill-rule:nonzero;stroke:none"
             id="path273" /><path
             d="M 0,0 H 1920 V 1080 H 0 Z"
             style="fill:#ffffff;fill-opacity:1;fill-rule:nonzero;stroke:none"
             id="path275" /></g></g></g><g
       id="g279"
       clip-path="url(#clipPath283)"
       style="display:none"><g
         id="g285"
         transform="scale(3.125)"><path
           d="M 0,0 H 1920 V 1080 H 0 Z"
           style="fill:#53ffc1;fill-opacity:1;fill-rule:nonzero;stroke:none"
           id="path287" /></g></g><g
       id="g325"
       style="display:none"><g
         id="g327"
         clip-path="url(#clipPath331)"><g
           id="g333"
           transform="matrix(4.8140817,0,0,4.806386,3822.7195,2935.4556)"><path
             d="m 99.5,55.900002 c -1.5,0 -3.099998,0.1 -4.099998,-0.700001 C 97,55 98.199997,55.200001 99.5,55.900002 Z m 0,0 z M 389.60001,1.6 c -0.4,0 -0.79999,0 -1.29999,0 0.39999,0 0.79999,0 1.29999,0 z M 5.9000001,100.7 C 4.3000002,99.599998 2.5,99 0,98.699997 1.2,99.800003 3.5999999,100.2 5.9000001,100.7 Z m 0,0 z M 421.70001,24.1 c -0.39999,-0.299999 -0.79999,-0.5 -1.20001,-0.799999 -0.39999,-0.299999 -0.89999,-0.5 -1.29999,-0.799999 0.4,0.299999 0.9,0.5 1.29999,0.799999 C 420.89999,23.6 421.29999,23.9 421.70001,24.1 Z M 461,47.799999 c 1.5,0.900002 3.10001,1.299999 5.29999,1.299999 C 465.10001,48.200001 463,48 461,47.799999 Z m 0,0 z M 20.200001,164 C 21.5,164.7 23.6,164.39999 25.5,164.2 23.9,163.60001 22.299999,163.5 20.200001,164 Z M 25.6,164.2 c 0,0 0,-0.1 0,0 0,-0.1 0,-0.1 0,0 z M 403.10001,97.5 c -0.5,0 -1.10001,0 -1.60001,0 0.5,0 1.10001,0 1.60001,0 z m 88.79998,49.10001 c 1.20002,1.1 2.5,1.69999 4.4,2 -0.9,-1.20002 -2.79999,-1.60001 -4.4,-2 z m -0.1,-0.10001 z M 154.3,160.60001 c 0.4,0 0.9,-0.10001 1.4,-0.10001 -0.5,0 -1,0 -1.4,0.10001 z M 493.20001,148 l -1.79999,-0.2 c -2.1,-0.8 -3.29998,0 -3,-0.8 l 2.9,0.7 c -2.10001,-0.60001 -0.5,-0.80001 0.39999,-1.10001 -0.89999,-0.2 -1.70001,-0.5 -2.39999,-0.89999 -0.5,0.19999 0.29999,0.39999 0.6,0.6 -1.20001,0.10001 -3,0.5 -4.29998,-0.1 -2.20002,-0.5 0.1,-1.30001 -2.5,-1.9 -6.79999,-1.6 -13.4,-3.1 -20.20002,-4.6 -1.70001,-0.4 -3.39999,-0.7 -5,-1.10001 -0.79998,-0.2 -1.70001,-0.3 -2.5,-0.5 -0.79998,-0.2 -1.70001,-0.3 -2.5,-0.5 -3.39999,-0.60001 -6.79998,-1.2 -10.29998,-1.7 -0.29999,-0.39999 0.1,-0.3 0.5,-0.39999 -2.10001,-0.2 -4.10001,-0.39999 -6,-0.7 -1,-0.1 -1.9,-0.19999 -2.9,-0.3 -1,-0.10001 -1.89999,-0.2 -2.89999,-0.2 -1,-0.5 -1.20001,-1.1 -1.5,-1.5 0.29999,0.4 -5,-0.19999 -10.4,-0.89999 -2.70001,-0.3 -5.39999,-0.7 -7.5,-1 -2.1,-0.3 -3.5,-0.5 -3.6,-0.5 l -0.5,1.5 c -4.10001,-0.5 -1,-1.9 -4.9,-2 -1.79998,1.89999 -6.29998,-1 -7.79998,-0.10001 0.1,-0.19999 -1.79999,-0.5 -1.60001,-1.1 -0.39999,0.6 -0.89999,0.5 -1.5,0.39999 1,-3.1 2.70001,-8.5 4.5,-14 2.5,-7.8 5,-15.599998 5.10001,-16.699996 1.29998,0.1 2.6,0.199997 2.89999,0.400001 -0.29999,-0.5 -2.79999,-0.900001 -4.20001,-0.599998 l -0.29999,1.199997 c -3.10001,0.300003 -0.70001,-0.699997 -3.70001,-0.800003 -0.10001,-1 2.70001,-1 5.1,-1 -2.20001,-0.199997 -4.39999,-1 -5.29998,0 -2.10001,-0.5 0.29998,-1.199997 -2.20002,-1.699997 -1.79998,0.199997 -4.20001,1 -6.20001,0.400001 v -0.199997 c -4.89999,-1.199996 -7.6,1.099999 -12.1,0 l 0.5,-0.300003 c -1.60001,-0.599998 -4.79999,0.1 -7.60001,-0.599998 0.79999,0.199997 1.5,0.900001 -0.20001,1 -3.29999,-0.699997 -5.60001,-0.1 -8,-1 l -2.4,0.900001 c -0.70001,0 -1.6,-0.1 -2.6,-0.1 -1,0 -2.10001,0 -3.29999,0 -2.39999,0 -5.20001,0 -8.20001,0 -6.10001,0 -13.29999,0.1 -20.4,0.300003 -3.6,0.1 -7.20001,0.199997 -10.6,0.300003 -3.4,0.1 -6.79999,0.199997 -9.79999,0.300003 -6.10001,0.300003 -11.10001,0.5 -14,0.599999 l 0.5,-0.199997 c -2.20001,0.1 -4.70001,0.199997 -7.39999,0.300003 -2.70002,0.1 -5.70002,0.300003 -8.79999,0.400001 -3.10001,0.1 -6.29999,0.300003 -9.60001,0.400002 -3.29999,0.199997 -6.70001,0.300003 -10.1,0.5 -2.9,0.199997 -5.9,0.400001 -8.80001,0.599998 1.7,-0.300003 3.30001,-0.599998 4.9,-0.900001 1.5,-0.300003 3,-0.5 4.39999,-0.800003 1.4,-0.199997 2.8,-0.5 4.09999,-0.699997 2.70001,-0.5 5.10001,-0.900002 7.29999,-1.400002 2.79999,0.5 6.60001,-0.199997 9.5,-0.300003 -1.60001,-0.199997 -1.20001,-0.900001 0.10001,-1 8.70001,-0.900001 0.5,-0.699997 9.29998,-2.099998 2.5,-0.5 6.79999,-1.099999 12,-1.699997 2.60001,-0.300003 5.4,-0.5 8.4,-0.800003 2.89999,-0.199997 6,-0.5 9,-0.699997 3,-0.199997 6.1,-0.400002 9,-0.599999 2.89999,-0.1 5.70001,-0.300003 8.20001,-0.400001 5.10001,-0.199997 9.20001,-0.300003 11.5,-0.300003 1.20001,-0.400002 2.5,-0.699997 3.79999,-0.900002 1.29999,-0.199997 2.70001,-0.300003 4,-0.400001 2.70001,-0.199997 5.39999,-0.300003 7.79999,-0.800003 l -0.5,0.300003 c 1.29998,-0.199997 4,-0.400002 7.6,-0.5 1.79999,-0.1 3.70001,-0.1 5.79999,-0.199997 2.10001,0 4.20001,-0.1 6.39999,-0.1 4.29999,-0.1 8.60001,-0.1 12.29999,-0.199997 1.79999,0 3.5,-0.1 4.79999,-0.199997 1.39999,-0.1 2.5,-0.1 3.20001,-0.199997 l -0.79999,-0.199997 c 5.20002,-0.900001 4.5,0.599999 8.60001,0.900002 -0.60001,-1.5 3.89999,-2.5 5.60001,-2.599999 l -0.10001,0.300004 c 2.60001,-0.300004 8.29999,-1.800004 12.60001,-1.900002 l -0.20002,0.800003 c 3.5,-0.900001 10.20002,-0.5 12.70002,-0.599998 2.89999,0.199997 6.6,0.599998 10.5,1 3.89999,0.300003 8.1,0.5 12,0 l 4.89999,2.5 0.70001,-0.199997 c 0,0 2.20001,-7.099999 3.20001,-15 1,-7.900002 0.70002,-16.599999 -4.5,-19.700001 l 0.20002,-0.799999 -2.10001,0.1 c -2.5,-0.5 -3.70001,0.5 -3.5,-0.299999 l 3.39999,0.200001 c -2.5,-0.3 -0.70001,-0.700001 0.20002,-1.099999 -1,-0.1 -2.10001,-0.200001 -2.9,-0.5 -0.5,0.299999 0.4,0.400002 0.70001,0.5 -1.39999,0.299999 -3.20001,1 -4.89999,0.599999 -2.60001,-0.1 -0.10001,-1.3 -3.10001,-1.5 -7.89999,-0.5 -15.70001,-0.900002 -23.5,-1.200001 -2,-0.1 -3.89999,-0.1 -5.89999,-0.200001 -1,0 -2,-0.1 -2.89999,-0.1 -1,0 -2,0 -2.9,0 -3.89999,0 -7.89999,0 -11.89999,0.2 -0.4,-0.299999 0.1,-0.299999 0.5,-0.5 -2.10001,0.200001 -4.10001,0.3 -6,0.400002 0.20001,-0.299999 0.39999,-0.599999 0.5,-1 0.39999,-0.700001 0.79999,-1.400002 1.29999,-2.200001 0.5,-0.799999 1,-1.5 1.6,-2.299999 1.10001,-1.599999 2.4,-3.200001 3.70001,-4.799999 1.4,-1.599999 2.79999,-3 4.29999,-4.4 1.5,-1.4 2.9,-2.6 4.20001,-3.6 2.60001,-2.100001 4.70002,-3.4 5,-3.9 0.20002,0.200001 0.5,0.299999 0.70002,0.5 0.20001,0.200001 0.5,0.299999 0.70001,0.5 0.5,0.299999 0.89999,0.700001 1.29999,1 0.79998,0.6 1.29998,1.1 1.6,1.4 -0.1,-0.4 -1,-1.3 -2.20001,-2.3 -0.29999,-0.2 -0.60001,-0.5 -0.89999,-0.7 -0.29999,-0.200001 -0.70002,-0.4 -1,-0.600001 -0.70002,-0.399999 -1.29999,-0.7 -1.9,-1 l -0.89999,0.8 c -0.60001,-0.3 -1.10001,-0.5 -1.5,-0.700001 -0.39999,-0.200001 -0.60001,-0.299999 -0.79999,-0.4 -0.39999,-0.200001 -0.5,-0.399999 -0.6,-0.6 -0.10001,-0.200001 -0.20002,-0.299999 -0.5,-0.600001 -0.20002,-0.1 -0.4,-0.299999 -0.79999,-0.5 -0.4,-0.2 -0.79999,-0.399999 -1.4,-0.6 0,-0.200001 0.29999,-0.299999 0.79999,-0.299999 0.5,0 1.20001,0.200001 2,0.5 0.79999,0.299999 1.79999,0.700001 2.79999,1.1 1,0.5 2,1.100001 3,1.600001 -0.89999,-0.600001 -1.70001,-1.100001 -2.5,-1.700001 -0.79999,-0.5 -1.60001,-1 -2.39999,-1.4 -1.5,-0.799999 -2.79999,-1.200001 -3.70002,-1 -1.6,-0.799999 -1.39999,-1.1 -1.29998,-1.299999 0.1,-0.1 0.1,-0.299999 -0.10001,-0.5 -0.20001,-0.200001 -0.70001,-0.5 -1.70001,-0.9 -0.70002,-0.1 -1.60001,-0.3 -2.4,-0.399999 -0.79998,-0.100001 -1.70001,-0.2 -2.6,-0.3 -0.9,-0.100001 -1.70002,-0.2 -2.5,-0.300001 -0.79999,-0.1 -1.60001,-0.3 -2.4,-0.6 l 0.10001,-0.2 c -1.79999,-0.5 -3.5,-0.7 -4.89999,-0.7 -0.70002,0 -1.4,0 -2.10001,0 -0.70001,0.100001 -1.29999,0.100001 -2,0.2 -0.89999,0.100001 -1.70001,0.2 -2.5,0.3 1.29999,-5.6999995 2.39999,-10.4999997 2.39999,-11.2999999 1,0.1 2,0.1 2.29999,0.3 -0.20001,-0.5 -2.20001,-0.8 -3.20001,-0.5 l -0.20001,1.2 c -2.4,0.4000001 -0.5,-0.7 -2.79999,-0.7 -0.10001,-1 2,-1.1000001 3.89999,-1.2000001 -1.70001,-0.1 -3.29999,-0.90000003 -4.1,0.1 -1.60001,-0.4 0.20001,-1.20000002 -1.70002,-1.6 -1.39999,0.19999999 -3.20001,1.1 -4.70001,0.50000001 V 0.40003602 c -3.79999,-1.10000003 -5.79999,1.29999988 -9.29999,0.30000001 l 0.4,-0.30000001 c -1.20001,-0.60000003 -3.60001,0.10000002 -5.79999,-0.5 0.60001,0.2 1.20001,0.90000003 -0.20001,1 -2.5,-0.60000003 -4.29999,-0.10000003 -6.10001,-0.80000002 L 355,1.1 c -2.20001,-0.1 -6.10001,0 -10.70001,0 -4.70001,0.1 -10.10001,0.2000001 -15.60001,0.4 -5.5,0.2 -10.89999,0.4 -15.6,0.5999999 -4.70002,0.2000001 -8.5,0.4000001 -10.70002,0.5 l 0.29999,-0.2 c -3.39999,0.1 -7.70001,0.2999999 -12.39999,0.5 -4.70001,0.2 -9.9,0.4000001 -15.10001,0.7 -5.20001,0.3 -10.39999,0.5999999 -15.20001,0.9000001 -4.8,0.4000001 -9.10001,0.8000002 -12.60001,1.3000002 -2.19999,-0.8000002 -5.19999,-0.5 -7.39999,-0.5999999 1.3,0.3000002 0.89999,1 -0.10001,1 -6.89999,0.3000002 -0.39999,0.6999998 -7.3,1.4000001 -2,0.3000002 -5.39999,0.6000004 -9.5,0.8000002 -4.10001,0.1999998 -8.89999,0.5 -13.7,0.6999998 -2.39999,0.1000004 -4.8,0.1999998 -7,0.1999998 -2.3,0.1000004 -4.5,0.1999998 -6.5,0.1999998 -4,0.1000004 -7.19999,0.1000004 -9,0.1000004 C 183.19994,11.200001 178.39993,10.6 174.69994,11.8 l 0.3,-0.3 c -1,0.2 -3.2,0.4 -5.89999,0.6 -2.80001,0.2 -6.10001,0.4 -9.50001,0.600001 -6.8,0.399999 -13.6,0.8 -15.89999,1.3 l 0.60001,0.1 c -4,1.2 -3.60001,-0.3 -6.80001,-0.399999 0.60001,1.5 -2.8,2.699999 -4.1,2.9 v -0.299999 c -2,0.5 -6.3,2.200001 -9.6,2.799999 v -0.799999 c -2.6,1.200001 -7.8,1.4 -9.8,1.700001 -4.5,0.1 -11.7,-0.4 -17.500003,1.399999 L 92.29995,19.500004 92,19.799999 c 0,0 -0.699997,7.299999 -0.300003,15.200001 0.400001,7.900002 1.900001,16.5 6.199997,19 v 0.799999 l 1.5,-0.299999 c 1.900006,0.200001 2.599996,-0.900002 2.599996,0 l -2.599996,0.200001 c 1.900006,0 0.599998,0.599998 0,1.200001 0.800006,0 1.599996,0 2.199996,0.2 0.3,-0.400001 -0.3,-0.299999 -0.6,-0.5 1,-0.400001 2.30001,-1.400001 3.5,-1.099998 1.9,-0.200001 0.30001,1.299999 2.5,1.099998 5.9,-0.400001 11.7,-0.599998 17.5,-1 2.1,-0.1 4.20001,-0.299999 6.4,-0.400001 -4.9,2.099998 -11.19999,2.299999 -16,4 L 115.3,57.799999 c -1.30001,0.400002 -4.2,0.900002 -7.90001,1.5 -1.8,0.299999 -3.9,0.599999 -6,0.900002 -1.09999,0.200001 -2.199993,0.299999 -3.299999,0.5 -1.099999,0.1 -2.199997,0.299999 -3.400002,0.400001 -1.099998,0.1 -2.199997,0.3 -3.400001,0.400002 -0.599999,0.1 -1.099999,0.1 -1.699997,0.200001 -0.5,0.1 -1.099999,0.1 -1.599999,0.2 -2.199997,0.3 -4.199997,0.5 -6.099998,0.700001 -0.900002,0.1 -1.800003,0.200001 -2.699997,0.299999 -0.800003,0.1 -1.599999,0.200001 -2.300003,0.3 -1.400002,0.2 -2.5,0.299999 -3.300003,0.5 l 0.800003,0.1 c -2.599999,0.699997 -3.800003,0.699997 -4.800003,0.5 -1,-0.199997 -2,-0.599998 -4.099999,-0.700001 0.300003,0.700001 -0.599998,1.399998 -1.900001,2.000004 -1.299999,0.5 -2.799999,0.900002 -3.700001,1 v -0.300003 c -1.299999,0.199997 -3.400001,0.800003 -5.799999,1.300003 -2.299999,0.5 -4.900002,1 -7.099999,1.199997 L 47.099991,68 c -0.400002,0.1 -0.900002,0.300003 -1.5,0.300003 -0.5,0.1 -1.099999,0.1 -1.700001,0.199997 -1.200001,0.1 -2.400001,0.199997 -3.700001,0.199997 -1.2,0 -2.400001,0.1 -3.5,0 -1,0 -2,-0.1 -2.599998,0 -1.5,-0.1 -3.100001,-0.300003 -4.9,-0.5 -0.200001,0 -0.5,-0.1 -0.700001,-0.1 -0.2,0 -0.5,-0.1 -0.7,-0.1 -0.5,-0.1 -0.9,-0.1 -1.4,-0.199997 -0.9,-0.1 -1.9,-0.300003 -2.9,-0.400001 -1,-0.1 -2,-0.199997 -3,-0.300004 -1,-0.1 -2,-0.199996 -3,-0.300003 -1.999999,-0.199997 -3.999999,-0.300003 -5.999999,-0.199997 l -4.6000004,-3 -0.6999999,0.1 c 0,0 -0.6999998,1.699997 -1.7999997,4.400001 -1,2.699997 -2.2999999,6.300004 -3.2999999,10.199997 -1.00000002,3.800003 -1.70000006,7.900002 -1.60000004,11.5 0.19999999,3.599999 1.39999998,6.699997 4.09999974,8.599999 l -0.2999999,0.800003 2.4000003,0.199997 c 0.6999998,0.199997 1.3000002,0.300003 1.8000002,0.300003 0.5,0 0.8999996,0 1.3000002,0 0.6999998,0 0.8999996,0 0.8000002,0.400005 L 7.6999917,99.900002 5.7999916,99.599998 C 8.5999918,100.2 6.5999918,100.4 5.3999915,100.7 c 1.2000003,0.19999 2.2999997,0.5 3.2000003,0.8 0.6000004,-0.3 -0.3999996,-0.4 -0.8000002,-0.6 1.6000004,-0.1 3.8000004,-0.69999 5.6000004,-0.19999 2.9,0.4 0.1,1.4 3.5,1.8 2.200001,0.2 4.5,0.4 6.699999,0.6 1.1,0.1 2.200001,0.19999 3.299999,0.3 1.1,0.1 2.200001,0.1 3.299999,0.2 2.200001,0.1 4.400002,0.3 6.599999,0.4 2.200001,0.1 4.400001,0.1 6.599998,0.2 l 3.3,0.1 c 1.099998,0 2.2,0 3.299999,0 2.200001,0 4.400001,-0.1 6.599998,-0.1 2.200001,-0.1 4.400002,-0.2 6.599999,-0.40001 1.099998,-0.1 2.199997,-0.1 3.300003,-0.19999 1.099998,-0.1 2.199997,-0.2 3.300003,-0.30001 0.400001,0.30001 0,0.30001 -0.5,0.5 2.599998,-0.4 5.099998,-0.69999 7.5,-1 2.400001,-0.3 4.800003,-0.69999 7.099998,-1.09999 1.400002,0.19999 1.800003,0.69999 2.199997,1 -0.199997,-0.1 1.199997,-0.5 3.5,-0.90001 0,3.30001 0,8.80001 0,14.40001 -1.699997,0.19999 -3.300003,0.4 -4.699997,0.59999 -1.400001,0.2 -2.5,0.40001 -3.199997,0.6 l 0.800003,0.1 c -5.099998,1.6 -4.599998,0.1 -8.900001,0.3 0.800003,1.40001 -3.599999,3 -5.300003,3.40001 V 120.9 c -2.5,0.7 -8.200001,2.80001 -12.400002,3.80001 V 123.9 c -3.400001,1.5 -10.099998,2.30001 -12.7,2.80001 -5.900002,0.59999 -15.200001,0.9 -22.700001,3.4 l -5.5,-1.4 -0.7,0.4 c 0,0 -0.7,7.39999 0.1,15.3 0.800001,7.89999 3.000001,16.3 8.6,18.39999 v 0.80001 l 2,-0.5 c 2.5,0 3.399999,-1.2 3.399999,-0.4 l -3.299999,0.5 c 2.4,-0.2 0.9,0.5 0,1.2 1,-0.10001 2,-0.2 2.9,-0.10001 0.399999,-0.39999 -0.4,-0.3 -0.799999,-0.39999 1.2,-0.5 2.899999,-1.60001 4.5,-1.5 2.5,-0.4 0.400001,1.3 3.299999,0.8 7.599998,-1.1 15.200001,-2 22.700001,-3 1.900001,-0.3 3.799999,-0.5 5.599998,-0.8 0.899998,-0.10001 1.899998,-0.3 2.799999,-0.4 0.900002,-0.1 1.900002,-0.3 2.800003,-0.39999 3.800003,-0.5 7.599999,-1.10001 11.400002,-1.7 0.400001,0.30001 0,0.30001 -0.400002,0.60001 2.300003,-0.5 4.5,-0.89999 6.599999,-1.3 1.099998,-0.2 2.099998,-0.4 3.199997,-0.60001 1,-0.2 2.099998,-0.39999 3.099998,-0.60001 1.199997,0.2 1.599999,0.7 2,1 -0.400001,-0.3 5.4,-1.3 11.3,-2.19999 3,-0.5 6,-0.9 8.30001,-1.2 2.3,-0.3 3.9,-0.39999 4,-0.39999 l 0.1,-1.5 c 4.59999,-0.60001 1.5,1.5 5.69999,0.6 1.4,-2.3 7,-0.69999 8.4,-2 0,0.2 2.1,0 2,0.7 0.5,-1.2 2.1,-0.5 3.39999,-1 0.39999,-0.39999 -0.39999,-0.3 -0.8,-0.60001 1,-0.3 2,-0.5 3,-0.69999 1.19999,0.19999 1.6,0.89999 0.3,1.1 2,-0.1 5.8,-0.39999 10.60001,-0.8 1.89999,-0.10001 4,-0.3 6.1,-0.5 -1.3,6.10001 -2.3,11.39999 -2.2,12.3 -1.1,0 -2.19999,0 -2.5,-0.19999 0.30001,0.5 2.5,0.69999 3.60001,0.39999 l 0.2,-1.2 c 2.6,-0.5 0.6,0.7 3.19999,0.5 0.2,0.9 -2.19999,1.2 -4.3,1.4 1.9,0.1 3.8,0.69999 4.5,-0.4 1.8,0.4 -0.2,1.2 2,1.5 1.5,-0.3 3.5,-1.3 5.3,-0.8 v 0.2 c 4.30001,0.89999 6.5,-1.60001 10.4,-0.7 l -0.4,0.3 c 1.4,0.5 4.10001,-0.19999 6.60001,0.30001 -0.7,-0.2 -1.3,-0.9 0.2,-1 2.89999,0.6 4.8,-0.10001 6.89999,0.69999 l 2,-1 c 1.2,0 2.9,0 5,0 2,0 4.4,0 7,-0.1 5.2,-0.10001 11.4,-0.30001 17.5,-0.30001 3.10001,0 6.2,-0.1 9.10001,-0.1 3,0 5.8,-0.10001 8.39999,-0.10001 5.2,0 9.60001,0 12.10001,0.10001 l -0.4,0.1 c 1.9,0 4.10001,0 6.4,0 2.29999,0 4.89999,0.10001 7.5,0.2 2.70001,0.10001 5.39999,0.2 8.29999,0.2 2.79998,0.1 5.79998,0.1 8.70001,0.3 5.79999,0.2 11.70001,0.5 17.1,0.60001 5.4,0.19999 10.29999,0.3 14.20002,0.3 2.39999,1.10001 5.70001,1.10001 8.20001,1.60001 -1.4,-0.5 -0.79999,-1.10001 0.29999,-1 7.70001,0.8 0.6,-0.60001 8.39999,-0.30001 2.29999,0 6.10001,0.2 10.70001,0.60001 2.29999,0.2 4.79999,0.5 7.4,0.7 2.6,0.3 5.29998,0.6 7.89999,0.89999 2.70001,0.3 5.29999,0.7 7.89999,1 2.5,0.39999 5,0.7 7.20002,1.10001 4.39999,0.69999 8.1,1.3 10,1.69999 1.1,-0.19999 2.29998,-0.3 3.39999,-0.19999 1.20001,0 2.39999,0.19999 3.60001,0.3 2.39999,0.3 4.79998,0.60001 6.89999,0.5 l -0.5,0.3 c 1.10001,0 3.60001,0.30001 6.70001,0.80001 1.5,0.19999 3.29999,0.5 5,0.69999 1.79999,0.30001 3.70001,0.60001 5.5,0.9 3.79999,0.6 7.5,1.3 10.70001,1.8 1.60001,0.2 3,0.5 4.20002,0.60001 1.20001,0.19999 2.20001,0.3 2.79998,0.3 l -0.70001,-0.3 c 4.70001,-0.10001 3.79999,1.3 7.29999,2.3 -0.20001,-1.60001 3.79999,-1.8 5.29999,-1.7 l -0.10001,0.3 c 2.29999,0.10001 7.5,-0.39999 11.29999,0 l -0.29999,0.80001 c 3.20001,-0.4 8.9,1 11.20001,1.3 5,1.2 12.5,4.10001 19.4,4.2 l 3.89999,3.1 0.70001,-0.1 c 0,0 3.10001,-6.7 5.29999,-14.4 2.20001,-7.69999 3.29999,-16.3 -0.6,-20.1 z"
             style="fill:#000000;fill-opacity:1;fill-rule:nonzero;stroke:none"
             id="path335" /></g></g></g><g
       id="g337"
       style="display:none"><g
         id="g339"
         clip-path="url(#clipPath343)"><g
           id="g345"
           transform="matrix(3.5885797,0,0,3.5885797,337.5,658.13892)"><text
             transform="translate(0,170)"
             style="font-variant:normal;font-weight:900;font-size:193.68px;font-family:Muli;-inkscape-font-specification:Muli-Black;writing-mode:lr-tb;fill:#000000;fill-opacity:1;fill-rule:nonzero;stroke:none"
             id="text349"><tspan
               x="0 78.049789 233.9557 385.79449"
               y="0"
               sodipodi:role="line"
               id="tspan347">JOHN</tspan></text><text
             transform="translate(0,363)"
             style="font-variant:normal;font-weight:900;font-size:193.68px;font-family:Muli;-inkscape-font-specification:Muli-Black;writing-mode:lr-tb;fill:#000000;fill-opacity:1;fill-rule:nonzero;stroke:none"
             id="text353"><tspan
               x="0 132.66528 284.50409 345.70441 510.71289 659.64661 815.55249 951.51019"
               y="0"
               sodipodi:role="line"
               id="tspan351">CHIMAOBI</tspan></text></g><g
           id="g355"
           transform="matrix(3.4338918,0,0,3.4338918,385.15018,2169.9248)"><text
             transform="translate(0,57)"
             style="font-variant:normal;font-weight:normal;font-size:67.95px;font-family:GiveYouGlory;-inkscape-font-specification:GiveYouGlory;writing-mode:lr-tb;fill:#000000;fill-opacity:1;fill-rule:nonzero;stroke:none"
             id="text359"><tspan
               x="0 24.614075 47.569519 78.950806 110.33209 162.54578 197.31067 227.49774 257.28674 291.25549 333.05298 362.84198 398.93378 428.72278 438.07745 461.0329 486.64215 516.43115"
               y="0"
               sodipodi:role="line"
               id="tspan357">software Developer</tspan></text></g></g></g><g
       id="g361"
       style="display:inline"><g
         id="g363"
         clip-path="url(#clipPath367)"><g
           id="g369"
           transform="matrix(4.8223214,0,0,4.8184047,-470.81619,1081.1531)"><path
             d="m 181.5,110 -2.10001,1 c -3,1 -3.69999,1 -2.69999,0.6 z m 16,-4.2 c 3.5,-1.3 7.60001,-2.9 5.2,-2.4 -3.5,1.4 -4.4,1.6 -8.10001,3.1 -3,1 -5.39999,1.6 -4.89999,1.3 -1.10001,0.40001 -4.80001,1.40001 -6.4,2.1 4.10001,-1 9.10001,-2.5 14.30001,-4.4 1.19999,-0.3 0.1,0.1 -0.10001,0.3 z m 289,-104 2.20001,-0.4 c -0.5,0.1 -1.30002,0.2 -2.20001,0.4 z M 293.29999,42.5 c 1.39999,-0.299999 2,-0.5 2.1,-0.5 -1.29998,0.299999 -2.39999,0.5 -2.1,0.5 z m -32.5,6.400002 c 0.70001,-0.1 1.29999,-0.3 1.89999,-0.400002 -0.69998,0.1 -1.49997,0.299999 -1.89999,0.400002 z M 486.5,1.8 480.39999,3 C 479.5,3.3 483.5,2.5 486.5,1.8 Z M 238.39999,92.099998 C 237.39999,92.400002 236.5,92.699997 235.7,93 c 0.8,-0.300003 1.69999,-0.599998 2.5,-0.800003 0.1,-0.1 0.1,-0.1 0.19999,-0.1 z m 174.9,-58.399997 -1.5,0.599998 c -0.4,0.200001 -0.79999,0.400002 -1.20001,0.599999 0.90002,-0.399998 1.80001,-0.8 2.70001,-1.199997 z M 351.70001,56.400002 C 353.10001,55.900002 353.5,55.5 354,55.200001 353.29999,55.600002 352.20001,56 351,56.5 c 0,0 0.20001,0 0.70001,-0.1 z M 252.8,88.800003 251.10001,89.400002 C 251.5,89.199997 252.3,88.900002 252.8,88.800003 Z M 456.89999,16.299999 c 0.10001,0 0.4,-0.1 0.60001,-0.1 -0.10001,-0.1 -0.29999,2e-6 -0.60001,0.1 z M 158.2,28.1 c -0.4,0.100001 -0.5,0.100001 0,0 z m -75.299998,10.699999 1,-0.200001 c 0.1,-0.1 0.199996,-0.1 0.199996,-0.2 z M 201.39999,60.700001 c 0.10001,0 0.2,0 0.30001,0 1.5,-0.400002 0.6,-0.200001 -0.30001,0 z m -20.89999,-7.5 C 186.8,52.400002 170.5,55.299999 179.89999,54 179,54 188.3,52 180.5,53.200001 Z m 59.60001,38.399997 c 0.8,-0.300003 1.69999,-0.5 2.6,-0.800003 -1.30002,0.300003 -2.00001,0.600007 -2.6,0.800003 z M 179.89999,54 l 1,-0.1 c -0.5,0 -0.69999,0 -1,0.1 z M 96.699997,85.400002 c -0.300003,0 -0.800003,0 -1.400002,0.1 0.100007,0 0.400002,0 1.400002,-0.1 z M 166.60001,68.5 l -2.5,0.5 c 1,-0.199997 1.79998,-0.400002 2.5,-0.5 z M 149.8,75.099998 c 1.4,-0.300003 1.9,-0.300003 3.7,-0.699996 -0.2,0 -0.39999,0 -0.60001,0.1 C 152.2,74.600002 151.3,74.800005 149.8,75.1 Z m 55,-11.799999 c -0.3,0 -0.69999,0.1 -1,0.200001 -0.5,0.1 -1.19999,0.299999 -1.69999,0.400002 z m -56.19999,-19.5 c 1.19999,-0.299999 2,-0.400001 2.6,-0.5 -0.90001,0.100003 6.9,-2.5 -2.6,0.5 z M 238.5,92.199997 C 238.8,92 239.2,91.799995 240.10001,91.599998 239.5,91.799995 238.90001,92 238.3,92.199997 c -0.19999,0.100006 -0.19999,0.100006 0.2,0 z m -87,-19.899994 8.8,-1.699997 c -2.5,0.499992 -5.6,1.099991 -8.8,1.699997 z M 189.7,41 l 2,-0.5 c -0.80001,0.1 -1.5,0.299999 -2,0.5 z m -3.5,24.099998 c 1.6,-0.199996 3.19999,-0.5 5,-0.900001 0.39999,-0.1 0.8,-0.200001 1,-0.299999 z m -35,-21.799999 z M 203.39999,25 C 211.2,22 206,24.1 213.2,21.700001 c 4,-1.799999 7.8,-2.9 8.5,-3.700001 2.69999,-0.6 1.89999,-0.5 6.89999,-2.2 -1.60001,0.400001 3.60001,-1.7 6.60001,-3 l 0.69999,2.6 C 234.5,15.7 233.5,15.9 233.7,16 c -1,0 0.69999,-0.4 2.19999,-0.8 l -0.6,-2.3 c -1.60001,0.8 -3,1.399999 0.19999,0.399999 l 0.4,1.4 c 0,0 -0.2,0 -0.3,0 -4.60001,1 -13.2,2.5 -13.9,3 -3.6,0.5 -5.2,0.6 -10.7,1.399999 0.9,-0.1 1.9,-0.399999 2.5,-0.5 -9.8,1.9 -24.3,3.9 -29.8,5.3 1.9,-0.9 -20.89999,3.299999 -13.5,1.5 -4.1,0.7 -10.5,2 -11.89999,2.299999 0.39999,-0.5 -10.2,1.5 -14.7,2 -2.3,0.6 -9.60001,1.700001 -14.10001,2.599998 2,-0.399999 3,-0.6 2.30001,-0.6 -5,1.000002 -3.8,0.6 -8.1,1.1 -6.8,1.200001 1.3,0.200001 -2.8,1 -5.9,0.8 -0.9,-0.1 -2,-0.2 l -8.7,1.900001 c -1.8,0.200001 -3.1,0.400002 -3.8,0.299999 -3,0.599999 -5.7,1.3 -10.000004,1.700001 l 7.500004,-1.200001 -2.9,0.200001 L 92,38.700001 c -12.900002,1.700001 -9,0.599998 -8.099998,-0.1 L 89.099998,37.7 C 89,37.5 85.300003,38 83,38.400002 80.800003,38.600002 91.300003,36.5 97,35.5 112.4,33 100.3,35.6 110.8,34 l 13.6,-2.5 0.2,0.1 c 2.2,-0.2 3.4,-0.6 4.00001,-0.799999 -0.9,0.4 11.1,-1.700001 16.6,-2.6 l -2,0.1 c 15.3,-3 24.4,-3.399999 36.5,-5.6 l 8.5,-1.799999 h 1.80001 c 5,-1 5.8,-1.4 14.1,-2.600001 10.3,-1.5 20.8,-3.1 31.4,-4.8 l 5,-0.8 -4.7,1.899999 c -18.2,7.300002 -36.9,14.4 -55.10001,20.4 0.4,-0.1 1.2,-0.299999 3,-0.900002 -6.19999,2 -11.69999,3.700001 -16.89999,5.5 -5.10001,1.700001 -9.9,3.400002 -14.5,5 -4.7,1.599999 -9.30001,3.200001 -14.10001,4.700001 -2.39999,0.799999 -4.89999,1.5 -7.5,2.299999 -2.6,0.700001 -5.3,1.5 -8.1,2.3 l 1.5,-0.599999 c -11.5,3.400002 1.5,-0.599998 -6.9,1.700001 -0.69999,0.400002 -4.4,1.5 -8.6,2.799999 -4.3,1.299999 -9.199993,2.599999 -12.499996,3.599999 1,-0.400002 3.300003,-1 5.199996,-1.599999 -1.3,0.299999 -1.800002,0.200001 -5.099998,1.099999 -7.199997,2.5 -23.199997,6.600002 -35,9.600002 -1.299999,0.1 -9.400001,1.800003 -14.799999,2.699997 l -0.200001,-0.900002 c 0.900002,-0.199997 1.700001,-0.300003 2.299999,-0.400001 1.200001,-0.400002 3.400002,-1 5.3,-1.699997 4.299999,-0.800003 7.5,-1.599999 10.5,-2.400002 -3.8,0.800003 -7.099999,1.599999 -9.599999,2.099999 0.1,0 0.200001,-0.1 0.299999,-0.1 -0.400001,0.1 -1.099998,0.300003 -1.599998,0.400002 -2.599999,0.599998 -3.900002,0.900001 -3.299999,0.800003 -4.8,0.800003 0.299999,-0.300003 -0.1,-0.5 3.900002,-0.800003 11.900002,-2.699997 12.799999,-2.699997 2.3,-0.5 3.899998,-0.800003 6.3,-1.300003 1.5,-0.400002 3,-0.699997 4.800003,-1.099998 L 73,65.800003 c 0.300003,0 0.599998,-0.1 1,-0.1 7.599998,-1.5 18.199997,-4.3 24.400002,-5.900002 -6.099999,1.700001 1.699998,0.1 1.699998,0.299999 0.7,-0.2 -7.000002,1.5 -16.700006,3.599999 0.699997,-0.1 1.300003,-0.200001 1.400001,-0.1 8.400002,-1.5 14.199997,-3.400001 26.400005,-5.900001 -0.80001,0.200001 -2.30001,0.599998 -1.7,0.599998 4.3,-0.900001 8.2,-2 9.2,-2.299999 1.1,0 10.39999,-1.799999 14.89999,-2.900002 C 137.49998,52 136.89999,52 144.2,50.5 l -3.10001,0.900002 c 8.60001,-1.700001 6.89999,-1.8 14,-3.200001 -2.8,0.5 -3,0.799999 -0.89999,0.400001 8.89999,-2.099998 9.1,-2.2 15.39999,-4 l -1.10001,0.5 c 3.80001,-0.900001 9.2,-2.299999 13.7,-3.299999 4.5,-1.099998 8.2,-1.799999 8.3,-1.700001 -2.5,-0.1 16.5,-4 23.10001,-5.400001 -2.3,0.5 -2.7,0.700001 -2.89999,0.799999 13.8,-3.400002 28.1,-6.200001 42.09999,-9.299999 l 2.3,-0.100001 c 3.2,-0.7 5.40001,-1.399999 7.49999,-2 l 0.5,2.100001 C 260.39996,27.1 257.79999,28 253.19998,29 l 2.9,-0.9 c -14.2,3.4 -20,4.699999 -31.5,7.300002 l 0.19999,-0.3 c -4.1,1.099999 -9.19999,2.3 -13.3,3.400002 -9.60001,1.5 -37.2,9 -54.60001,12.200001 l -1,0.799999 c -6.6,1.5 -15,3.599998 -18.19999,3.900001 l 1.5,-0.299999 c 0.6,-0.599998 -6.60001,1.5 -10.7,2.400002 -3.1,0.799999 -6.1,1.799999 -3.4,1.2 -17.5,3.8 -43.400004,10.100003 -54.400004,12.100003 -1.800003,0.400001 -3.5,0.900001 -5.199997,1.300003 -0.800003,0.199997 -1.7,0.400001 -2.5,0.599998 l -0.599998,0.199997 -0.299999,0.1 L 61.700001,73 c -1.099999,0.300003 -1.900002,0.599998 -2.400002,0.699997 C 58.799999,73.899994 58.599998,74 58.599998,74 c 0,0.1 0.1,0.1 0.1,0.1 0,0 -0.1,0.1 -0.799999,0.199997 L 56.3,74.6 c -9.100003,1.9 -27.000001,5.599997 -27.3,5.599997 -0.200001,0 -0.299999,0.1 -0.299999,0.1 C 31.800001,79.699999 34.799999,79.1 37.599998,78.6 40.5,78 43.399998,77.5 46.299999,76.900002 48.399998,76.5 50.5,76.099998 52.700001,75.599998 c 1.599998,-0.300003 2.700001,-0.5 3.200001,-0.599998 0.299999,-0.1 0.5,-0.1 0.599998,-0.1 l -3.900002,0.900001 c -0.1,0.1 1.5,-0.300003 2.900002,-0.599998 1.400002,-0.300003 2.700001,-0.599999 3.099998,-0.699997 0.3,0 -0.799999,0.300003 -1.5,0.400001 -0.1,0.1 0.8,-0.1 1.599999,-0.300003 0.700001,-0.199997 1.299999,-0.300003 2.099998,-0.5 -0.299999,0.1 -0.7,0.199997 -1.099998,0.400002 0.400001,0 1,-0.1 1.700001,-0.199997 0.400001,-0.1 0.7,-0.1 1.099998,-0.199997 0.900002,-0.199997 1.799999,-0.300003 2.700001,-0.5 4,-0.699997 8.400001,-1.5 12.800003,-2.400002 8.900002,-1.699997 18.199997,-3.5 26.6,-4.900001 -3.1,0.599998 -1.4,0.5 -0.2,0.300003 6.80001,-1.699997 25.8,-4.900002 32.8,-6.3 l -4.30001,1 c 13.7,-2.7 12,-1.5 25.5,-4.299999 L 150.5,58.100014 c 5.60001,-0.900002 10.3,-1.8 8.89999,-1.8 6.5,-1 0.9,0.3 10.60001,-1.400001 0.39999,0.1 -7,1.299999 -3.8,1 l 13.6,-2 c 0.4,0 2.10001,-0.299999 6.5,-1.099999 -1.3,-0.400001 11.2,-2 4.30001,-1.400001 19.1,-3.400002 35.3,-5.799999 51.6,-9 6.80001,-0.599999 32.5,-5.700001 31,-4.599999 9.29999,-1.599998 16.79999,-3.099998 22.4,-4.400001 -1.9,0.299999 -4.20002,0.799999 -6.10001,1.099998 2.39999,-0.599998 13.5,-2.6 18.20001,-3.399999 -6.1,1.300001 -15.89999,3.1 -20.6,4.300001 8.39999,-1.599999 20.1,-3.9 24.79998,-4.799999 h 2.20002 c 7,-1.5 6,-0.700001 13,-2.4 l -1.4,0.1 c 8.60001,-1.5 11.60001,-2.2 16.10001,-3.1 l 0.39999,1.700001 c -2.20001,0.700001 -4.89999,1.6 -8.89999,2.799999 l 0.5,-0.299999 c -2,0.6 -4.5,1.399999 -7,2.200001 -2.5,0.800001 -5,1.499998 -7,1.899999 l 7.70001,-2.299999 c -0.89999,0 -6.79999,1.5 -9.5,2.200001 -8.10001,2.400001 -2.70001,1.299999 -6.79999,2.5 -1.79999,0.200001 -0.5,0 2.29999,-1.099999 -9.10001,2.700001 -21.39999,6.3 -27.79999,8.400002 -0.39999,0.1 0,-0.1 0,-0.1 -9.5,2.599999 -17.89999,5.200001 -23.79999,6.5 L 264,49 c -3.89999,0.799999 -8.8,2.099998 -13,3.299999 -2.10001,0.599999 -4,1.099999 -5.5,1.400002 -1.5,0.299999 -2.60001,0.5 -3,0.400001 -1.8,0.400002 0.2,-0.1 2,-0.599998 1.8,-0.5 3.3,-0.900002 0.3,-0.299999 -11.5,2.599998 -7.39999,2.400001 -17.5,4.7 1.4,-0.299999 0.9,-0.2 1.4,-0.400001 -7.30001,1.700001 -16.9,4.099998 -25,6 -2.5,0.400001 -5.60001,1.100002 -9.10001,1.799999 -3.5,0.699997 -7.3,1.599999 -11.2,2.5 -3.89999,0.900002 -7.8,1.699997 -11.5,2.400002 -3.69999,0.699997 -7.1,1.400001 -10,1.800003 3.7,-0.5 -2.8,0.800003 -2.8,0.900001 0,0 0.5,-0.199997 0,-0.1 -4.2,0.800003 -4.60001,1.099998 -6.2,1.5 -1.69999,0.199997 -4.6,0.900001 -7.3,1.5 -2.7,0.599998 -5.3,1.199997 -6.39999,1.300003 0,0.199997 -3.4,0.800003 -7.10001,1.5 7.39999,-1.599999 2.3,-0.800003 5.60001,-1.599999 -5.60001,1 -8.7,1.800003 -11.9,2.599999 -3.2,0.800003 -6.5,1.5 -12.30001,2.5 l -6.5,0.900001 c -1.19999,0.599999 -11.999998,2.400002 -11.800001,2.5 -2,0.199997 -4.900001,0.599999 -4.5,0.300003 -3,0.599999 -7.099998,1.199997 -10,1.699997 l -0.300003,-1.5 c 1.599999,-0.300003 2.800003,-0.599998 3.5,-0.800003 l -3.5,0.599999 0.300003,1.900001 1.099999,-0.199997 c -0.400002,0.1 -0.800003,0.1 -1.099999,0.199997 l -0.300003,-1.900001 c 13.699997,-2.699997 22.000004,-4.900002 32.700004,-6.800003 l -0.1,0.699997 c 7.4,-1.199997 13.5,-3.099999 19.9,-4 -2.3,0.199997 -2.69999,0.400001 1.9,-0.800003 -2.80001,0.5 -7.9,1.699996 -12.5,2.699996 l 9.8,-2.400001 -15.3,3.300003 c 6.5,-1.599998 6.1,-1.400002 3.3,-1.099998 9.3,-2.099999 10.10001,-1.699997 19,-3.800004 3.2,-0.599998 0,0.300004 3.7,-0.300003 7.89999,-1.800003 15.19999,-2.599998 20.8,-4.099998 1.8,-0.300003 -3.3,0.699997 -2.8,0.699997 5.1,-1.099999 8.8,-1.800003 10.19999,-2.300003 l -4.39999,0.800003 c 3.8,-0.800003 4.39999,-1.099999 11.8,-2.5 4.2,-1 6.5,-1.800003 1.9,-0.900002 1.89999,-0.400001 6,-1.099998 4.6,-0.599998 11.4,-2.299999 5.30001,-1.799999 16.4,-3.799999 -0.7,0.2 -1.5,0.400001 -1.10001,0.299999 2.8,-0.5 5.10001,-1 6.9,-1.400002 -9.80001,2.099999 3.1,-0.1 -8.4,2.099999 1.3,0.1 8.8,-1.700001 12.5,-2.400002 5.60001,-1.400001 0.5,-0.599998 3.3,-1.299999 0,0.1 2.30001,-0.400001 5.10001,-0.900001 l -2.7,0.299999 c 2.30001,-0.5 4.60001,-1 7.4,-1.599999 l -4.7,1.099999 c 5.10001,-1 12.89999,-2.200001 21.7,-4.299999 -2.30001,0.599998 -7,1.799999 -1,0.7 9.69999,-2.2 2.3,-0.400001 7.8,-1.299999 9.7,-2.099998 1.60001,-0.799999 15.90001,-3.599998 1.5,-0.3 0.10001,-0.200001 -1.5,0.1 9.79999,-1.900001 15.10001,-3.200001 24.60001,-5 -4.10001,0.799999 -7.4,1.400002 -1.79999,0.1 -2.29999,0.7 7.79999,-1.400002 11.5,-2.099999 l 0.89999,-0.299999 c 3,-0.5 -0.20001,0.200001 -2.5,0.799999 0.10001,-0.1 -0.79999,0.1 -2.6,0.5 -4.60001,1.099999 -2.9,1.200001 4.5,-0.299999 7.89999,-1.799999 6.5,-1.799999 5.20001,-1.700001 10.6,-2.099998 9.79999,-2.599998 19.89999,-4.599998 2.29999,-0.5 10.10001,-1.599999 17.5,-3.099999 3.70001,-1.1 -9.20001,1.700001 -5,0.599999 12.4,-1.9 25,-5.700001 41.10001,-8.700001 l -1.9,0.799999 c 3.70002,-0.799999 7.4,-1.5 11.60001,-2.4 l -5.5,1 c 3.70001,-0.899999 12.5,-2.7 9.70001,-1.799999 8.4,-2.1 10.20001,-2.299999 18,-3.799999 -8.29999,1.700001 -0.20001,0 -6.20001,1.4 8.79999,-1.700001 9.39999,-1.9 15.39999,-3.3 -1,0.3 2.20002,-0.2 4.60001,-0.6 5.60001,-1.4 15.29999,-3.4 23.10001,-5.2 v 0.100001 c 6.6,-1.5000004 13.5,-2.9000005 20.39999,-4.3000006 1.70001,-0.4000001 3.5,-0.6999998 5.20001,-1.0999999 2,-0.4000001 4,-0.8000002 6,-1.2999997 4,-0.9000001 8.10001,-1.8 12.79999,-2.9000001 0.29999,-0.1000001 0.70001,-0.20000003 0.89999,-0.20000003 l -1.1,0.20000003 c -0.60001,0.1 -0.4,0 0.5,-0.30000006 0.89999,-0.19999998 2.5,-0.60000002 4.6,-1.10000002 -2.20001,1 -5.1,2.29999988 -7.79998,3.49999998 -2.79999,1.1999998 -5.4,2.4000001 -6.79999,3.0999999 -1.5,0.5999999 -2.5,0.9000001 -5.29999,1.9999995 0.29999,0 -1.29999,0.8000002 -3.20001,1.6000004 -0.9,0.3999996 -1.79999,0.8000006 -2.70001,1.1999996 -0.70002,0.3 -1.29999,0.600001 -1.79999,0.8 -4.4,1.7 0.39999,-0.6 -7,2.600001 -2.9,1.2 -3.10001,1.5 -2.70001,1.5 -1.60001,0.5 -6.4,2.399999 -10.29999,3.899999 1.29999,-0.6 3.5,-1.399999 4.39999,-1.799999 0.4,-0.399999 -2.20001,0.799999 -2.20001,0.600001 -3.5,1.399999 -1.29999,0.799999 -5.70001,2.5 l 4,-1.9 c -1.79999,0.700001 -4,1.6 -4.79999,2 2.60001,-1.1 2.20001,-1.200001 1.70001,-1.200001 -10.1,4.299999 -1.70001,1.4 -2.20001,1.9 -4.79999,1.799999 -9.10001,3.6 -13.10001,5.300001 -4,1.6 -7.70001,3.200001 -11.5,4.700001 l 1.29999,-0.8 c -3.6,1.5 -5.39999,2.200001 -6.6,2.900002 L 406,36.299995 c 3.20001,-1.299999 4.29999,-1.799999 4.39999,-2.099998 -6,2.299999 -14.20001,5.400001 -15.70001,6.400001 l 0.20001,-0.1 c -4,1.400002 -10.20001,3.700001 -15.39999,5.5 -2.60001,0.900002 -4.89999,1.700001 -6.5,2.299999 -1.60001,0.599999 -2.60001,0.900002 -2.5,0.799999 -8.60001,3.200001 -19.60001,6.900002 -19.79999,7.3 -5.1,1.900001 -13.6,4.2 -17.1,5.900001 -6.20002,1.799999 -0.4,0 1.39999,-0.900001 -6.20001,1.900001 -12.29999,4.600002 -14.5,4.799999 -7.10001,2.599998 1.70001,-0.5 -0.60001,0.599998 -0.79998,0 -4.20001,1.099999 -8.20001,2.5 -4,1.300003 -8.6,2.900002 -12,3.900002 -3,1.199997 3.10001,-0.900002 -2,1 0.5,-0.300003 -2.29999,0.599998 -3.70001,1.099998 L 293,76 l -7.10001,1.5 c -10.1,3.699997 2.29999,-0.1 -11.29998,4.400002 l 0.79998,-0.300004 c -3.79998,0.900002 -9.6,3.400002 -19.5,6.300004 3.4,-1 1.29999,-0.599999 2.4,-1 l -5.4,1.900001 c 0.5,-0.199997 0.7,-0.300003 0.2,-0.1 -4.89999,1.300003 -4.10001,1.400001 -9.8,3 3.8,-1.300003 2.6,-1.199997 0.89999,-0.699997 l -7.89999,2.900001 3.1,-1.5 C 231.59999,94.800011 220.2,99.200012 216,99.800011 l 3.89999,-1.300003 c -0.3,0 -2.69999,0.400001 -7.89999,2.300002 -1.60001,0.6 -2.60001,1.2 -0.39999,0.4 l -4,1.1 c 1.8,-0.9 11.5,-3.999999 17.69999,-5.999999 -1.89999,0.699997 -6.6,2.300003 -5.1,2 5.39999,-1.800003 10.6,-3.599999 15.8,-5.400002 -2.10001,0.800003 -3.39999,1.400002 -4.3,1.800003 5.89999,-1.699997 4.39999,-1.599998 8.8,-3 1.7,-0.400001 2.89999,-0.699997 1.8,-0.300003 5.5,-1.900001 10,-3.300003 15.90001,-5.099998 0,0 -1.6,0.599998 -2.8,1 -1.2,0.5 -1.89999,0.800003 0,0.300003 10.8,-3.699997 12.8,-4.699997 24.50001,-8.599999 13.4,-4.800003 26.29999,-8.300003 35.60001,-11.800003 0.5,-0.300003 -7.10001,2.099999 -1,0 -1,0.599999 3.70001,-1.099998 4,-1.099998 6.5,-2.599999 9.79999,-3.200001 14.29999,-5.099999 -1.10001,0.5 2.79999,-0.799999 5.39999,-1.599998 -0.6,0.599998 7.29999,-2.400002 -2.1,1.400001 9.70001,-3.900001 17.5,-5.900001 24.5,-9.299999 l -2.5,0.799999 9.89999,-3.400001 -0.39999,0.1 c 4.29998,-1.5 4.89999,-1.799999 10.79998,-3.599998 -2.39999,1 -6,2.299999 -8.39999,3.200001 5.39999,-1.599999 10.79999,-4.200001 16.70001,-6.400002 -0.20001,0.299999 -6,2.299999 -4.20001,1.900002 4.20001,-1.5 7.60001,-2.900002 11.39999,-4.400002 l -0.5,0.299999 c 10.29999,-3.599998 3.79999,-2.099998 11.4,-4.5 -0.29999,0 0.70001,-0.400001 0.20001,-0.299999 2.79999,-0.900002 9.39999,-3.200001 3,-0.599998 3.60001,-1.3 7.5,-3 9.29999,-3.9 -3.10001,1 -3.79999,1.4 -5,1.6 l 14.20001,-5.7 c 1.60001,-0.600001 -1.10001,0.6 -3.10001,1.399999 2.10001,-0.700001 4.20002,-1.5 6.4,-2.299999 2.1,-0.799999 4.20001,-1.700001 6.29999,-2.5 4.20001,-1.700001 8.5,-3.5 12.79998,-5.300001 4.29999,-1.8 8.70002,-3.8 13.20002,-5.600001 2.20001,-0.899999 4.5,-1.899999 6.79998,-2.7999998 0.9,-0.3000002 1.70002,-0.6999998 2.60001,-1 1,-0.3999996 2,-0.8000002 3,-1.1999998 -1.20001,0.4000001 -1,0.3000002 -0.60001,0.1 0.4,-0.1999998 1.20002,-0.5999999 1.4,-0.8000002 1.79999,-0.8000002 4,-1.7000003 6.20001,-2.7 -2.60001,0.4999997 -5.20001,1.1000001 -7.20001,1.3999998 l 1.70001,-0.5 c -7,1.5999999 -12.89999,3 -18.29999,4.1999994 -5.79999,1.2999996 -11,2.3999996 -16,3.4999996 -0.5,0.2 0,-0.2 1.79999,-0.6 -7.39999,1.9 -16.5,2.9 -18.5,3.9 l 2.79999,-0.5 c -14.79999,2.999999 -31,6.899999 -46.29999,10.2 -3.60001,0.4 8.79999,-1.899999 5.60001,-1.6 -10.60001,2.1 -21.29999,4.6 -32.79999,7 1.89999,-0.4 1.39999,-0.4 2.29999,-0.600001 -11.5,2.200001 1.29998,0.100001 -8.29999,2 0.5,-0.299999 0,-0.2 -3.20001,0.400002 l -2.79999,0.900002 c -0.5,0.1 -0.4,-0.200001 1,-0.5 -4.20001,1.2 -17.10001,3.7 -20.4,4.7 -0.89999,0.1 1.5,-0.7 0.10001,-0.599998 -5.10001,1 -8.60001,1.799999 -12.10001,2.700001 -3.70001,0.5 -12.5,2.400001 -10.6,2 -9.29999,1.799999 -1.4,0.5 -8.4,2.2 l 7.4,-1.400001 -13,2.799999 5.1,-1.200001 c -6,1.099999 -12.1,2.700001 -19,4.099999 l 3.20002,-0.5 -7.9,1.799999 c -0.89999,-0.200001 -10.20001,2 -5.89999,0.700001 -14.8,2.900001 -24.10001,5.299999 -37.5,8.099998 2.3,-0.5 1.39999,-0.400001 1.89999,-0.5 -7.8,1.5 -12.5,2.700001 -17.1,3.900002 0.89999,-0.299999 2.8,-0.700001 2.8,-0.900002 -9.3,1.900002 -5.60001,1.400002 -15.8,3.599999 2.8,-0.700001 1.89999,-0.599999 -0.9,-0.1 0.5,0.1 -1.89999,0.599999 -3.69999,1.099999 7.5,-2.3 -11.5,2 -6.80001,0.400001 -0.5,0.300003 -16.3,3.900002 -11.69999,3.199997 l 2.8,-0.599998 c 0.39999,0.1 -3.4,0.800003 -6.3,1.400001 0.69999,-0.199997 1.5,-0.300003 2.1,-0.5 0.60001,-0.1 1,-0.199997 1,-0.300003 -14.39999,3.199997 -29.60001,6.099999 -45.9,9.599999 1.4,-0.400002 7.9,-1.800003 3.7,-1.099999 -16.19999,3.199997 -25.5,5.5 -41.699993,9 C 87.900024,86.400009 106.30003,83.100014 106.80003,82.500015 98.300003,84.199997 90,86 80.900002,87.900002 L 80.5,85.800003 C 84.800003,85 89.400002,84.200005 94.199997,83.300003 99,82.400002 103.89999,81.5 108.89999,80.5 c 3.40001,-0.199997 8.1,-1.199997 13.40001,-2.199997 2.59999,-0.5 5.5,-1.099998 8.4,-1.699997 2.89999,-0.599998 5.89999,-1.099998 8.89999,-1.5 -0.60001,0 0.60001,-0.300003 2.7,-0.800003 2.1,-0.5 5.19999,-1.099998 8.39999,-1.699997 -2.2,0.599999 4.60001,-0.699997 2.8,-0.199997 2.80001,-0.699997 8.2,-1.800003 12.9,-2.800003 4.7,-1 8.6,-1.699997 8.3,-1.400001 0.7,-0.400002 3.7,-1 7.10001,-1.699997 3.39999,-0.699997 7.19999,-1.5 9.5,-2.199997 3.6,-0.700001 7.3,-1.599999 11.3,-2.5 4,-1 8.2,-1.900002 12.7,-2.900002 -3.2,0.5 8.69999,-2.200001 12,-3.099998 -0.9,0.2 -2.7,0.7 -2.30001,0.599998 2.7,-0.400001 10.10001,-2.700001 15.10001,-3.799999 2.3,-0.400002 -0.5,0.400001 3.2,-0.5 0,-0.1 0.8,-0.299999 2.19999,-0.700001 1.30001,-0.400001 3.2,-0.900001 5.10001,-1.400001 4,-1.099999 8.49999,-2.200001 10.99999,-2.700001 -2.29999,0.599998 -2.29999,0.700001 -3.70002,1.099998 11.70002,-3.2 23.70002,-6.400001 35.9,-9.7 6,-1.700001 12.1,-3.400002 18.1,-5.099999 3,-0.900001 6,-1.799999 9,-2.700001 3,-0.899999 6,-1.799999 8.9,-2.7 l -4.10001,1.6 c 12,-3.200001 10.9,-3.5 16.20001,-5.300001 l 0.79999,3.200001 c -1.20001,0.299999 -2.89999,0.6 -5.29999,1 -33,5.599998 -67.29998,11.2 -99.5,17 -2.3,0.5 1.4,-0.1 1.80001,0 -2.80001,0.400001 -3.7,0.299999 -7.4,1.2 h 0.9 c -14.80001,2.099999 -42.40001,7.8 -53.40001,8.899998 -14,2.799999 -24,4 -41,7.5 -5.4,0.800003 6.19999,-1.400001 -1.10001,-0.200001 l -15.8,3.100003 0.9,-0.199997 c -15.2,3.199997 -40.5,6.5 -59.599999,10.199997 l 0.799999,-0.199997 c 0.100003,-0.1 -0.1,-0.1 -0.400001,0 -0.1,0 -0.200001,0 -0.299999,0 -0.1,0 -0.1,0 -0.200001,0 -0.1,0 -0.200001,0 -0.299999,0 -0.400002,0.1 -0.8,0.1 -1.3,0.199997 -1.900001,0.300003 -4.400001,0.699997 -6.7,1.099998 -1.900002,0.400002 1,0 3.7,-0.400001 -11.899997,2.199996 -20,3.699996 -27.2,5 -7.5,1.300003 -14.100001,2.5 -22.6000007,4 -0.5,0 -1.1999998,0.1 -1.9000001,0.1 C 7.8999491,85.800005 8.5999489,85.699999 8.9999495,85.6 c 0.3999996,-0.1 0.3999996,-0.199996 0.3999996,-0.199996 0,-0.1 -0.1000004,-0.1 -0.1000004,-0.199997 0,-0.1 0.1999998,-0.199997 0.8999993,-0.300003 C 9.1999483,85.099998 8.6999483,85.200005 8.2999477,85.300003 7,85.599998 7.3000002,85.599998 7,85.599998 c -0.4000001,0.1 -0.8000002,0.199997 -1.3000002,0.300004 -0.5,0.1 -1.1999998,0.199996 -2.0999999,0.300003 -1.2999999,0 -2.3,0 -3.5999999,0.1 C 0.90000004,86 2,85.600006 3.2,85.200005 4.5,84.800003 5.9000001,84.400002 7.3000002,84.000008 6.9000001,84.000008 7,83.800011 6.9000001,83.800011 c -0.1999998,-0.1 -0.6999998,0 -3,0.400001 0.3000002,-0.199997 0.4000001,-0.300003 0.5,-0.400001 C 22.6,79.500008 35.600002,76.500008 59.700001,70.900009 l 0.799999,-0.1 c 0.700001,-0.199997 1.5,-0.400002 2.299999,-0.599999 0.700001,-0.199997 1.399998,-0.300003 2.100003,-0.5 1.5,-0.300003 3.099998,-0.699997 4.699996,-1 3.199997,-0.699997 6.199997,-1.300003 7.699997,-1.699997 -0.400001,0.199997 -2,0.699997 -1.599998,0.699997 l 7,-1.699997 c -3.300003,0.900002 -5.099999,1.699997 0.699997,0.400002 5.900001,-1.599999 -1.699997,0.199997 1.199997,-0.699997 l 1.900001,-0.1 c 4.5,-1.099998 5.699997,-1.799999 0.1,-0.599998 C 101.99999,61.400024 117.19999,57.700024 131,54.600021 l -1.39999,0.599999 c 7.6,-1.799999 17.89999,-4.200001 22.5,-5.099999 0.19999,-0.1 2,-0.7 0.8,-0.5 9,-2.400001 1.1,0.1 10.89999,-2.5 -2.39999,0.700001 -5.5,1.400002 -5.89999,1.599999 l 18.5,-4.599999 c 0.10001,0 0.8,-0.1 2,-0.299999 1.2,-0.200001 2.89999,-0.599998 4.8,-1 3.80001,-0.799999 8.60001,-1.799999 12.5,-2.799999 0.30001,-0.200001 -2,0.200001 -4,0.700001 l 5,-1.200001 4,-0.5 7.2,-2 L 208,37 c 5.3,-1.299999 7.39999,-2.200001 11.7,-3.200001 16.19999,-3.6 13,-2.700001 24.6,-5 1,-0.700001 12.80001,-3.1 18.40001,-4.5 l 0.5,2.100001 c -1.29999,0.299999 -2.29999,0.6 -2.79999,0.799999 -15.5,2.899999 -37.8,8.1 -58,12.399999 L 204,39 c -8.7,1.599998 -9.7,2.599998 -19.10001,4.5 L 187.2,42.900002 c -12,2.299999 -32.90001,7.2 -44.2,10 2.3,-0.599999 1.10001,-0.5 -2.60001,0.299999 C 137.29999,54 143.5,53 137,54.299999 c 1.60001,-0.400001 0.3,-0.299999 -1.2,0.1 l -6.19999,1.7 c -16.5,3.400002 -36.000004,7.5 -53.100002,11.400002 -3.199997,0.599998 -0.900002,0 -0.199997,-0.300003 -10.300003,2.300003 -20.5,4.699997 -30,6.900001 l -0.5,-2.400001 c 3.2,-0.800003 6.2,-1.5 9.2,-2.199997 l 1.3,0.1 c 6,-1.400001 3.599998,-1.400001 11.400001,-3 1.699997,-0.400001 -5.099998,1.300004 -7.200001,1.900002 12.000004,-2.599998 7.000004,-2 18.399998,-4.900002 L 76.000008,64.7 c 8.800003,-2 9.900001,-2.799999 13,-3.799999 6.099998,-1.8 8.300003,-2.3 11.100002,-2.8 1.4,-0.299999 2.9,-0.599998 5.1,-1.099998 C 107.4,56.5 110.3,55.599998 114.4,54.400002 c 2.6,-0.900002 -0.9,0 1.6,-1 11.7,-3.3 13,-4 24.60001,-7.400002 3.19999,-0.700001 1.69999,-0.200001 0.3,0.200001 -1.4,0.400001 -2.8,0.799999 0.7,0.1 l -8.9,2.599999 c 7.7,-2 -6.9,2.2 -5.6,2.099998 2.9,-0.799999 6.5,-1.900001 10.3,-3.200001 3.8,-1.2 7.8,-2.599998 11.5,-3.799999 0.1,0.299999 -8.60001,2.700001 -5.10001,2 l 3.80001,-1.299999 c -1,0.400001 -1.2,0.599998 -3.4,1.299999 1.4,-0.200001 4.5,-1.400001 8.10001,-2.5 0.19999,-0.200001 0,-0.299999 -1.30001,-0.200001 0.10001,0 0.4,-0.1 1,-0.2 3.7,-1.400002 8.60001,-3 13.5,-4.599999 4.80001,-1.599998 9.60001,-3.200001 12.7,-4.5 -1,0.400002 -0.1,0.200001 0.2,0.1 4.5,-1.599999 9,-3.4 14.89999,-5.700001 3.30001,-1 -1.69999,1.200001 7.80001,-2.299999 1.6,-0.8 -2.7,0.399999 5.19999,-2.600001 0.2,6e-6 -6.69999,2.800005 -2.90001,1.500006 z M 72.5,67.900002 c 0.900002,-0.199997 2.300003,-0.5 4,-0.900002 -2,0.5 -3.199997,0.699997 -4,0.900002 z m 14.800003,-3.5 C 85.700005,64.800003 85.100006,65 85.700005,65 c 2.599998,-0.599998 5.099998,-1.099998 7.099998,-1.5 -2.5,0.400002 -6.300003,1.199997 -5.5,0.900002 z m -30.500004,5 c 0.1,0 0.200001,-0.1 0.299999,-0.1 1.900002,-0.400001 3.3,-0.699997 4.5,-1 -0.400001,0 -1.2,0.199997 -3.799999,0.800003 -0.5,-8e-6 -0.700001,0.199997 -1,0.299997 z m -3.5,1 c -0.400001,0.1 -0.599998,0.1 -1.099998,0.300003 0.5,-0.1 1,-0.199997 1.599998,-0.300003 0.299999,-0.1 0.599999,-0.199997 0.900002,-0.300004 -0.5,0.1 -1,0.200005 -1.400002,0.300004 z M 489.10001,1.2999999 488.70001,1.4 c 0.29999,0 0.5,-0.1000001 0.60001,-0.1000001 -0.20001,0 -0.10001,0 -0.20001,0 z M 207.8,36.599998 l 1.4,-0.299999 z m 196.7,-1 c -0.20001,0 -0.5,0.1 -1.20001,0.400002 0.1,0 0.6,-0.200001 1.20001,-0.400002 z m -37.29999,13.700001 -5.29999,1.799999 c 2.29999,-0.699996 3.99997,-1.299999 5.29999,-1.799999 z m -28.90002,10 c -0.29999,0.200001 -0.4,0.200001 -0.5,0.299999 0,0 0,0 0.1,0 z M 169.10001,70 c -0.4,0.1 -0.80001,0.199997 -1.2,0.199997 C 165.2,70.900002 167.10001,70.5 169.10001,70 Z M 310.5,40.099998 c -1.5,0.400002 -3,0.700001 -4.5,1.099999 2.5,-0.499996 4.5,-0.899998 4.5,-1.099999 z M 150.60001,72.5 c 0.3,-0.1 0.6,-0.1 1,-0.199997 z m 148.79998,-30 C 301.89999,42 304,41.599998 306,41.099998 303.89999,41.599998 301.5,42 299.39999,42.5 Z m -87,57.7 L 211,100.6 c 0,0 0,0.1 -0.2,0.1 z m -1.5,0.5 -1.5,0.5 c 0.60001,-0.2 1.30001,-0.4 1.5,-0.5 z m -4.79998,1.6 3.3,-1.09999 C 208.2,101.6 206.8,102 206.10001,102.3 Z M 251,88.199997 251.39999,88 C 251.2,88 251.10001,88.1 251,88.199997 Z m 11.70001,-3.799995 c -2.79999,0.900001 -7.1,2 -10.89999,3.300003 l -0.3,0.199997 c 1.69998,-0.700005 8.59999,-2.5 11.19999,-3.5 z m 49.19998,-14.700005 -9.79998,3.199997 c 1.70001,-0.5 4,-1.099999 -0.4,0.400001 12.4,-3.699997 -2.6,0.600007 10.19998,-3.599998 z m 30.30002,-10.099999 c -5.20001,1.900002 0.10001,0.1 -0.1,0.3 3.19998,-1.3 4,-1.599999 0.1,-0.3 z M 414.79999,16.9 l 0.5,-0.4 c -4.09998,1 0,0.200001 -0.5,0.4 z M 372,27.4 376.10001,26.699999 378,25.999998 Z m -25.89999,3.5 1.79998,-0.4 L 341,32.099998 Z m -151,34.900003 H 193.8 c -2.90001,0.599999 -3.40001,1.099999 1.30001,0 z M 327.39999,27.9 c -1.79998,0.2 -6.5,0.899999 -9.29998,1.5 3.69998,-0.600001 7.5,-1.199999 9.29998,-1.5 z M 165.2,49.299999 l -3.30001,0.900002 6.2,-1.5 z"
             style="fill:#000000;fill-opacity:1;fill-rule:nonzero;stroke:none"
             id="path371" /></g></g></g></g><g
     inkscape:groupmode="layer"
     id="layer1"
     inkscape:label="new"
     style="display:none"
     transform="translate(0,-345.66064)"><g
       id="g289"
       transform="matrix(0.31999998,0,0,0.31999998,-754.09094,201.81823)"
       style="display:none"><g
         id="g291"
         clip-path="url(#clipPath400)"
         style="image-rendering:auto"><g
           id="g297"
           transform="translate(4771)"><g
             id="g299" /><g
             id="g323"><g
               clip-path="url(#clipPath303)"
               opacity="0.498"
               id="g321"><g
                 transform="matrix(7.7336898,0,0,7.729166,0.64404297,-565.495)"
                 id="g319"><path
                   d="M 20.264999,235.92999 C 19.059,234.79199 18.798,233.187 18.344,231.73 c -1.531,-4.915 -2.959,-9.86301 -4.363,-14.816 -0.915999,-3.22867 -1.771667,-6.47467 -2.567,-9.73801 C 10.242,202.39999 9.1000004,197.606 8.0270004,192.8 6.8270006,187.455 5.5680003,182.119 4.6180005,176.729 3.5910001,170.89999 2.9390001,165 2.036,159.138 1.0564916,152.26503 0.51682496,145.3577 0.417,138.416 c -0.121,-4.7 -0.5,-9.39999 -0.40000001,-14.087 0.1,-4.916 0.62400004,-9.824 1.00500001,-14.733 0.074,-1.45753 0.269666,-2.89852 0.587,-4.323 C 2.665,101.07301 2.441,96.845001 2.0609999,92.596001 1.6345844,88.101265 1.9275844,83.653931 2.9400001,79.253998 3.34852,77.146095 4.0941868,75.165092 5.177,73.310997 c 2.047,-3.246002 4.4899998,-4.084999 8.012,-2.614998 0.924102,0.40313 1.779102,0.920464 2.565,1.552002 2.34152,1.776924 4.32352,3.890923 5.946001,6.341995 2.719999,4.237999 5.540001,8.430001 7.957,12.839997 3.224,5.885002 6.126999,11.947997 9.124001,17.956997 2.400002,4.80001 4.723999,9.642 7.091,14.461 0.038,0.076 0.186,0.1 0.292999,0.149 0.611,-0.249 0.299999,-0.716 0.208,-1.081 -0.651001,-2.6 -1.400001,-5.189 -1.981998,-7.81 -1.692002,-7.64499 -3.5,-15.272997 -4.924,-22.968997 -1.490002,-8.030998 -2.666,-16.122001 -3.839001,-24.207 -0.916,-6.308995 -1.828003,-12.629994 -2.36,-18.980992 -0.581002,-6.908001 -0.791001,-13.850002 -1.028,-20.781 -0.113999,-3.35 -0.032,-6.718 0.18,-10.063 0.124248,-1.791492 0.493916,-3.530826 1.109001,-5.218 0.769001,-2.122 2.48,-2.461 4.282002,-1.064 1.30746,1.115112 2.264797,2.476446 2.872001,4.084001 1.168999,2.663999 2.409001,5.312999 3.335999,8.063999 2.645,7.847 5.149002,15.743 7.700001,23.621002 0.793998,2.449001 1.626998,4.887001 2.347,7.356998 3.037998,10.422001 6.154998,20.824002 9.017002,31.294003 1.858002,6.800003 3.323997,13.699997 4.973999,20.555996 0.283996,1.18 0.612999,2.349 0.964996,3.69001 0.970001,-0.559 0.599999,-1.25901 0.540001,-1.78801 -0.735001,-6.451 -1.508003,-12.899997 -2.264,-19.344997 -0.833999,-7.111 -1.846001,-14.208 -2.449997,-21.339005 -1,-11.819 -1.980999,-23.644001 -2.092998,-35.521 -0.02219,-7.399154 0.45581,-14.765819 1.434002,-22.1 0.332122,-2.347867 1.021789,-4.5855331 2.069,-6.7129998 0.316887,-0.663276 0.739662,-1.250294 1.26831,-1.7610543 0.528664,-0.5107604 1.129891,-0.913075 1.803681,-1.20694393 2.758003,-1.30799996 4.726997,-0.85800004 6.377998,1.65900013 0.766136,1.2382092 1.427139,2.530209 1.983002,3.8759999 2.230842,5.267242 4.018173,10.680908 5.361999,16.240999 2.599999,9.963 5.220002,19.921 8.022004,29.827002 2.709999,9.584999 5.538002,19.140999 8.551002,28.634002 1.793003,5.650002 4.033993,11.157998 6.089993,16.724 2.32701,6.300007 4.653,12.599997 7.026,18.881007 0.47303,1.60598 1.21003,3.07998 2.211,4.42199 0.419,-0.747 0.767,-1.25599 1.006,-1.81199 0.882,-2.054 1.672,-4.148 2.6,-6.178 0.94841,-1.80132 2.17941,-3.38266 3.693,-4.74401 2.3,-2.32399 5.078,-2.65899 8.06199,-1.80999 1.35289,0.40026 2.62424,0.9795 3.81403,1.73774 1.18979,0.75823 2.25179,1.66599 3.18597,2.72325 1.63622,1.69429 3.11655,3.51529 4.441,5.463 3.2505,5.10862 6.09683,10.43329 8.539,15.97401 3.092,6.959 6.13001,13.93699 8.607,21.141 2.65699,7.72501 5.188,15.49001 7.44599,23.347 2.07401,7.21401 3.95501,14.47001 5.41201,21.83001 1.52437,6.90986 2.35203,13.9022 2.483,20.977 -0.006,1.56716 -0.17862,3.11582 -0.517,4.646 -0.394,1.78 -1.51199,2.32499 -3.3,1.768 -1.07393,-0.35344 -2.06767,-0.8632 -2.98123,-1.52929 -0.91356,-0.66608 -1.70282,-1.45632 -2.36777,-2.3707 -1.7997,-2.28873 -3.47937,-4.6624 -5.039,-7.121 -1.758,-2.85201 -3.26,-5.862 -4.881,-8.80001 -1.94501,-3.52499 -3.881,-7.056 -5.849,-10.569 -5.088,-9.07899 -10.07699,-18.20799 -14.62601,-27.576 -1.90499,-3.924 -4.10899,-7.7 -6.09399,-11.59 -1.525,-2.987 -2.942,-6.03 -4.366,-9.06799 -0.9,-1.924 -1.662,-3.918 -2.611,-5.81799 -1.37032,-2.69982 -2.50965,-5.49381 -3.418,-8.38201 -0.49858,-1.36932 -1.09858,-2.69266 -1.8,-3.97 -0.128,-0.261 -0.442,-0.43201 -0.835,-0.8 -0.19268,0.40898 -0.33496,0.83481 -0.42684,1.27748 -0.0919,0.44267 -0.13083,0.88995 -0.11684,1.34184 0.014,0.45189 0.0805,0.89591 0.19963,1.33205 0.11909,0.43613 0.28744,0.85234 0.50506,1.24863 3.64518,6.70224 6.71352,13.6589 9.205,20.86999 4.32199,12 8.482,24.071 10.961,36.63701 0.693,3.511 1.71601,6.961 2.31,10.48599 1.20666,7.16933 2.30667,14.35666 3.3,21.562 0.81501,5.875 1.5,11.77099 2.109,17.672 0.80499,7.787 1.738,15.57301 1.455,23.42698 -0.0152,1.22946 -0.16416,2.44245 -0.44701,3.63901 -0.0294,0.15387 -0.0763,0.30218 -0.14076,0.44495 -0.0644,0.14276 -0.14462,0.27606 -0.24056,0.39987 -0.0959,0.12384 -0.20494,0.2348 -0.32705,0.33288 -0.12212,0.0981 -0.25397,0.18061 -0.39559,0.24753 -0.14158,0.067 -0.28904,0.11652 -0.44235,0.14865 -0.1533,0.0321 -0.30824,0.046 -0.46481,0.0415 -0.15657,-0.004 -0.31046,-0.0271 -0.46169,-0.0679 -0.15123,-0.0408 -0.29562,-0.0986 -0.43319,-0.17353 -0.73305,-0.29342 -1.37105,-0.72674 -1.91401,-1.29999 -1.14555,-1.22756 -2.16387,-2.55291 -3.05499,-3.97601 -3.05546,-5.25186 -5.45546,-10.78786 -7.2,-16.608 -2.72599,-9.11 -5.606,-18.186 -7.93,-27.39999 -1.941,-7.69501 -3.22099,-15.55901 -4.70799,-23.364 -0.67,-3.515 -1.17701,-7.064 -1.67601,-10.609 -1.19516,-7.86256 -1.90983,-15.76857 -2.14399,-23.718 -0.015,-0.783 -0.1,-1.56399 -0.159,-2.345 -0.65034,-7.60396 -0.60701,-15.20395 0.13,-22.8 0.48999,-4.5 -1.49401,-7.454 -4.91301,-9.872 -0.66742,-0.52338 -1.40799,-0.90473 -2.22168,-1.14406 -0.8137,-0.23931 -1.64281,-0.31963 -2.48732,-0.24095 -0.67597,0.0497 -1.32038,0.21927 -1.93324,0.50879 -0.61284,0.28953 -1.1531,0.67961 -1.620757,1.17021 -1.730232,1.65505 -2.996894,3.61037 -3.800003,5.866 -1.305,4.27901 -2.671997,8.54801 -3.735,12.88901 -1.352074,5.57168 -2.062073,11.22401 -2.129997,16.957 -0.077,5.47701 0.048,10.963 0.260002,16.438 0.225998,5.812 0.404998,11.644 1.064003,17.415 0.900001,7.889 2.209999,15.733 3.400001,23.58799 0.569,3.76101 1.179001,7.519 1.921997,11.249 1.684998,8.45199 3.505994,16.87599 5.199994,25.32701 2.06501,10.32699 4.907,20.45401 7.708,30.59399 0.715,2.586 1.27201,5.21701 1.888,7.82999 0.17347,0.53598 0.25947,1.08563 0.25801,1.64899 -0.0629,0.53799 -0.26293,1.01901 -0.6,1.44299 -0.315,0.388 -1.02,-0.083 -1.395,-1.01099 -2.261,-5.6 -4.59,-11.177 -6.731,-16.824 -4.919,-12.97602 -9.754998,-25.983 -14.599999,-38.987 -1.406998,-3.775 -2.721001,-7.584 -4.091004,-11.373 -2.852997,-7.889 -5.742996,-15.765 -8.567001,-23.665 -2.824005,-7.89999 -5.599999,-15.82499 -8.374001,-23.74499 -1.087738,-3.53636 -2.529403,-6.92203 -4.324997,-10.15698 -1.243099,-2.25885 -2.284435,-4.60718 -3.124,-7.045 -1.5,-3.857 -2.939999,-7.739 -4.293999,-11.649 C 54.417,150.39 53.218998,146.306 51.829998,142.291 50.73,139.11999 49.629997,135.935 48.254997,132.88 c -3.536998,-7.857 -7.299999,-15.61299 -10.832,-23.47199 -2.619999,-5.826 -5.516001,-11.505002 -8.688,-17.037008 -3.379,-5.917999 -6.852001,-11.828003 -11.714001,-16.716003 -1.178142,-1.201737 -2.497807,-2.22007 -3.958996,-3.055001 -2.592,-1.445999 -4.7999999,-0.944999 -6.4229996,1.5 -1.0083241,1.48993 -1.7496571,3.102593 -2.224,4.837998 -1.243273,4.583382 -1.6679396,9.241379 -1.2740004,13.974007 0.073846,0.517364 0.1761794,1.029029 0.307,1.535003 1.105,0.045 1.1779999,-0.780998 1.3920002,-1.313003 C 5.6363168,91.139275 6.74265,89.33461 8.1590004,87.720001 8.3307085,87.507423 8.512908,87.30426 8.7055998,87.110497 c 0.1926918,-0.193749 0.3948507,-0.377068 0.6064758,-0.54995 0.211627,-0.172875 0.4315939,-0.334389 0.6599016,-0.484551 0.2283088,-0.150154 0.4637428,-0.288154 0.7063048,-0.414001 0.242563,-0.125839 0.490962,-0.238846 0.745195,-0.339027 0.254235,-0.100182 0.512953,-0.187012 0.776155,-0.260476 0.263202,-0.07346 0.529488,-0.133171 0.798858,-0.17913 0.26937,-0.04596 0.540389,-0.07793 0.81306,-0.09589 0.272672,-0.01796 0.545543,-0.02183 0.818613,-0.01161 0.273071,0.01022 0.544889,0.03447 0.815454,0.07276 0.270566,0.03829 0.53844,0.09042 0.803622,0.156387 0.265181,0.06596 0.52626,0.145409 0.783236,0.238335 0.256977,0.09293 0.508483,0.198852 0.75452,0.317756 0.246035,0.118904 0.485292,0.25016 0.71777,0.393769 0.232481,0.143615 0.456945,0.29882 0.673393,0.465621 0.216448,0.166802 0.423729,0.344307 0.621841,0.532517 0.658413,0.60762 1.258414,1.268288 1.799999,1.982002 3.180001,3.959999 5.411,8.475998 7.589001,13.023001 3.735001,7.8 6.477001,15.973 9.200001,24.148 1.978001,5.943 3.700001,11.975 5.459999,17.98901 4.064999,13.862 7.344002,27.92399 10.5,42.01399 1.737,7.752 3.360001,15.52901 5.042999,23.29401 1.563999,7.218 3.175999,14.427 4.693001,21.65499 0.781998,3.722 1.412003,7.47501 2.094002,11.217 0.963997,5.284 2.016998,10.55501 2.828003,15.86299 0.471,3.08701 0.566002,6.23401 0.771004,9.358 -0.03867,0.50107 -0.155007,0.9834 -0.349,1.44699 -0.221206,0.0982 -0.452438,0.15708 -0.693687,0.17664 -0.241249,0.0196 -0.478935,-10e-4 -0.713074,-0.0626 -0.234138,-0.0613 -0.451553,-0.15964 -0.652244,-0.29496 -0.200676,-0.13528 -0.373345,-0.29995 -0.517998,-0.49401 -1.025291,-1.03074 -1.932297,-2.15671 -2.721001,-3.378 -2.365303,-3.9422 -4.442302,-8.03088 -6.231002,-12.26602 -3.831002,-8.584 -7.637002,-17.182 -11.650002,-25.682 -3.151001,-6.67301 -6.775002,-13.124 -9.869999,-19.82201 -3.564999,-7.715 -7.299999,-15.362 -10.290001,-23.33701 -0.941,-2.51199 -2.077,-4.951 -2.985,-7.473 -0.32693,-1.17296 -0.556929,-2.36463 -0.690001,-3.575 l -0.056,0.027 c 0.527001,0.97301 1.127001,1.914 1.565001,2.926 0.622,1.435 1.1,2.931 1.684,4.384 5.428999,13.5 12.087999,26.44 18.270998,39.60001 5.089001,10.83099 10.244999,21.63099 15.243,32.5 1.628372,3.68599 3.454372,7.27133 5.478,10.75604 0.58033,0.9548 1.232003,1.85812 1.955002,2.70999 0.456688,0.37601 0.956688,0.681 1.5,0.91501 0.143929,-0.97409 0.222267,-1.9534 0.235001,-2.93799 -0.07528,-1.90161 -0.261612,-3.79227 -0.558998,-5.672 -1.660004,-9.244 -3.300003,-18.49299 -5.129002,-27.69999 -1.719002,-8.664 -3.662998,-17.284 -5.5,-25.924 -0.839001,-3.933 -1.632999,-7.87601 -2.513,-11.8 -1.321331,-5.888 -2.675,-11.76866 -4.061001,-17.642 -2.73,-11.53301 -5.313999,-23.10001 -8.889,-34.41899 -1.818001,-5.756 -3.423,-11.586 -5.436001,-17.27201 -2.349998,-6.63799 -4.826,-13.23599 -7.751999,-19.65899 -2.105091,-4.717946 -4.750757,-9.110296 -7.937,-13.177038 -0.925215,-1.127067 -2.008549,-2.073066 -3.25,-2.837997 -0.284601,-0.178261 -0.581801,-0.332199 -0.891598,-0.461815 -0.309795,-0.129608 -0.628067,-0.233169 -0.954815,-0.310684 -0.326749,-0.07752 -0.657625,-0.12796 -0.99263,-0.151321 -0.335004,-0.02336 -0.669677,-0.01933 -1.004023,0.01209 -0.334346,0.03142 -0.663912,0.08981 -0.9887,0.175171 -0.324788,0.08537 -0.640474,0.196564 -0.947061,0.333595 -0.306587,0.137032 -0.599994,0.298073 -0.880221,0.483139 -0.280226,0.185051 -0.543543,0.391663 -0.7899515,0.61982 C 9.2285643,88.735382 8.7118969,89.320381 8.2650003,89.966995 6.7295618,92.189583 5.5468955,94.58625 4.717,97.156998 4.008718,99.208733 3.8503845,101.30206 4.2420001,103.437 c 1.046,5.6 2.1059999,11.19999 3.138,16.80999 0.625,3.40001 1.2080002,6.806 1.8100004,10.21001 l 0.056,-0.05 c -0.3948698,-0.52492 -0.7102032,-1.09392 -0.9460001,-1.707 -0.9159999,-4.031 -1.757,-8.07901 -2.625,-12.12101 -0.7470002,-3.47699 -1.5,-6.952 -2.233,-10.369 -0.8500002,-0.136 -0.8599999,0.419 -0.8940001,0.80001 -0.5910001,6.68099 -1.362,13.342 -1.409,20.07199 -0.056667,8.16999 0.2499998,16.32099 0.9199999,24.453 0.4489999,5.56599 1.1500001,11.13099 2.1110001,16.631 1.5193338,8.69799 3.2133331,17.36466 5.0819998,26 2.7659999,12.791 6.4679989,25.341 10.1429999,37.89399 0.372,1.273 0.542,2.60001 0.806,3.909 l 0.064,-0.039 z M 108.31,290.67798 c 0.29941,-0.62052 0.33708,-1.2565 0.113,-1.90799 -0.80001,-3.13901 -1.514,-6.29999 -2.443,-9.39999 -1.834,-6.11899 -3.29001,-12.323 -4.56701,-18.577 -1.745998,-8.551 -3.689998,-17.065 -5.288997,-25.64301 -1.621002,-8.688 -3.009003,-17.42199 -4.334999,-26.16 -0.772003,-5.082 -1.300003,-10.205 -1.793999,-15.323 -0.357002,-3.67199 -0.467003,-7.367 -0.720001,-11.05 -0.815003,-11.868 -0.782997,-23.7 1.377998,-35.452 1.000702,-5.99751 2.794701,-11.74751 5.381996,-17.25 0.487229,-1.01252 1.095894,-1.94585 1.825997,-2.8 3.164005,-3.63 7.508005,-4.053 11.375005,-1.149 0.89299,0.671 1.69999,1.452 2.563,2.16701 0.4,0.33 0.824,0.62399 1.409,1.063 0.3275,-0.60629 0.57888,-1.24265 0.75415,-1.90908 0.17527,-0.66644 0.26947,-1.34413 0.28262,-2.03309 0.0131,-0.68897 -0.0552,-1.36977 -0.20493,-2.0424 -0.14974,-0.67262 -0.37668,-1.3181 -0.68084,-1.93643 -3.88401,-9.174 -7.14601,-18.582 -10.5,-27.952994 -1.50901,-4.209999 -2.847,-8.482002 -4.367001,-12.688003 -1.331001,-3.683998 -2.633003,-7.362999 -3.61,-11.166001 -0.75,-2.917999 -1.910004,-5.729 -2.722001,-8.633999 C 89,49.521999 85.904999,38.189999 82.774002,26.870001 81.134003,20.939001 79.686005,14.945001 77.367004,9.2259998 76.635292,7.3468819 75.768623,5.5322156 74.767006,3.7819996 73.358002,1.4 70.800003,1.159 68.834,3.1099999 68.264732,3.657227 67.806068,4.2852273 67.458,4.994 66.764725,6.2776775 66.25573,7.6306772 65.931,9.0529995 65.242996,13.472 64.545998,17.909 64.255997,22.365 c -0.333,5.131 -0.355,10.291998 -0.3,15.438001 0.117001,11.310002 1.315999,22.555001 2.330998,33.806 0.582001,6.458 1.5,12.887001 2.268997,19.329003 0.693001,5.776001 1.425003,11.548006 2.091004,17.328006 1.306999,11.33699 2.415,22.69999 4.986,33.85499 0.450996,1.95799 0.680999,3.969 0.943,5.965 0.043,0.328 -0.277,0.69999 -0.458999,1.128 L 74.569,147.977 c -0.063,0.71601 -0.138,1.26101 -0.153999,1.808 -0.128998,4.47 -0.153999,8.94501 -0.400002,13.409 -0.134025,2.68813 -0.474693,5.34979 -1.022003,7.985 -0.667999,3.116 -1.838997,6.035 -5.573997,6.825 0.21878,1.60682 0.638115,3.1595 1.258003,4.658 4.81533,13.60866 9.644669,27.21134 14.487999,40.808 2.192001,6.106 4.542,12.155 6.824997,18.22901 2.400001,6.388 4.850998,12.759 7.206001,19.165 2.894001,7.87601 5.692001,15.78699 8.576991,23.667 0.76101,2.07998 1.68701,4.09899 2.53701,6.147 z M 36.034,13.611 c -0.615001,0.466041 -1.106289,1.038291 -1.473869,1.71675 -0.36758,0.67846 -0.578621,1.402543 -0.633129,2.17225 -0.291,1.878 -0.555,3.77 -0.66,5.665001 -0.25433,5.371014 -0.182663,10.737678 0.215,16.099998 0.140999,2.120999 0.334999,4.237 0.513001,6.355 0.187,2.228001 0.299999,4.466 0.590999,6.681999 0.988999,7.656002 1.873001,15.330998 3.106999,22.949001 1.556999,9.606003 3.16,19.218003 5.221,28.724001 1.965001,9.069 4.515999,18.012 6.872002,26.993 0.624001,2.37801 1.395001,4.726 2.251,7.03101 1.400001,3.77499 2.959999,7.49099 4.389999,11.255 2.5,6.588 4.953999,13.19499 7.432999,19.79201 0.551002,1.467 1.091003,2.939 1.699997,4.38001 0.07744,0.27194 0.190307,0.52827 0.338615,0.76901 0.148308,0.24074 0.326492,0.45685 0.534554,0.64831 0.208053,0.19147 0.438186,0.35112 0.690391,0.47896 0.252197,0.12785 0.517014,0.2191 0.794441,0.27371 1.362999,0.152 1.885002,-0.983 2.434998,-1.959 0.312958,-0.46861 0.55529,-0.97128 0.726997,-1.50799 0.722634,-2.58144 1.270638,-5.19945 1.643997,-7.85401 0.790467,-8.15324 0.8238,-16.30957 0.1,-24.46899 -0.356003,-3.785 -0.650002,-7.593 -1.325997,-11.327 -0.900001,-4.94699 -2.099998,-9.842 -3.240997,-14.74099 -2.164001,-9.25901 -4.284,-18.530002 -6.61,-27.748004 -1.668999,-6.613998 -3.586998,-13.167 -5.5,-19.716995 -1.628,-5.584999 -3.377,-11.135002 -5.122003,-16.684998 C 48.987999,43.076 47.040001,36.529999 44.758999,30.1 43.190998,25.681999 41.159,21.424999 39.265999,17.125999 39.003803,16.335819 38.59095,15.634303 38.027439,15.02145 37.463928,14.408598 36.79945,13.938448 36.034,13.611 Z m 136.783,207.14201 c -0.023,-0.94701 -0.04,-1.618 -0.055,-2.28901 -0.228,-10.132 -2.3,-19.983 -4.58901,-29.79499 -1.47851,-6.43225 -3.27652,-12.77391 -5.39399,-19.025 -0.831,-2.431 -1.308,-4.985 -2.161,-7.407 -2.787,-7.912 -5.64,-15.794 -9.034,-23.483 -3.39399,-7.68899 -6.983,-15.25 -11.74699,-22.209 -1.83202,-2.87775 -4.18234,-5.23975 -7.05099,-7.08599 -4.58501,-2.76001 -7.465,-1.84101 -10.265,1.08899 -0.62715,0.63855 -1.19381,1.32688 -1.7,2.065 -1.77518,2.74461 -3.10851,5.68927 -4,8.834 -0.31905,0.96267 -0.45444,1.95052 -0.40617,2.96354 0.0483,1.01301 0.27701,1.9835 0.68617,2.91146 2.092,4.822 3.964,9.742 6.1,14.546 2.45099,5.521 5.04999,10.978 7.656,16.42799 1.10899,2.319 2.43099,4.53501 3.6,6.825 2.858,5.57601 5.62801,11.2 8.548,16.74201 1.926,3.658 4,7.24099 6.09501,10.807 4.13499,7.043 7.539,14.486 11.86099,21.431 1.70204,2.77323 3.6797,5.33356 5.933,7.681 0.96568,0.92899 2.04735,1.69399 3.24499,2.295 0.0999,0.0546 0.20473,0.097 0.31452,0.12709 0.10978,0.0301 0.22157,0.0472 0.33535,0.0512 0.11377,0.004 0.22648,-0.005 0.33809,-0.0275 0.11165,-0.0223 0.21921,-0.0572 0.32268,-0.10465 0.10347,-0.0474 0.20011,-0.10618 0.28987,-0.1762 0.0898,-0.07 0.17026,-0.14943 0.24149,-0.23825 0.0712,-0.0888 0.13121,-0.18467 0.18004,-0.28751 0.0488,-0.10284 0.0851,-0.20993 0.10896,-0.32124 0.27599,-0.84501 0.40997,-1.73301 0.54698,-2.347 z M 114.679,135.8 c -0.22796,1.10248 -0.39462,2.21414 -0.5,3.33501 -0.095,5.144 -0.255,10.291 -0.173,15.433 0.14495,8.17431 0.70595,16.31998 1.683,24.43699 1.067,9 2.431,17.96601 4.184,26.857 2.18801,11.10001 5.18801,21.992 8.42799,32.828 2.30112,7.97315 5.23446,15.70648 8.80001,23.20001 0.92146,1.95438 2.22746,3.60437 3.918,4.95002 1.182,0.92999 2.19099,0.56299 2.449,-0.857 0.14882,-0.77127 0.22815,-1.54959 0.23801,-2.33499 0,-2.685 0.13901,-5.38699 -0.107,-8.052 -0.95399,-10.353 -1.8,-20.726 -3.134,-31.03301 -1.42856,-11.67021 -3.47856,-23.23021 -6.14999,-34.68 -0.76,-3.15401 -1.411,-6.34101 -2.32001,-9.45101 -1.41299,-4.832 -3.048,-9.6 -4.511,-14.416 -2.69075,-8.54249 -5.92108,-16.87584 -9.691,-25 -0.78294,-1.89094 -1.82094,-3.62961 -3.11401,-5.21602 z"
                   style="fill:#000000;fill-opacity:1;fill-rule:nonzero;stroke:none"
                   id="path305" /><path
                   d="m 20.200001,235.97 c 0.655,1.525 1.424,3.01199 1.948,4.58 2.587999,7.748 5.031999,15.54601 7.680999,23.27401 2.999835,9.03564 6.481505,17.88165 10.445002,26.53799 1.221001,2.60001 2.266998,5.37399 4.685001,7.259 0.412999,0.32199 0.3,1.05701 -0.2,1.491 -0.101124,0.10025 -0.218396,0.17526 -0.351822,0.22504 -0.133427,0.0497 -0.271179,0.0698 -0.413262,0.0602 -0.142078,-0.01 -0.27589,-0.048 -0.401443,-0.11511 -0.125546,-0.0672 -0.231705,-0.15723 -0.318474,-0.27018 -0.469837,-0.48599 -0.854504,-1.03198 -1.153999,-1.638 -1.235001,-2.62701 -2.418999,-5.27701 -3.608002,-7.92498 -0.181999,-0.4 -0.226002,-0.878 -0.442001,-1.258 -2.284001,-4.013 -3.687001,-8.383 -5.200001,-12.70801 -1.444,-4.11801 -2.950001,-8.21499 -4.379,-12.33801 -1.317999,-3.80533 -2.599333,-7.623 -3.844,-11.453 -1.180999,-3.611 -2.337999,-7.232 -3.444,-10.86701 -0.483999,-1.591 -1.166,-3.16099 -0.943001,-4.89999 l -0.06,0.045 z"
                   style="fill:#000000;fill-opacity:1;fill-rule:nonzero;stroke:none"
                   id="path307" /><path
                   d="m 22.412001,172.735 c -0.501614,-0.57162 -0.919613,-1.19896 -1.254,-1.882 -2.385332,-7.16201 -4.73,-14.33699 -7.034001,-21.525 -0.16399,-0.7559 -0.25099,-1.52058 -0.260999,-2.294 l -0.052,0.023 c 0.448892,0.74732 0.840226,1.52365 1.174,2.329 2.357332,7.02934 4.685665,14.06733 6.984998,21.11401 0.185644,0.74361 0.31431,1.49693 0.386,2.25999 l 0.056,-0.025 z"
                   style="fill:#000000;fill-opacity:1;fill-rule:nonzero;stroke:none"
                   id="path309" /><path
                   d="m 13.863,147.034 c -0.37495,-0.4065 -0.67895,-0.86049 -0.912,-1.362 -1.266666,-4.51934 -2.495999,-9.04901 -3.6879995,-13.58901 -0.075129,-0.55595 -0.080795,-1.11262 -0.017,-1.67 l -0.056,0.049 c 0.4809018,0.98515 0.9012345,1.99548 1.2609995,3.03101 1.01,3.528 1.958,7.074 2.881001,10.626 0.248,0.956 0.324,1.957 0.479,2.93801 l 0.052,-0.023 z"
                   style="fill:#000000;fill-opacity:1;fill-rule:nonzero;stroke:none"
                   id="path311" /><path
                   d="m 15.469,232.631 c 0.13,0.335 0.353,0.63299 0.332,0.912 -0.043,0.569 -0.527001,0.686 -0.956001,0.517 -0.276253,-0.16013 -0.418253,-0.3998 -0.425999,-0.719 0.055,-0.212 0.459,-0.332 1.05,-0.71 z"
                   style="fill:#000000;fill-opacity:1;fill-rule:nonzero;stroke:none"
                   id="path313" /><path
                   d="m 59.200001,272.474 0.533001,0.25 -0.465,0.57901 c -0.137001,-0.13901 -0.346001,-0.26099 -0.383999,-0.42301 -0.023,-0.10501 0.203998,-0.268 0.315998,-0.406 z"
                   style="fill:#000000;fill-opacity:1;fill-rule:nonzero;stroke:none"
                   id="path315" /><path
                   d="m 37.786999,182.62199 c -0.627999,0.351 -0.964001,0.685 -1.319,0.707 -0.755002,0.047 -1.400002,-0.632 -1.187001,-1.24499 0.120999,-0.349 0.737999,-0.879 0.855999,-0.815 0.595459,0.39555 1.145458,0.84655 1.650002,1.35299 z"
                   style="fill:#000000;fill-opacity:1;fill-rule:nonzero;stroke:none"
                   id="path317" /></g></g></g></g></g></g></g></svg>
