<?xml version="1.0" encoding="UTF-8"?>
<svg version="1.1" viewBox="0 0 136.04 760.58" xml:space="preserve" xmlns="http://www.w3.org/2000/svg"><defs><clipPath id="j"><path d="m0 4.8828e-4h6e3v3406.3h-6e3z" clip-rule="evenodd"/></clipPath><clipPath id="i"><path d="m0 4.8828e-4h6e3v3375h-6e3z" clip-rule="evenodd"/></clipPath><clipPath id="h"><path d="m0 4.8828e-4h6e3v3406.3h-6e3z"/></clipPath><clipPath id="g"><path d="m0 4.8828e-4h6e3v3375h-6e3z"/></clipPath><clipPath id="f"><path d="m504.38 324.55-106.07 2397.7-883.51-39.085 106.07-2397.7z"/></clipPath><clipPath id="e"><path d="m504.38 324.55-106.07 2397.7-883.51-39.085 106.07-2397.7z"/></clipPath><clipPath id="d"><path d="m0 772.05h875.87v2318.7h-875.87z" clip-rule="evenodd"/></clipPath><clipPath id="c"><path d="m0 0h876v2312h-876z"/></clipPath><clipPath id="b"><path d="m0 4.8828e-4h6e3v3375h-6e3z" clip-rule="evenodd"/></clipPath><clipPath id="a"><path d="m2516 1054.2h1125v878.12h-1125z" clip-rule="evenodd"/></clipPath></defs><g transform="matrix(.32 0 0 .32 0 -98.965)"><g display="none"><g clip-path="url(#j)"><g transform="matrix(3.125 0 0 3.125 0 -6812.5)"><path d="m0 2180h1920v1080h-1920z" fill="#fff"/></g></g></g><g display="none"><g clip-path="url(#i)"><g transform="matrix(3.125 0 0 3.125 0 .00048828)"><path d="m0 0h1920v1080h-1920z"/></g></g></g><g><g clip-path="url(#h)"><g clip-path="url(#g)"><g clip-path="url(#f)"><g clip-path="url(#e)"><g transform="matrix(-.21276 4.8094 -4.8017 -.21242 500.74 330.75)"><path d="m99.5 55.9c-1.5 0-3.1 0.1-4.1-0.7 1.6-0.2 2.8 0 4.1 0.7zm290.1-54.3h-1.3 1.3zm-383.7 99.1c-1.6-1.1-3.4-1.7-5.9-2 1.2 1.1 3.6 1.5 5.9 2zm415.8-76.6c-0.39999-0.3-0.79999-0.5-1.2-0.8-0.39999-0.3-0.89999-0.5-1.3-0.8 0.4 0.3 0.9 0.5 1.3 0.8s0.79999 0.6 1.2 0.8zm39.3 23.7c1.5 0.9 3.1 1.3 5.3 1.3-1.2-0.9-3.3-1.1-5.3-1.3zm-440.8 116.2c1.3 0.7 3.4 0.39999 5.3 0.2-1.6-0.59999-3.2-0.7-5.3-0.2zm5.4 0.2v0 0zm377.5-66.7h-1.6 1.6zm88.8 49.1c1.2 1.1 2.5 1.7 4.4 2-0.9-1.2-2.8-1.6-4.4-2zm-0.1-0.10001m-337.5 14.1c0.4 0 0.9-0.10001 1.4-0.10001-0.5 0-1 0-1.4 0.10001zm338.9-12.6-1.8-0.2c-2.1-0.8-3.3 0-3-0.8l2.9 0.7c-2.1-0.60001-0.5-0.80001 0.39999-1.1-0.89999-0.2-1.7-0.5-2.4-0.89999-0.5 0.19999 0.29999 0.39999 0.6 0.6-1.2 0.10001-3 0.5-4.3-0.1-2.2-0.5 0.1-1.3-2.5-1.9-6.8-1.6-13.4-3.1-20.2-4.6-1.7-0.4-3.4-0.7-5-1.1-0.79998-0.2-1.7-0.3-2.5-0.5-0.79998-0.2-1.7-0.3-2.5-0.5-3.4-0.60001-6.8-1.2-10.3-1.7-0.29999-0.39999 0.1-0.3 0.5-0.39999-2.1-0.2-4.1-0.39999-6-0.7-1-0.1-1.9-0.19999-2.9-0.3s-1.9-0.2-2.9-0.2c-1-0.5-1.2-1.1-1.5-1.5 0.29999 0.4-5-0.19999-10.4-0.89999-2.7-0.3-5.4-0.7-7.5-1-2.1-0.3-3.5-0.5-3.6-0.5l-0.5 1.5c-4.1-0.5-1-1.9-4.9-2-1.8 1.9-6.3-1-7.8-0.10001 0.1-0.19999-1.8-0.5-1.6-1.1-0.39999 0.6-0.89999 0.5-1.5 0.39999 1-3.1 2.7-8.5 4.5-14 2.5-7.8 5-15.6 5.1-16.7 1.3 0.1 2.6 0.2 2.9 0.4-0.29999-0.5-2.8-0.9-4.2-0.6l-0.29999 1.2c-3.1 0.3-0.70001-0.7-3.7-0.8-0.10001-1 2.7-1 5.1-1-2.2-0.2-4.4-1-5.3 0-2.1-0.5 0.29998-1.2-2.2-1.7-1.8 0.2-4.2 1-6.2 0.4v-0.2c-4.9-1.2-7.6 1.1-12.1 0l0.5-0.3c-1.6-0.6-4.8 0.1-7.6-0.6 0.79999 0.2 1.5 0.9-0.20001 1-3.3-0.7-5.6-0.1-8-1l-2.4 0.9c-0.70001 0-1.6-0.1-2.6-0.1h-3.3-8.2c-6.1 0-13.3 0.1-20.4 0.3-3.6 0.1-7.2 0.2-10.6 0.3-3.4 0.1-6.8 0.2-9.8 0.3-6.1 0.3-11.1 0.5-14 0.6l0.5-0.2c-2.2 0.1-4.7 0.2-7.4 0.3-2.7 0.1-5.7 0.3-8.8 0.4-3.1 0.1-6.3 0.3-9.6 0.4-3.3 0.2-6.7 0.3-10.1 0.5-2.9 0.2-5.9 0.4-8.8 0.6 1.7-0.3 3.3-0.6 4.9-0.9 1.5-0.3 3-0.5 4.4-0.8 1.4-0.2 2.8-0.5 4.1-0.7 2.7-0.5 5.1-0.9 7.3-1.4 2.8 0.5 6.6-0.2 9.5-0.3-1.6-0.2-1.2-0.9 0.10001-1 8.7-0.9 0.5-0.7 9.3-2.1 2.5-0.5 6.8-1.1 12-1.7 2.6-0.3 5.4-0.5 8.4-0.8 2.9-0.2 6-0.5 9-0.7s6.1-0.4 9-0.6c2.9-0.1 5.7-0.3 8.2-0.4 5.1-0.2 9.2-0.3 11.5-0.3 1.2-0.4 2.5-0.7 3.8-0.9 1.3-0.2 2.7-0.3 4-0.4 2.7-0.2 5.4-0.3 7.8-0.8l-0.5 0.3c1.3-0.2 4-0.4 7.6-0.5 1.8-0.1 3.7-0.1 5.8-0.2 2.1 0 4.2-0.1 6.4-0.1 4.3-0.1 8.6-0.1 12.3-0.2 1.8 0 3.5-0.1 4.8-0.2 1.4-0.1 2.5-0.1 3.2-0.2l-0.79999-0.2c5.2-0.9 4.5 0.6 8.6 0.9-0.60001-1.5 3.9-2.5 5.6-2.6l-0.10001 0.3c2.6-0.3 8.3-1.8 12.6-1.9l-0.20002 0.8c3.5-0.9 10.2-0.5 12.7-0.6 2.9 0.2 6.6 0.6 10.5 1 3.9 0.3 8.1 0.5 12 0l4.9 2.5 0.70001-0.2s2.2-7.1 3.2-15c1-7.9 0.70002-16.6-4.5-19.7l0.20002-0.8-2.1 0.1c-2.5-0.5-3.7 0.5-3.5-0.3l3.4 0.2c-2.5-0.3-0.70001-0.7 0.20002-1.1-1-0.1-2.1-0.2-2.9-0.5-0.5 0.3 0.4 0.4 0.70001 0.5-1.4 0.3-3.2 1-4.9 0.6-2.6-0.1-0.10001-1.3-3.1-1.5-7.9-0.5-15.7-0.9-23.5-1.2-2-0.1-3.9-0.1-5.9-0.2-1 0-2-0.1-2.9-0.1h-2.9c-3.9 0-7.9 0-11.9 0.2-0.4-0.3 0.1-0.3 0.5-0.5-2.1 0.2-4.1 0.3-6 0.4 0.20001-0.3 0.39999-0.6 0.5-1 0.39999-0.7 0.79999-1.4 1.3-2.2s1-1.5 1.6-2.3c1.1-1.6 2.4-3.2 3.7-4.8 1.4-1.6 2.8-3 4.3-4.4s2.9-2.6 4.2-3.6c2.6-2.1 4.7-3.4 5-3.9 0.20002 0.2 0.5 0.3 0.70002 0.5 0.20001 0.2 0.5 0.3 0.70001 0.5 0.5 0.3 0.89999 0.7 1.3 1 0.79998 0.6 1.3 1.1 1.6 1.4-0.1-0.4-1-1.3-2.2-2.3-0.29999-0.2-0.60001-0.5-0.89999-0.7-0.29999-0.2-0.70002-0.4-1-0.6-0.70002-0.4-1.3-0.7-1.9-1l-0.89999 0.8c-0.60001-0.3-1.1-0.5-1.5-0.7s-0.60001-0.3-0.79999-0.4c-0.39999-0.2-0.5-0.4-0.6-0.6-0.10001-0.2-0.20002-0.3-0.5-0.6-0.20002-0.1-0.4-0.3-0.79999-0.5-0.4-0.2-0.79999-0.4-1.4-0.6 0-0.2 0.29999-0.3 0.79999-0.3s1.2 0.2 2 0.5 1.8 0.7 2.8 1.1c1 0.5 2 1.1 3 1.6-0.89999-0.6-1.7-1.1-2.5-1.7-0.79999-0.5-1.6-1-2.4-1.4-1.5-0.8-2.8-1.2-3.7-1-1.6-0.8-1.4-1.1-1.3-1.3 0.1-0.1 0.1-0.3-0.10001-0.5s-0.70001-0.5-1.7-0.9c-0.70002-0.1-1.6-0.3-2.4-0.4-0.79998-0.1-1.7-0.2-2.6-0.3-0.9-0.1-1.7-0.2-2.5-0.3-0.79999-0.1-1.6-0.3-2.4-0.6l0.10001-0.2c-1.8-0.5-3.5-0.7-4.9-0.7h-2.1c-0.70001 0.1-1.3 0.1-2 0.2-0.89999 0.1-1.7 0.2-2.5 0.3 1.3-5.7 2.4-10.5 2.4-11.3 1 0.1 2 0.1 2.3 0.3-0.20001-0.5-2.2-0.8-3.2-0.5l-0.20001 1.2c-2.4 0.4-0.5-0.7-2.8-0.7-0.10001-1 2-1.1 3.9-1.2-1.7-0.1-3.3-0.9-4.1 0.1-1.6-0.4 0.20001-1.2-1.7-1.6-1.4 0.2-3.2 1.1-4.7 0.5v-0.2c-3.8-1.1-5.8 1.3-9.3 0.3l0.4-0.3c-1.2-0.6-3.6 0.1-5.8-0.5 0.60001 0.2 1.2 0.9-0.20001 1-2.5-0.6-4.3-0.1-6.1-0.8l-2.2 0.99996c-2.2-0.1-6.1 0-10.7 0-4.7 0.1-10.1 0.2-15.6 0.4-5.5 0.2-10.9 0.4-15.6 0.6-4.7 0.2-8.5 0.4-10.7 0.5l0.29999-0.2c-3.4 0.1-7.7 0.3-12.4 0.5-4.7 0.2-9.9 0.4-15.1 0.7-5.2 0.3-10.4 0.6-15.2 0.9-4.8 0.4-9.1 0.8-12.6 1.3-2.2-0.8-5.2-0.5-7.4-0.6 1.3 0.3 0.89999 1-0.10001 1-6.9 0.3-0.39999 0.7-7.3 1.4-2 0.3-5.4 0.6-9.5 0.8s-8.9 0.5-13.7 0.7c-2.4 0.1-4.8 0.2-7 0.2-2.3 0.1-4.5 0.2-6.5 0.2-4 0.1-7.2 0.1-9 0.1-3.7 1.6-8.5 1-12.2 2.2l0.3-0.3c-1 0.2-3.2 0.4-5.9 0.6-2.8 0.2-6.1 0.4-9.5 0.6-6.8 0.4-13.6 0.8-15.9 1.3l0.60001 0.1c-4 1.2-3.6-0.3-6.8-0.4 0.60001 1.5-2.8 2.7-4.1 2.9v-0.3c-2 0.5-6.3 2.2-9.6 2.8v-0.8c-2.6 1.2-7.8 1.4-9.8 1.7-4.5 0.1-11.7-0.4-17.5 1.4l-4.2-1.9-0.29995 0.3s-0.7 7.3-0.3 15.2c0.4 7.9 1.9 16.5 6.2 19v0.8l1.5-0.3c1.9 0.2 2.6-0.9 2.6 0l-2.6 0.2c1.9 0 0.6 0.6 0 1.2 0.80001 0 1.6 0 2.2 0.2 0.3-0.4-0.3-0.3-0.6-0.5 1-0.4 2.3-1.4 3.5-1.1 1.9-0.2 0.30001 1.3 2.5 1.1 5.9-0.4 11.7-0.6 17.5-1 2.1-0.1 4.2-0.3 6.4-0.4-4.9 2.1-11.2 2.3-16 4l0.40001-0.4c-1.3 0.4-4.2 0.9-7.9 1.5-1.8 0.3-3.9 0.6-6 0.9-1.1 0.2-2.2 0.3-3.3 0.5-1.1 0.1-2.2 0.3-3.4 0.4-1.1 0.1-2.2 0.3-3.4 0.4-0.6 0.1-1.1 0.1-1.7 0.2-0.5 0.1-1.1 0.1-1.6 0.2-2.2 0.3-4.2 0.5-6.1 0.7-0.9 0.1-1.8 0.2-2.7 0.3-0.8 0.1-1.6 0.2-2.3 0.3-1.4 0.2-2.5 0.3-3.3 0.5l0.8 0.1c-2.6 0.7-3.8 0.7-4.8 0.5s-2-0.6-4.1-0.7c0.3 0.7-0.6 1.4-1.9 2-1.3 0.5-2.8 0.9-3.7 1v-0.3c-1.3 0.2-3.4 0.8-5.8 1.3-2.3 0.5-4.9 1-7.1 1.2l0.099999-0.8c-0.4 0.1-0.9 0.3-1.5 0.3-0.5 0.1-1.1 0.1-1.7 0.2-1.2 0.1-2.4 0.2-3.7 0.2-1.2 0-2.4 0.1-3.5 0-1 0-2-0.1-2.6 0-1.5-0.1-3.1-0.3-4.9-0.5-0.2 0-0.5-0.1-0.7-0.1-0.2 0-0.5-0.1-0.7-0.1-0.5-0.1-0.9-0.1-1.4-0.2-0.9-0.1-1.9-0.3-2.9-0.4-1-0.1-2-0.2-3-0.3-1-0.1-2-0.2-3-0.3-2-0.2-4-0.3-6-0.2l-4.6-3-0.7 0.1s-0.7 1.7-1.8 4.4c-1 2.7-2.3 6.3-3.3 10.2-1 3.8-1.7 7.9-1.6 11.5 0.2 3.6 1.4 6.7 4.1 8.6l-0.3 0.8 2.4 0.2c0.7 0.2 1.3 0.3 1.8 0.3h1.3c0.7 0 0.9 0 0.8 0.4l-1.9-0.2-1.9-0.3c2.8 0.6 0.8 0.8-0.4 1.1 1.2 0.19999 2.3 0.5 3.2 0.8 0.6-0.3-0.4-0.4-0.8-0.6 1.6-0.1 3.8-0.69999 5.6-0.19999 2.9 0.4 0.1 1.4 3.5 1.8 2.2 0.2 4.5 0.4 6.7 0.6 1.1 0.1 2.2 0.19999 3.3 0.3 1.1 0.1 2.2 0.1 3.3 0.2 2.2 0.1 4.4 0.3 6.6 0.4 2.2 0.1 4.4 0.1 6.6 0.2l3.3 0.1h3.3c2.2 0 4.4-0.1 6.6-0.1 2.2-0.1 4.4-0.2 6.6-0.40001 1.1-0.1 2.2-0.1 3.3-0.19999 1.1-0.1 2.2-0.2 3.3-0.30001 0.4 0.30001 0 0.30001-0.5 0.5 2.6-0.4 5.1-0.69999 7.5-1 2.4-0.3 4.8-0.69999 7.1-1.1 1.4 0.19999 1.8 0.69999 2.2 1-0.2-0.1 1.2-0.5 3.5-0.90001v14.4c-1.7 0.19999-3.3 0.4-4.7 0.59999-1.4 0.2-2.5 0.40001-3.2 0.6l0.8 0.1c-5.1 1.6-4.6 0.1-8.9 0.3 0.8 1.4-3.6 3-5.3 3.4v-0.30001c-2.5 0.7-8.2 2.8-12.4 3.8v-0.80001c-3.4 1.5-10.1 2.3-12.7 2.8-5.9 0.59999-15.2 0.9-22.7 3.4l-5.5-1.4-0.7 0.4s-0.7 7.4 0.1 15.3c0.8 7.9 3 16.3 8.6 18.4v0.80001l2-0.5c2.5 0 3.4-1.2 3.4-0.4l-3.3 0.5c2.4-0.2 0.9 0.5 0 1.2 1-0.10001 2-0.2 2.9-0.10001 0.4-0.39999-0.4-0.3-0.8-0.39999 1.2-0.5 2.9-1.6 4.5-1.5 2.5-0.4 0.4 1.3 3.3 0.8 7.6-1.1 15.2-2 22.7-3 1.9-0.3 3.8-0.5 5.6-0.8 0.9-0.10001 1.9-0.3 2.8-0.4 0.9-0.1 1.9-0.3 2.8-0.39999 3.8-0.5 7.6-1.1 11.4-1.7 0.4 0.30001 0 0.30001-0.4 0.60001 2.3-0.5 4.5-0.89999 6.6-1.3 1.1-0.2 2.1-0.4 3.2-0.60001 1-0.2 2.1-0.39999 3.1-0.60001 1.2 0.2 1.6 0.7 2 1-0.4-0.3 5.4-1.3 11.3-2.2 3-0.5 6-0.9 8.3-1.2 2.3-0.3 3.9-0.39999 4-0.39999l0.1-1.5c4.6-0.60001 1.5 1.5 5.7 0.6 1.4-2.3 7-0.69999 8.4-2 0 0.2 2.1 0 2 0.7 0.5-1.2 2.1-0.5 3.4-1 0.39999-0.39999-0.39999-0.3-0.8-0.60001 1-0.3 2-0.5 3-0.69999 1.2 0.19999 1.6 0.89999 0.3 1.1 2-0.1 5.8-0.39999 10.6-0.8 1.9-0.10001 4-0.3 6.1-0.5-1.3 6.1-2.3 11.4-2.2 12.3-1.1 0-2.2 0-2.5-0.19999 0.30001 0.5 2.5 0.69999 3.6 0.39999l0.2-1.2c2.6-0.5 0.6 0.7 3.2 0.5 0.2 0.9-2.2 1.2-4.3 1.4 1.9 0.1 3.8 0.69999 4.5-0.4 1.8 0.4-0.2 1.2 2 1.5 1.5-0.3 3.5-1.3 5.3-0.8v0.2c4.3 0.89999 6.5-1.6 10.4-0.7l-0.4 0.3c1.4 0.5 4.1-0.19999 6.6 0.30001-0.7-0.2-1.3-0.9 0.2-1 2.9 0.6 4.8-0.10001 6.9 0.69999l2-1h5c2 0 4.4 0 7-0.1 5.2-0.10001 11.4-0.30001 17.5-0.30001 3.1 0 6.2-0.1 9.1-0.1 3 0 5.8-0.10001 8.4-0.10001 5.2 0 9.6 0 12.1 0.10001l-0.4 0.1h6.4c2.3 0 4.9 0.10001 7.5 0.2 2.7 0.10001 5.4 0.2 8.3 0.2 2.8 0.1 5.8 0.1 8.7 0.3 5.8 0.2 11.7 0.5 17.1 0.60001 5.4 0.19999 10.3 0.3 14.2 0.3 2.4 1.1 5.7 1.1 8.2 1.6-1.4-0.5-0.79999-1.1 0.29999-1 7.7 0.8 0.6-0.60001 8.4-0.30001 2.3 0 6.1 0.2 10.7 0.60001 2.3 0.2 4.8 0.5 7.4 0.7 2.6 0.3 5.3 0.6 7.9 0.89999 2.7 0.3 5.3 0.7 7.9 1 2.5 0.39999 5 0.7 7.2 1.1 4.4 0.69999 8.1 1.3 10 1.7 1.1-0.19999 2.3-0.3 3.4-0.19999 1.2 0 2.4 0.19999 3.6 0.3 2.4 0.3 4.8 0.60001 6.9 0.5l-0.5 0.3c1.1 0 3.6 0.30001 6.7 0.80001 1.5 0.19999 3.3 0.5 5 0.69999 1.8 0.30001 3.7 0.60001 5.5 0.9 3.8 0.6 7.5 1.3 10.7 1.8 1.6 0.2 3 0.5 4.2 0.60001 1.2 0.19999 2.2 0.3 2.8 0.3l-0.70001-0.3c4.7-0.10001 3.8 1.3 7.3 2.3-0.20001-1.6 3.8-1.8 5.3-1.7l-0.10001 0.3c2.3 0.10001 7.5-0.39999 11.3 0l-0.29999 0.80001c3.2-0.4 8.9 1 11.2 1.3 5 1.2 12.5 4.1 19.4 4.2l3.9 3.1 0.70001-0.1s3.1-6.7 5.3-14.4c2.2-7.7 3.3-16.3-0.6-20.1z" fill="#53ffc1"/></g></g></g></g></g></g><g display="none"><g clip-path="url(#d)"><g transform="translate(0,776)"><g clip-path="url(#c)" opacity=".498"><g transform="matrix(7.7337 0 0 7.7292 -484.4 .69073)" fill="#fff"><path d="m20.265 235.93c-1.206-1.138-1.467-2.743-1.921-4.2-1.531-4.915-2.959-9.863-4.363-14.816-0.916-3.2287-1.7717-6.4747-2.567-9.738-1.172-4.776-2.314-9.57-3.387-14.376-1.2-5.345-2.459-10.681-3.409-16.071-1.027-5.829-1.679-11.729-2.582-17.591-0.97951-6.873-1.5192-13.78-1.619-20.722-0.121-4.7-0.5-9.4-0.4-14.087 0.1-4.916 0.624-9.824 1.005-14.733 0.074-1.4575 0.26967-2.8985 0.587-4.323 1.056-4.2 0.832-8.428 0.452-12.677-0.42642-4.4947-0.13342-8.9421 0.879-13.342 0.40852-2.1079 1.1542-4.0889 2.237-5.943 2.047-3.246 4.49-4.085 8.012-2.615 0.9241 0.40313 1.7791 0.92046 2.565 1.552 2.3415 1.7769 4.3235 3.8909 5.946 6.342 2.72 4.238 5.54 8.43 7.957 12.84 3.224 5.885 6.127 11.948 9.124 17.957 2.4 4.8 4.724 9.642 7.091 14.461 0.038 0.076 0.186 0.1 0.293 0.149 0.611-0.249 0.3-0.716 0.208-1.081-0.651-2.6-1.4-5.189-1.982-7.81-1.692-7.645-3.5-15.273-4.924-22.969-1.49-8.031-2.666-16.122-3.839-24.207-0.916-6.309-1.828-12.63-2.36-18.981-0.581-6.908-0.791-13.85-1.028-20.781-0.114-3.35-0.032-6.718 0.18-10.063 0.12425-1.7915 0.49392-3.5308 1.109-5.218 0.769-2.122 2.48-2.461 4.282-1.064 1.3075 1.1151 2.2648 2.4764 2.872 4.084 1.169 2.664 2.409 5.313 3.336 8.064 2.645 7.847 5.149 15.743 7.7 23.621 0.794 2.449 1.627 4.887 2.347 7.357 3.038 10.422 6.155 20.824 9.017 31.294 1.858 6.8 3.324 13.7 4.974 20.556 0.284 1.18 0.613 2.349 0.965 3.69 0.97-0.559 0.6-1.259 0.54-1.788-0.735-6.451-1.508-12.9-2.264-19.345-0.834-7.111-1.846-14.208-2.45-21.339-1-11.819-1.981-23.644-2.093-35.521-0.02219-7.3992 0.45581-14.766 1.434-22.1 0.33212-2.3479 1.0218-4.5855 2.069-6.713 0.31689-0.66328 0.73966-1.2503 1.2683-1.7611 0.52866-0.51076 1.1299-0.91308 1.8037-1.2069 2.758-1.308 4.727-0.858 6.378 1.659 0.76614 1.2382 1.4271 2.5302 1.983 3.876 2.2308 5.2672 4.0182 10.681 5.362 16.241 2.6 9.963 5.22 19.921 8.022 29.827 2.71 9.585 5.538 19.141 8.551 28.634 1.793 5.65 4.034 11.158 6.09 16.724 2.327 6.3 4.653 12.6 7.026 18.881 0.47303 1.606 1.21 3.08 2.211 4.422 0.419-0.747 0.767-1.256 1.006-1.812 0.882-2.054 1.672-4.148 2.6-6.178 0.94841-1.8013 2.1794-3.3827 3.693-4.744 2.3-2.324 5.078-2.659 8.062-1.81 1.3529 0.40026 2.6242 0.9795 3.814 1.7377 1.1898 0.75823 2.2518 1.666 3.186 2.7232 1.6362 1.6943 3.1166 3.5153 4.441 5.463 3.2505 5.1086 6.0968 10.433 8.539 15.974 3.092 6.959 6.13 13.937 8.607 21.141 2.657 7.725 5.188 15.49 7.446 23.347 2.074 7.214 3.955 14.47 5.412 21.83 1.5244 6.9099 2.352 13.902 2.483 20.977-6e-3 1.5672-0.17862 3.1158-0.517 4.646-0.394 1.78-1.512 2.325-3.3 1.768-1.0739-0.35344-2.0677-0.8632-2.9812-1.5293-0.91356-0.66608-1.7028-1.4563-2.3678-2.3707-1.7997-2.2887-3.4794-4.6624-5.039-7.121-1.758-2.852-3.26-5.862-4.881-8.8-1.945-3.525-3.881-7.056-5.849-10.569-5.088-9.079-10.077-18.208-14.626-27.576-1.905-3.924-4.109-7.7-6.094-11.59-1.525-2.987-2.942-6.03-4.366-9.068-0.9-1.924-1.662-3.918-2.611-5.818-1.3703-2.6998-2.5096-5.4938-3.418-8.382-0.49858-1.3693-1.0986-2.6927-1.8-3.97-0.128-0.261-0.442-0.43201-0.835-0.8-0.19268 0.40898-0.33496 0.83481-0.42684 1.2775-0.0919 0.44267-0.13083 0.88995-0.11684 1.3418 0.014 0.45189 0.0805 0.89591 0.19963 1.332 0.11909 0.43613 0.28744 0.85234 0.50506 1.2486 3.6452 6.7022 6.7135 13.659 9.205 20.87 4.322 12 8.482 24.071 10.961 36.637 0.693 3.511 1.716 6.961 2.31 10.486 1.2067 7.1693 2.3067 14.357 3.3 21.562 0.81501 5.875 1.5 11.771 2.109 17.672 0.80499 7.787 1.738 15.573 1.455 23.427-0.0152 1.2295-0.16416 2.4424-0.44701 3.639-0.0294 0.15387-0.0763 0.30218-0.14076 0.44495-0.0644 0.14276-0.14462 0.27606-0.24056 0.39987-0.0959 0.12384-0.20494 0.2348-0.32705 0.33288-0.12212 0.0981-0.25397 0.18061-0.39559 0.24753-0.14158 0.067-0.28904 0.11652-0.44235 0.14865-0.1533 0.0321-0.30824 0.046-0.46481 0.0415-0.15657-4e-3 -0.31046-0.0271-0.46169-0.0679s-0.29562-0.0986-0.43319-0.17353c-0.73305-0.29342-1.371-0.72674-1.914-1.3-1.1456-1.2276-2.1639-2.5529-3.055-3.976-3.0555-5.2519-5.4555-10.788-7.2-16.608-2.726-9.11-5.606-18.186-7.93-27.4-1.941-7.695-3.221-15.559-4.708-23.364-0.67-3.515-1.177-7.064-1.676-10.609-1.1952-7.8626-1.9098-15.769-2.144-23.718-0.015-0.783-0.1-1.564-0.159-2.345-0.65034-7.604-0.60701-15.204 0.13-22.8 0.48999-4.5-1.494-7.454-4.913-9.872-0.66742-0.52338-1.408-0.90473-2.2217-1.1441-0.8137-0.23931-1.6428-0.31963-2.4873-0.24095-0.67597 0.0497-1.3204 0.21927-1.9332 0.50879-0.61284 0.28953-1.1531 0.67961-1.6208 1.1702-1.7302 1.655-2.9969 3.6104-3.8 5.866-1.305 4.279-2.672 8.548-3.735 12.889-1.3521 5.5717-2.0621 11.224-2.13 16.957-0.077 5.477 0.048 10.963 0.26 16.438 0.226 5.812 0.405 11.644 1.064 17.415 0.9 7.889 2.21 15.733 3.4 23.588 0.569 3.761 1.179 7.519 1.922 11.249 1.685 8.452 3.506 16.876 5.2 25.327 2.065 10.327 4.907 20.454 7.708 30.594 0.715 2.586 1.272 5.217 1.888 7.83 0.17347 0.53598 0.25947 1.0856 0.25801 1.649-0.0629 0.53799-0.26293 1.019-0.6 1.443-0.315 0.388-1.02-0.083-1.395-1.011-2.261-5.6-4.59-11.177-6.731-16.824-4.919-12.976-9.755-25.983-14.6-38.987-1.407-3.775-2.721-7.584-4.091-11.373-2.853-7.889-5.743-15.765-8.567-23.665-2.824-7.9-5.6-15.825-8.374-23.745-1.0877-3.5364-2.5294-6.922-4.325-10.157-1.2431-2.2588-2.2844-4.6072-3.124-7.045-1.5-3.857-2.94-7.739-4.294-11.649-1.39-4.016-2.588-8.1-3.977-12.115-1.1-3.171-2.2-6.356-3.575-9.411-3.537-7.857-7.3-15.613-10.832-23.472-2.62-5.826-5.516-11.505-8.688-17.037-3.379-5.918-6.852-11.828-11.714-16.716-1.1781-1.2017-2.4978-2.2201-3.959-3.055-2.592-1.446-4.8-0.945-6.423 1.5-1.0083 1.4899-1.7497 3.1026-2.224 4.838-1.2433 4.5834-1.6679 9.2414-1.274 13.974 0.073846 0.51736 0.17618 1.029 0.307 1.535 1.105 0.045 1.178-0.781 1.392-1.313 0.79632-1.9947 1.9026-3.7994 3.319-5.414 0.17171-0.21258 0.35391-0.41574 0.5466-0.6095 0.19269-0.19375 0.39485-0.37707 0.60648-0.54995 0.21163-0.17288 0.43159-0.33439 0.6599-0.48455 0.22831-0.15015 0.46374-0.28815 0.7063-0.414 0.24256-0.12584 0.49096-0.23885 0.7452-0.33903 0.25424-0.10018 0.51295-0.18701 0.77616-0.26048 0.2632-0.07346 0.52949-0.13317 0.79886-0.17913 0.26937-0.04596 0.54039-0.07793 0.81306-0.09589 0.27267-0.01796 0.54554-0.02183 0.81861-0.01161 0.27307 0.01022 0.54489 0.03447 0.81545 0.07276 0.27057 0.03829 0.53844 0.09042 0.80362 0.15639 0.26518 0.06596 0.52626 0.14541 0.78324 0.23834 0.25698 0.09293 0.50848 0.19885 0.75452 0.31776 0.24604 0.1189 0.48529 0.25016 0.71777 0.39377 0.23248 0.14362 0.45694 0.29882 0.67339 0.46562 0.21645 0.1668 0.42373 0.34431 0.62184 0.53252 0.65841 0.60762 1.2584 1.2683 1.8 1.982 3.18 3.96 5.411 8.476 7.589 13.023 3.735 7.8 6.477 15.973 9.2 24.148 1.978 5.943 3.7 11.975 5.46 17.989 4.065 13.862 7.344 27.924 10.5 42.014 1.737 7.752 3.36 15.529 5.043 23.294 1.564 7.218 3.176 14.427 4.693 21.655 0.782 3.722 1.412 7.475 2.094 11.217 0.964 5.284 2.017 10.555 2.828 15.863 0.471 3.087 0.566 6.234 0.771 9.358-0.03867 0.50107-0.15501 0.9834-0.349 1.447-0.22121 0.0982-0.45244 0.15708-0.69369 0.17664-0.24125 0.0196-0.47894-1e-3 -0.71307-0.0626-0.23414-0.0613-0.45155-0.15964-0.65224-0.29496-0.20068-0.13528-0.37334-0.29995-0.518-0.49401-1.0253-1.0307-1.9323-2.1567-2.721-3.378-2.3653-3.9422-4.4423-8.0309-6.231-12.266-3.831-8.584-7.637-17.182-11.65-25.682-3.151-6.673-6.775-13.124-9.87-19.822-3.565-7.715-7.3-15.362-10.29-23.337-0.941-2.512-2.077-4.951-2.985-7.473-0.32693-1.173-0.55693-2.3646-0.69-3.575l-0.056 0.027c0.527 0.97301 1.127 1.914 1.565 2.926 0.622 1.435 1.1 2.931 1.684 4.384 5.429 13.5 12.088 26.44 18.271 39.6 5.089 10.831 10.245 21.631 15.243 32.5 1.6284 3.686 3.4544 7.2713 5.478 10.756 0.58033 0.9548 1.232 1.8581 1.955 2.71 0.45669 0.37601 0.95669 0.681 1.5 0.91501 0.14393-0.97409 0.22227-1.9534 0.235-2.938-0.07528-1.9016-0.26161-3.7923-0.559-5.672-1.66-9.244-3.3-18.493-5.129-27.7-1.719-8.664-3.663-17.284-5.5-25.924-0.839-3.933-1.633-7.876-2.513-11.8-1.3213-5.888-2.675-11.769-4.061-17.642-2.73-11.533-5.314-23.1-8.889-34.419-1.818-5.756-3.423-11.586-5.436-17.272-2.35-6.638-4.826-13.236-7.752-19.659-2.1051-4.7179-4.7508-9.1103-7.937-13.177-0.92522-1.1271-2.0085-2.0731-3.25-2.838-0.2846-0.17826-0.5818-0.3322-0.8916-0.46182-0.3098-0.12961-0.62807-0.23317-0.95482-0.31068-0.32675-0.07752-0.65762-0.12796-0.99263-0.15132-0.335-0.02336-0.66968-0.01933-1.004 0.01209s-0.66391 0.08981-0.9887 0.17517c-0.32479 0.08537-0.64047 0.19656-0.94706 0.3336-0.30659 0.13703-0.59999 0.29807-0.88022 0.48314-0.28023 0.18505-0.54354 0.39166-0.78995 0.61982-0.58644 0.52332-1.1031 1.1083-1.55 1.7549-1.5354 2.2226-2.7181 4.6193-3.548 7.19-0.70828 2.0517-0.86662 4.1451-0.475 6.28 1.046 5.6 2.106 11.2 3.138 16.81 0.625 3.4 1.208 6.806 1.81 10.21l0.056-0.05c-0.39487-0.52492-0.7102-1.0939-0.946-1.707-0.916-4.031-1.757-8.079-2.625-12.121-0.747-3.477-1.5-6.952-2.233-10.369-0.85-0.136-0.86 0.419-0.894 0.80001-0.591 6.681-1.362 13.342-1.409 20.072-0.056667 8.17 0.25 16.321 0.92 24.453 0.449 5.566 1.15 11.131 2.111 16.631 1.5193 8.698 3.2133 17.365 5.082 26 2.766 12.791 6.468 25.341 10.143 37.894 0.372 1.273 0.542 2.6 0.806 3.909l0.064-0.039zm88.045 54.748c0.29941-0.62052 0.33708-1.2565 0.113-1.908-0.80001-3.139-1.514-6.3-2.443-9.4-1.834-6.119-3.29-12.323-4.567-18.577-1.746-8.551-3.69-17.065-5.289-25.643-1.621-8.688-3.009-17.422-4.335-26.16-0.772-5.082-1.3-10.205-1.794-15.323-0.357-3.672-0.467-7.367-0.72-11.05-0.815-11.868-0.783-23.7 1.378-35.452 1.0007-5.9975 2.7947-11.748 5.382-17.25 0.48723-1.0125 1.0959-1.9458 1.826-2.8 3.164-3.63 7.508-4.053 11.375-1.149 0.89299 0.671 1.7 1.452 2.563 2.167 0.4 0.33 0.824 0.62399 1.409 1.063 0.3275-0.60629 0.57888-1.2426 0.75415-1.9091 0.17527-0.66644 0.26947-1.3441 0.28262-2.0331 0.0131-0.68897-0.0552-1.3698-0.20493-2.0424-0.14974-0.67262-0.37668-1.3181-0.68084-1.9364-3.884-9.174-7.146-18.582-10.5-27.953-1.509-4.21-2.847-8.482-4.367-12.688-1.331-3.684-2.633-7.363-3.61-11.166-0.75-2.918-1.91-5.729-2.722-8.634-3.16-11.312-6.255-22.644-9.386-33.964-1.64-5.931-3.088-11.925-5.407-17.644-0.73171-1.8791-1.5984-3.6938-2.6-5.444-1.409-2.382-3.967-2.623-5.933-0.672-0.56927 0.54723-1.0279 1.1752-1.376 1.884-0.69328 1.2837-1.2023 2.6367-1.527 4.059-0.688 4.419-1.385 8.856-1.675 13.312-0.333 5.131-0.355 10.292-0.3 15.438 0.117 11.31 1.316 22.555 2.331 33.806 0.582 6.458 1.5 12.887 2.269 19.329 0.693 5.776 1.425 11.548 2.091 17.328 1.307 11.337 2.415 22.7 4.986 33.855 0.451 1.958 0.681 3.969 0.943 5.965 0.043 0.328-0.277 0.69999-0.459 1.128l-1.548-1.237c-0.063 0.71601-0.138 1.261-0.154 1.808-0.129 4.47-0.154 8.945-0.4 13.409-0.13402 2.6881-0.47469 5.3498-1.022 7.985-0.668 3.116-1.839 6.035-5.574 6.825 0.21878 1.6068 0.63812 3.1595 1.258 4.658 4.8153 13.609 9.6447 27.211 14.488 40.808 2.192 6.106 4.542 12.155 6.825 18.229 2.4 6.388 4.851 12.759 7.206 19.165 2.894 7.876 5.692 15.787 8.577 23.667 0.76101 2.08 1.687 4.099 2.537 6.147zm-72.276-277.07c-0.615 0.46604-1.1063 1.0383-1.4739 1.7168-0.36758 0.67846-0.57862 1.4025-0.63313 2.1722-0.291 1.878-0.555 3.77-0.66 5.665-0.25433 5.371-0.18266 10.738 0.215 16.1 0.141 2.121 0.335 4.237 0.513 6.355 0.187 2.228 0.3 4.466 0.591 6.682 0.989 7.656 1.873 15.331 3.107 22.949 1.557 9.606 3.16 19.218 5.221 28.724 1.965 9.069 4.516 18.012 6.872 26.993 0.624 2.378 1.395 4.726 2.251 7.031 1.4 3.775 2.96 7.491 4.39 11.255 2.5 6.588 4.954 13.195 7.433 19.792 0.551 1.467 1.091 2.939 1.7 4.38 0.07744 0.27194 0.19031 0.52827 0.33862 0.76901s0.32649 0.45685 0.53455 0.64831c0.20805 0.19147 0.43819 0.35112 0.69039 0.47896 0.2522 0.12785 0.51701 0.2191 0.79444 0.27371 1.363 0.152 1.885-0.983 2.435-1.959 0.31296-0.46861 0.55529-0.97128 0.727-1.508 0.72263-2.5814 1.2706-5.1994 1.644-7.854 0.79047-8.1532 0.8238-16.31 0.1-24.469-0.356-3.785-0.65-7.593-1.326-11.327-0.9-4.947-2.1-9.842-3.241-14.741-2.164-9.259-4.284-18.53-6.61-27.748-1.669-6.614-3.587-13.167-5.5-19.717-1.628-5.585-3.377-11.135-5.122-16.685-2.037-6.512-3.985-13.058-6.266-19.488-1.568-4.418-3.6-8.675-5.493-12.974-0.2622-0.79018-0.67505-1.4917-1.2386-2.1045-0.56351-0.61285-1.228-1.083-1.9934-1.4104zm136.78 207.14c-0.023-0.94701-0.04-1.618-0.055-2.289-0.228-10.132-2.3-19.983-4.589-29.795-1.4785-6.4322-3.2765-12.774-5.394-19.025-0.831-2.431-1.308-4.985-2.161-7.407-2.787-7.912-5.64-15.794-9.034-23.483-3.394-7.689-6.983-15.25-11.747-22.209-1.832-2.8778-4.1823-5.2398-7.051-7.086-4.585-2.76-7.465-1.841-10.265 1.089-0.62715 0.63855-1.1938 1.3269-1.7 2.065-1.7752 2.7446-3.1085 5.6893-4 8.834-0.31905 0.96267-0.45444 1.9505-0.40617 2.9635 0.0483 1.013 0.27701 1.9835 0.68617 2.9115 2.092 4.822 3.964 9.742 6.1 14.546 2.451 5.521 5.05 10.978 7.656 16.428 1.109 2.319 2.431 4.535 3.6 6.825 2.858 5.576 5.628 11.2 8.548 16.742 1.926 3.658 4 7.241 6.095 10.807 4.135 7.043 7.539 14.486 11.861 21.431 1.702 2.7732 3.6797 5.3336 5.933 7.681 0.96568 0.92899 2.0474 1.694 3.245 2.295 0.0999 0.0546 0.20473 0.097 0.31452 0.12709 0.10978 0.0301 0.22157 0.0472 0.33535 0.0512 0.11377 4e-3 0.22648-5e-3 0.33809-0.0275 0.11165-0.0223 0.21921-0.0572 0.32268-0.10465 0.10347-0.0474 0.20011-0.10618 0.28987-0.1762 0.0898-0.07 0.17026-0.14943 0.24149-0.23825 0.0712-0.0888 0.13121-0.18467 0.18004-0.28751 0.0488-0.10284 0.0851-0.20993 0.10896-0.32124 0.27599-0.84501 0.40997-1.733 0.54698-2.347zm-58.138-84.953c-0.22796 1.1025-0.39462 2.2141-0.5 3.335-0.095 5.144-0.255 10.291-0.173 15.433 0.14495 8.1743 0.70595 16.32 1.683 24.437 1.067 9 2.431 17.966 4.184 26.857 2.188 11.1 5.188 21.992 8.428 32.828 2.3011 7.9732 5.2345 15.706 8.8 23.2 0.92146 1.9544 2.2275 3.6044 3.918 4.95 1.182 0.92999 2.191 0.56299 2.449-0.857 0.14882-0.77127 0.22815-1.5496 0.23801-2.335 0-2.685 0.13901-5.387-0.107-8.052-0.95399-10.353-1.8-20.726-3.134-31.033-1.4286-11.67-3.4786-23.23-6.15-34.68-0.76-3.154-1.411-6.341-2.32-9.451-1.413-4.832-3.048-9.6-4.511-14.416-2.6908-8.5425-5.9211-16.876-9.691-25-0.78294-1.8909-1.8209-3.6296-3.114-5.216z"/><path d="m175.68 49.99c-0.19404 0.13508-0.39904 0.25075-0.615 0.347-0.17183-0.22513-0.32283-0.46347-0.453-0.715 0.177-0.091 0.429-0.3 0.516-0.25 0.21517 0.17816 0.39916 0.38416 0.552 0.618z"/><path d="m170.51 40.722 0.28101-0.066-0.015 0.454c-0.09-0.037-0.211-0.051-0.26-0.117-0.049-0.066-7e-3 -0.178-6e-3 -0.271z"/><path d="m161.97 63.823 0.24601-0.06-0.055 0.22-0.19101-0.16z"/></g></g></g></g></g><g display="none"><g clip-path="url(#b)"><g transform="matrix(3.4339 0 0 3.4339 1328.5 986.57)" fill="#31e8a6" font-family="GiveYouGlory" font-size="116.48px"><text transform="translate(0,80)"><tspan x="0 112.03293 178.34277 236.57715 337.80487 350.4299 392.62708 434.82425 447.44928 486.80298 551.29297 609.52734 622.15234 664.34949 722.58386 776.38245" y="0">My mission is to</tspan></text><text transform="translate(0,196)"><tspan x="0 46.632996 98.384247 149.45306 209.05231 262.85086 313.91968 372.15405 416.05731 455.41101 497.60818 510.23322 564.03174 576.65674 638.53076 689.59961 747.83398 760.45898 861.68671 905.58997 965.18921 1011.8222" y="0">create positive impact</tspan></text></g></g></g><g display="none"><g clip-path="url(#a)"><g transform="matrix(2.4641 0 0 2.4715 2516.1 1054.9)" fill="#fff"><path d="m301.1 0.1-1.2 1.2 2.8-0.7c0.60001-0.3 0.20001-0.9-1.6-0.5z"/><path d="m287.3 3.3c2-1.3 2.5-0.9 4.6-2.4 1.8-0.4 3.2-0.2 3 0.2 0.60001-0.3 2.9-0.2 3.8-1-2.5-0.4-5.5 0-8.5 1.1-0.70001-0.1-0.1-0.5 0-0.7-2.1 0.9-4.4 2.1-2.9 2.8z"/><path d="m123.5 63.5c-0.3 0.1-0.7 0.3-1 0.5z"/><path d="m37.4 136.8c0.5-0.69999 0.7-1 0.7-1.1-0.5 0.6-0.8 1.2-0.7 1.1z"/><path d="m24.6 151.2c0.3-0.30001 0.5-0.60001 0.7-0.9-0.3 0.30001-0.6 0.7-0.7 0.9z"/><path d="m122.5 64-2.7 1.4c0 0.3 1.4-0.7 2.7-1.4z"/><path d="m266.3 7.5c0.6-0.2 1.1-0.4 1.5-0.6-0.5 0.1-1 0.3-1.5 0.4v0.2z"/><path d="m164.9 38.6 0.80001-0.4c0.19999-0.2 0.39999-0.4 0.5-0.7z"/><path d="m199.5 22.9c-0.8 0.3-0.8 1.2-1 1.6 0.3-0.5 0.89999-0.9 1.5-1.2 0-0.2-0.10001-0.3-0.5-0.4z"/><path d="m257.3 6.1c0.1 0 0.20001-0.1 0.39999-0.1z"/><path d="m257.6 6 0.6-0.2c-0.1 0-0.30002 0.1-0.6 0.2z"/><path d="m140.9 51.4c-0.1-0.1-0.3-0.1-0.5-0.1 0.10001 0.1 0.30001 0.1 0.5 0.1z"/><path d="m313.9 22.1v-0.1c-0.19998 0.1-0.19998 0.1 0 0.1z"/><path d="m271.4 21.5-0.6 0.7 0.6-0.2c0-0.2 0.10001-0.3 0-0.5z"/><path d="m6.3 182c0-0.10001 0-0.10001 0.1-0.10001 0.3-1 0.1-0.5-0.1 0.10001z"/><path d="m228 353.9c-3.7-0.70001 5.9-1 0.39999-1.8 0.60001 0.39999-4.9 1.3-0.39999 1.8z"/><path d="m265.3 7.6c-0.5 0.1-1 0.3-1.5 0.4 0.70001-0.1 1.2-0.3 1.5-0.4z"/><path d="m12.9 262.6c0-0.20002 0-0.60001-0.1-0.9 1e-6 0.1 1e-6 0.29999 0.1 0.9z"/><path d="m2.3 202.8c-0.1 0.5-0.2 1-0.3 1.5 0.1-0.6 0.2-1.1 0.3-1.5z"/><path d="m33.6 287.7c0.3 0.29999 0.5 0.60001 1.1 1.1 0-0.10001-0.1-0.20001-0.2-0.29999-0.3-0.20004-0.59999-0.40002-0.9-0.80002z"/><path d="m33.6 287.7c-0.1-0.20001-0.2-0.29999-0.4-0.5 0.1 0.19998 0.2 0.29999 0.4 0.5z"/><path d="m58.3 308.3c-0.1-0.20001-0.3-0.29999-0.4-0.5-0.3-0.20001-0.6-0.4-0.9-0.60001 0.40001 0.40003 0.90001 0.80002 1.3 1.1z"/><path d="m399.4 61.6c-0.29998-0.6-0.5-1.1-0.6-1.5 0 0.7-3.6-2.3 0.6 1.5z"/><path d="m266.2 7c-0.1 0.3-0.39999 0.4-0.89999 0.6 0.39999-0.1 0.70001-0.2 1-0.3 0.1-0.1 0.1-0.2-0.10001-0.3z"/><path d="m38.8 283.5c1.1 1.2 2.3 2.4 3.5 3.6-0.9-1.1-2.2-2.4-3.5-3.6z"/><path d="m420 268.1c-0.29999 0.39999-0.5 0.70001-0.60001 1z"/><path d="m53.7 296.7c0.5 0.79999 1.2 1.5 1.9 2.2 0.2 0.10001 0.4 0.20002 0.6 0.20002-0.9-0.80005-1.7-1.6-2.5-2.4z"/><path d="m70.2 315.4c-0.1-0.1-0.2-0.1-0.2-0.20001 0 0.10001 0.1 0.20001 0.2 0.20001z"/><path d="m2.4 204.7c0 0.3 0.1 0.6 0.1 0.89999 0-0.7 0.1-1.6-0.1-0.89999z"/><path d="m7.5 180c0.2-0.39999 0.3-0.89999 0.4-1.3-0.2 0.6-0.3 1-0.4 1.3z"/><path d="m282 2.6h0.60001c-0.10001-0.1-0.30002-0.1-0.60001 0z"/><path d="m409.2 281.6c0.20001-0.29999 0.4-0.60001 0.60001-1-0.20001 0.29998-0.40003 0.69998-0.60001 1z"/><path d="m8.1 202.6c0.3-1.6 0.9-3.7 0.3-3.6l-0.1 1.6c-0.1 0.1-0.1 0.19999-0.2 0.19999 0.099999 0 0 0.9 0 1.8z"/><path d="m386.9 44c0.20002 0.2 0.4 0.4 0.60001 0.6-0.20001-0.2-0.29999-0.3-0.60001-0.6z"/><path d="m455.7 187.1c0-2.7-0.29999-6.1-0.5-8.3l0.79999 0.7c-0.20001-1-0.39999-1.7-0.60001-2.3-0.20001-0.60001-0.39999-1.2-0.5-1.8-0.29998-1.2-0.5-2.5-0.70001-5.2 0.10001-1.3 0.60001-1.1 0.5 0.6 0.29999-4.2-0.89999-3.2-0.89999-8.4l0.70001 1.9c-0.29999-4.3-0.60001-4-1.4-6.3-0.70002-2.6-1-8.1-0.29999-8.9-0.60001-0.5-1.7-2.7-2-5.2 0.20001-0.4 0.6 0.5 0.79999 0.89999-0.20002-1.8-0.5-3.4-0.9-4.8-0.39999-1.4-0.89999-2.6-1.3-3.7-0.39999-1.1-0.79998-2.2-1.1-3.3-0.29999-1.1-0.5-2.2-0.79999-3.5 0.20001-0.2 0.29999-0.5 0.20001-0.89999 0.20001 0.69999 0.4 1.4 0.70001 2 0.20002 0.69999 0.29999 1.3 0.5 1.9 0.29999 1.2 0.60001 2.3 0.79999 3.2 0.4 1.5 0.60001 2.4 0.60001 2.6 0.70001-0.19999-0.29999-4.7 1.6-1.4-0.79998-1.8-1.9-4.1-2.9-6.6-1.2-2.4-2.2-4.9-2.8-7.2 0-0.2 0-0.5 0.10001-0.7l0.20001 0.4c-0.1-0.5-0.29999-1-0.5-1.4s-0.39999-0.8-0.6-1.2c-0.4-1.4-0.70002-2.3-1.2-3.6 0.20002-0.4-0.20001-1.7-0.79998-3.1-0.5-1.5-1.4-3.1-1.9-4.1-0.70001 0.5-1.8-2.3-1.3 0.6-0.1-0.40001 0.29999 0.4 1 1.7 0.20002 0.30001 0.4 0.7 0.5 0.9l-0.1-0.1c0.6 1.4 1.3 3.2 2.2 5.3-0.5-0.8-1.1-1.6-1.5-2.5-0.5-0.9-0.79999-2-1.2-3.2-1-0.9-2-1.8-2.6-2.4-0.1-1.7-0.6-4-1.2-6s-1.1-3.7-1-4.2c-0.5-0.8-0.89999-1.6-1.4-2.4-0.20002-0.4-0.5-0.8-0.70002-1.3-0.29998-0.4-0.5-0.8-0.79998-1.2-1.1-1.7-2.2-3.3-3.3-4.9-1-1.6-2.2-3-3.3-4.3-1.1-1.2-2.1-2.3-3.1-3-1.3-1.6-1-2.2-1.2-2.9 0.9 0.8 1.6 2 2.1 2.4-1.2-1.6-3.2-3.9-4.8-5.9-0.79999-1-1.6-1.9-2.3-2.6-0.70001-0.6-1.3-1-1.7-1-2.9-4.2 2.6 1.5-2-3.7l0.89999 0.5c-1-1.4-1.9-2.8-2.9-4-1.1-1.2-2.1-2.3-3.2-3.3-1.1-1-2.2-2-3.3-2.9-1.2-0.9-2.3-1.7-3.5-2.6-2.3-1.7-4.7-3.5-7.2-5.4-1.2-1-2.5-2-3.7-3.2-1.1-1-2.3-2-3.4-3.1 0.4 0.4 0.60001 0.6 0.60001 0.8-6.6-5.7-14.4-10.2-22.4-14s-16.3-7-24.3-10.2c-4.6-1.6-5.3-1.1-8.3-1.2l-0.79999-1.1c-1.7 0-3.4-0.1-5.2 0-1.8-0.1-3.4-0.4-5-0.9-1.6-0.4-3.2-0.8-4.8-1.2-1.6-0.4-3.4-0.9-5.3-1-1.9-0.1-3.9-0.3-6.2 0.1 0.39999 0.2 0.79999 0.4 1.2 0.6-1.6-0.1-4.2 0-6.3 0.1-1.1 0-2 0.1-2.6 0-0.60001 0-1-0.1-0.9-0.3-0.29998 0.1-1 0.7-2.3 0.5l-0.10001-0.5c-2.7 0.4-5.3 1.1-7.9 1.7-0.79999 0.1-1.3 0.1-1.8 0-0.39999 0-0.70001 0-0.89999-0.1-0.4-0.1-0.4-0.4-0.5-0.6-0.20002-0.4-0.70002-0.7-5.3 0.1-0.79999 0.2-1.8 0.6-2.8 1s-2 0.9-2.8 1.3c-1.7 0.8-2.8 1.5-2.1 1.5 1.3-0.3 3.4-0.6 3.7-0.2l-2.9 1c-0.20001 1.5-1.9 3.4 5.4 2.5 0.79999-0.3 1.6-0.7 2.4-1l2.4-0.9 1.7 0.4-4.2 0.9c2.5 0.2 3.9-0.7 5.5-1.4 0.5 0.3 1.2 0.4 2.2 0.4l4.8-2c0.70001 0.5-2.1 1.3 1.2 1.3 2.3-0.8-2.4-1.1 1.5-1.7 2.5 0.5 1.8 1 4.6 0.3 0.4 0.3-0.20001 0.6-1.3 0.8 0.6-0.1 1.4-0.3 2.1-0.4 0.79999 0 1.6-0.1 2.3-0.1 1.5-0.1 2.9-0.2 3.6-0.6 0.6 0.2 1.5 0.3 2.4 0.4 0.89999 0.1 1.9 0.1 2.8 0.2 1.8 0.1 3.2 0.3 3.1 0.9 0.79999-0.2 4.6-0.5 6.9-0.3-2.2 0.5-0.10001 0.8 2.5 1.3 2.5 0.5 5.4 1 4.7 1.8 1.7-0.3 4.5 0.1 7.6 0.8 3.1 0.8 6.4 1.7 9.2 2.3-0.29999 0-1 0-1.4-0.2 2.9 1.1 3.7 1.8 5.5 2.8 0.4-0.5 1.8-0.3 3.4 0 1.6 0.3 3.5 0.7 4.8 1 3.1 2.6-2.7 0.3-2 1.8 0.20001-1 6.5 1.9 5.6 0.6 1.2 0.9 1.7 1.3 2.1 1.6 0.39999 0.3 0.5 0.6 1 1.4 1.1-1.1 2.6 1 5.2 1.4 3.4 2.8 0.29999 1.8 4.6 3.7 1.7 1.5-2.2-0.1-2.2-0.1 2 1.2 2.7 1.3 2.9 1 0.29999-0.3 0.20001-0.8 0.79999-0.8 5 2.9 1.8 2.1 3.1 3.7 1.6 0.8 3 1.5 4.4 2.1 1.3 0.6 2.6 1.2 3.7 2 0.1 0.3 0.39999 0.6-0.20001 0.4 1.8 0.7 4 2.6 6.2 4.4 1.1 0.9 2.3 1.8 3.4 2.7 1.1 0.9 2.1 1.6 3.1 2.2 0.20001 0.3 0.20001 0.5 0.20001 0.6-0.10001-0.9 0.20001-1.4 0.5-1.6 1.6 1.5 3.5 2.2 3.5 3.3-0.89999-1-1.2-0.8-1.8-1.1 0.60001 0.5 1.3 0.9 1.9 1.4 0.29998 1.1-0.29999 0.6-1-0.1-0.79999-0.7-1.8-1.5-2-1.2 1.8 1.3 3.6 2.9 5.4 4.4 0.89999 0.7 1.7 1.5 2.4 2.2 0.4 0.4 0.70002 0.7 1.1 1.1 0.29999 0.4 0.60001 0.7 0.79999 1.1-0.20001 1.1-5.7-5.5-3.2-1.7l-3.3-4c1.6 4-2.1-2.4-0.79999 1.5 2.2 2.6 3.7 3.8 5.1 5.2 1.3 1.4 2.7 2.7 4.8 5.4 1.4 0.8 0.29999-0.9 1.8-0.1 6.8 7.2 2.7 7.6 7.8 12.7 1.6 1.2 3.2 1 5.2 5.8l-1.9-0.9c1.7 2.9 2.5 3.5 3.3 4.2 0.39999 0.3 0.79998 0.7 1.2 1.4 0.39999 0.7 0.89999 1.7 1.6 3.4-1-0.9-2.8-4.4-2.4-3.5 1.3 4.4 2.1 2.5 3.7 5.6l-0.6 1.1c0.89999 1.5 1.7 3.2 2.5 4.8 0.89999 1.6 1.8 3.3 2.6 5 0.79999 1.7 1.6 3.5 2.4 5.3 0.39999 0.9 0.79998 1.8 1.2 2.7 0.39999 0.9 0.70001 1.8 1 2.8-0.39999-0.30001-1.1-1.5-0.89999 0.4 0.39999 1.2 0.89999 2.3 1.3 3.5 0.4 1.2 0.9 2.4 1.2 3.7 0.70001 2.5 1.3 5.1 1.9 7.6 0.39999 2.6 0.89999 5.2 1.2 7.7 0.20001 1.2 0.29999 2.5 0.4 3.7 0.1 1.2 0.20001 2.4 0.29998 3.6 0.4 1.2 1 2.3 1.4 3.5 0.1 0.8-0.29999 1.6-0.5 0.69999 0 3.7 0.6 0.10001 1.1 1.9 0.20002 2.1-0.29998 2.8-0.6 1.5 0.20001 0.8 0.29998 1.7 0.5 2.7 0.1 0.5 0.20001 1 0.29998 1.5 0.10001 0.5 0.10001 1 0.20002 1.6 0.20001 2.2 0.39999 4.5 0.6 6.9 0.10001 2.4 0 4.7-0.1 7-0.10001 1.1-0.10001 2.2-0.29999 3.2-0.20001 1-0.29999 1.9-0.5 2.8l-0.10001-1.4c-0.89999 5.3 1.4 6.3-0.29998 11.1v-1c-0.60001 2.9-0.9 5.9-1.6 8.8-0.60001 2.9-1.1 5.9-2 8.7-0.39999 1.4-0.79999 2.8-1.1 4.1-0.20001 0.7-0.39999 1.3-0.6 2-0.20002 0.60001-0.5 1.3-0.70002 1.9-0.89999 2.5-1.9 4.8-2.9 6.8 0.29999 1-0.89999 3.7-2 6.2-1 2.6-2.3 4.9-1.6 5.7-1.8 2.9-2.5 3.8-3.4 5.1-0.89999 1.2-2 2.8-4.5 6.8-1.3 2.1-0.89999 3.8-2.4 6.5l-0.79999-0.4c-0.39999 1.4-0.89999 2.8-1.4 4.1l-2.2 1.2-1.4 2.5c0.70001-0.89999 1.7-1.8 1.8-1.5-2.1 4.1-7.1 8.6-7.5 8.4l-1.5 2.2-1.6 2.2-3.2 4.3c-0.10001-0.29999 0.5-1.2 1.1-2.1-1 1.5-1.3 1.5-1.6 1.5-0.29999 0-0.60001 0-2.1 2.1 0.60001-0.39999 0.10001 0.60001 0.20001 0.89999-1.1 0.79998-2.7 2.2-4.4 3.9-1.7 1.6-3.6 3.4-5.1 5l0.20002-1c-0.70002 0.70002-1.5 1.3-2.2 2-0.79998 0.70002-1.6 1.3-2.4 2-1.6 1.3-3.2 2.7-4.9 4.1-0.79999 0.70002-1.7 1.3-2.6 2s-1.8 1.3-2.6 2c-1.8 1.3-3.5 2.7-5.5 3.8 2.9-1.5 2.9-0.20001 0.70002 1.3l-1.4-0.29999c-1.1 1.4 2.5-1.2 0 1.3-2.9 1.7-2.5 0.29999-1-1l-3.3 2.5c-0.4-0.10001 0.39999-0.79999 0.39999-1.2-1 1.5-6.5 2.6-8.1 4.7l-0.29998-0.10001c-7.9 4.2-11.4 6.1-18.2 9 0.10001 0.4-0.5 0.9-1.4 1.4s-2 1.1-2.9 1.8c-2.6 0.79999-5.3 1.6-8.2 2.4-2.9 0.70001-5.9 1.6-9 2.6-4.3 1.6-1.1 1-2.9 2.1-0.5-0.60001-6.8 1.2-3.7-0.29999-0.9 0.29999-1.8 0.5-2.6 0.79999-0.79999 0.20001-1.5 0.39999-2.2 0.60001-1.4 0.39999-2.7 0.70001-4 1.1-1.3 0.4-2.7 0.79999-4.4 1.2-1.7 0.4-3.6 0.9-6 1.6 1.1 0.10001 2.3 0 1.8 0.39999-1.7 0.5-4.1 0.5-3.9 0.10001l0.5-0.20001c-1.3 0.39999-2.7 0.70001-4.2 1s-3 0.5-4.5 0.70001c-3 0.39999-6.2 0.5-9.3 0.70002-1.5 0.10001-3 0.20002-4.5 0.20002-1.5 0.1-2.9 0.1-4.3 0.20001-2.8 0.20001-5.3 0.6-7.5 1.1l0.5-0.1-9.1 1.5c-4.2 0.1 2.5-0.70001-0.69999-1-9.8 1.8-15.7 0.5-23.8 1.5-1.6-0.60001-3.8-0.79999-6.3-0.9-2.5-0.1-5.4-0.20001-8.3-0.20001h-4.4c-1.5 0-2.9-0.1-4.3-0.20001-2.8-0.20002-5.4-0.39999-7.5-0.89999l0.5 0.6c-2.2 0.29999-2.6-0.5-4.2-0.79999 0.2 0.4 2.3 0.70002 1 0.79999-2.3-0.1-4.7-0.20001-7-0.39999-2.4-0.20001-4.7-0.5-7.1-0.79999-1.2-0.10001-2.4-0.29999-3.6-0.39999-1.2-0.20002-2.4-0.4-3.6-0.60001-2.4-0.39999-4.8-0.79999-7.1-1.2-2.4-0.5-4.7-1-7.1-1.5l-4.0002-1.6001c-1.2-0.29999-2.3-0.60001-3.5-0.89999-2.3-0.60001-4.7-1.2-7-1.8-2.3-0.60001-4.6-1.3-6.9-1.9-3.4-0.89999-4.5-0.5-5.8-0.29998-1.3 0.20001-2.8 0.20001-6.9-1.7l2.7-0.29998c-1.7-0.4-3.5-0.70002-5.2-1.2l-5.1-1.5c-1.7-0.5-3.4-1.1-5.1-1.7l-5-1.9c-1.7-0.60001-3.3-1.3-5-1.9-1.6-0.70001-3.3-1.4-4.9-2.1-1.6-0.70001-3.3-1.3-4.9-2-1.6-0.70001-3.2-1.4-4.8-2 0.8 0.20001 1-0.10001 2.2 0.5-1.2-1-3.6-2.1-5.7-3-0.5-0.20001-1.1-0.4-1.5-0.60001-0.5-0.20001-0.9-0.39999-1.3-0.5-0.8-0.29999-1.3-0.39999-1.3-0.20001-1.9-1.1-0.2-0.70001-1.2-1.6-2.3-1.8-6.9-2.7-7.8-4.1-0.1-0.10001 0.2 0 0.5 0.1-2.3-1.1-6.6-4.1-5.6-2.7-4.1-3.1-8.4-5.2-11.3-8-1.4-0.39999-3-1.9-4.5-3.2-1.5-1.3-2.8-2.4-3.6-2.2 0.6-0.4-1-2-2.9-3.9-2-1.8-4.4-3.8-5.8-4.8 1 0.5-1.7-2.3-0.4-1.8-2.6-2.6-5-5-5.1-4-1.7-3.1-4-5.5-6.1-7.7-1-1.1-2-2.2-2.7-3.3-0.7-1.1-1.2-2.1-1.3-3.2-6.6-8.6-11.4-17.7-14.3-27 0.3 0 0.7 0.6 1.1 1.6 0.4 0.9 0.8 2.2 1.2 3.4 0.9 2.4 1.9 4.7 2.5 4.3-2-4.1-3.5-7.5-4.7-10.9-1.2-3.4-2.2-7-2.5-11.6-0.1-2.4 0.7 1.3 1.1 2-0.9-4.5-1.1-9-0.8-13.3 0-1.1 0.1-2.1 0.1-3.2 0.1-1.1 0.2-2.1 0.3-3.2 0.1-1 0.1-2.1 0.3-3.1 0.1-1 0.3-2.1 0.4-3.1-0.5 0.60001-0.7-0.89999-0.7-2.8 0.1-2 0.4-4.4 0.2-4.6 0.2 0.8 0.5 0.7 0.8 0.2 0.3-0.5 0.6-1.4 1-2.3 0.7-1.7 1.5-3.2 1.8-0.8 0.2-1 0.4-2.4-0.1-2.3 0.6-1.5 1-1.9 0.9-0.2 0.3-1.4 0.7-2.3 0.8-3 0.2-0.7 0.2-1.2 0.3-1.6 0.2-0.9 0.2-1.7 1.4-4.1 0.3 0.10001-0.1 1.2 0 1.8 0.6-2.7 1.1-5.4 3.5-9.3 0 0.3 0.3 0.10001 0.1 0.7 1.6-3.3 3-6.2 4.4-9.1 0.8-1.5 1.6-3.1 2.6-4.6 1-1.6 2.1-3.2 3.5-4.8-0.2 1.4 0.3 0.89999 1 0 0.7-0.8 1.7-2 2.2-1.8 0.8-1.3 1.6-2.6 2.5-3.9-0.5 0.4-1.1 0.7-1.6 1.1 2.5-3.2 4.1-6.5 6.6-8.9l-1.6 2.6c1.6-2 3.1-4 4.8-5.9-1.1 1-2.1 2-3.1 3 2.2-3.5-1.4-0.60001 2.4-4.5-0.6 0.89999 2.7-3.1 4.6-4.1 0.6-0.89999 1.1-1.7 1.8-2.6 0.7-0.90001 1.6-1.8 2.8-2.8 0.8-0.3 0.5 1.3 1 1.1 0.7-2.1 6.5-7 7.6-9.5-0.4 0.8 0 1.2 0.2 1.1l0.6-1.7c1.5-1.2 1.8-1.3 1.9-0.69999 4.2-3.8-2.3 0.19999 3.1-3.9-0.3 0.40001-0.1 0.30001-0.8 1.1 2.6-2.2 4.9-4.5 7.2-6.7 1.1-1.1 2.2-2.3 3.4-3.3 1.2-1 2.4-2 3.6-3 2.1-0.3-3.9 3.7-1.7 3.1 3.3-3 6.6-6.2 10-9.4 0.8-0.8 1.6-1.6 2.5-2.4 0.9-0.7 1.7-1.5 2.6-2.2 1.7-1.4 3.5-2.8 5.2-4.1l-1.2 1.0001c0-1 1.4-1.8 3.2-2.8 1.8-1 3.9-2.2 5.5-3.7-0.80001 0.7-0.6 1.5-0.5 1.2 2.5-1.6 4.9-3.4 7.6-5.6 1.3-1.1 2.7-2.2 4.2-3.4 0.80001-0.6 1.5-1.3 2.4-1.9 0.80001-0.6 1.7-1.3 2.6-1.9l-0.69999 0.9c3.1-1.6 7.8-4.8 11.1-6.7 0.7-1 2.6-2.1 1.2-1.9 5.6-2 10.2-5.1 14.7-8.1 0.6-0.4 1.1-0.8 1.7-1.1 0.60001-0.4 1.1-0.7 1.7-1.1 1.1-0.7 2.3-1.4 3.4-2 2.3-1.3 4.7-2.4 7.2-3.2-1.1 0.6-2.4 1.7-1.6 1.2 2.5-1.5 5-3.1 7.6-4.4-0.89999-0.3-1.2 0.1-3.1 0.5 0.8-0.9 2.9-2.2 4.9-3.2-3.4 2.1 0.5 1 2.2 0.6-0.4-0.1 0.1-0.5-0.2-0.7 4.7-0.9 0.10001-1.6 6.1-3.6l-0.19997 0.50001c2-1.2 3.8-2.6 6.2-3.5 1.3 0.3-2.1 1.3-2 2 3.2-1.4 5.8-4.2 9.1-4.7-1.3 0.8-3.3 1.7-4.6 2.5 3.6-0.5 3.9-0.9 6.3-1.8l-0.2 0.1 5.7-2-1.5 0.4c1.6-1.9 3.7-2.7 6-3.6 2.3-0.9 4.8-1.7 7.4-3.5-5 3.3-0.6 1-0.69999 2.1 1.5-0.3 3.8-0.9 3.3-0.4 1.2-0.8 2.3-1.2 3.6-1.5 1.3-0.3 2.7-0.7 4.4-1.9 0.3 0.2 2.9-0.9 2.5 0 3.4-1.4-1-0.2-0.8-0.7 2.5-1.4 5.8-2.1 9.3-3 3.6-0.9 7.4-1.7 11.2-3.5 3.3-1.2 5.2-2.2 7.1-3.1 1.9-0.8 3.7-1.7 6.8-2.7 2.3-0.1-1.5 1.5-1.5 1.5 3.6-0.4 6.2-1.1 9.3-2.2-0.6 0.4 0.10001 0.5 1.2 0.5 2.6-0.7 1.5-1.5 5.1-1.7-0.5 0.4-1.2 1.1-2.4 1.7 3.1-0.9 6-2 9.2-2.9 1 0.3-1.8 1.1-2.9 1.7 3.6-0.9 9.3-2.3 10.3-3.3l-1.8 0.1c0.5 0.1 0 0.7-0.70002 0.9-3 1.2-4.5 0.6-4.8 0.3l2.3-0.6c-2.7-1.2-9.2 2-13.8 2.9 0.5-0.6 1.1-1.1 1.7-1.7-1.5 0.7-3 1.4-4.5 2.1-1.1-0.1-1.9-0.6 0.29999-1.3-3.4 0.2-2.8 1.1-5.8 1.1-0.29999 0-0.20001-0.1 0.1-0.2l-3.1 1.1c0.6-0.4-0.7-0.7 1.3-1-3 0.4-5.3 1.1-7.1 1.8-1.8 0.7-3.2 1.3-4.4 1.2l0.5-0.2c-7.8 2.7-0.5 1.1-6.2 3.8l-4.6-1-0.5 1.1c-0.8 0.2-2.5 0.6-2.3 0.2-2.8 1.6 0.6 0.2-0.9 1.4-4.1 0.5-10.6 3.9-11.9 2.9-1.2 1.1 3.9-0.7-0.10001 1.1-0.8-0.5-2-0.1-3.5 0.6-1.4 0.7-3.1 1.7-5 2 0.8-1.2 4.3-2 0.5-1.4-1.6 2.1-6.9 2.3-9.8 3.7 0.1 0.5-1.4 1.2-3.6 2.1-2.2 1-5 2.1-7.3 3.3 0.10001-0.2-2.3 0.6-5.2 1.7-1.5 0.6-3.1 1.2-4.7 1.8-1.5 0.6-3 1.2-4.1 1.7l0.10001-0.2c-0.4 1.4-5.1 3.4-8.3 5.2-0.19999-0.7 0.30001-1.2 2-2.3l-3.1 1.5c-0.60001 0.7-1.5 1.3-3.4 2.5l0.4-1.1c-4.1 2.2-7.8 5.3-13.3 7.6 0.10001 0.8 5.2-0.4-0.1 3.1-0.4-0.3-1-0.8 0.39999-1.7-0.39999 0.3-1.5 1.2-2.6 1.6 0.60001-0.6 1.2-1.2 1.9-1.8-2.5 1-1 1.2-2.9 2.2-0.3-0.5-1.6 0.5-1.6-0.1 0.5-0.3 1.8-0.8 2.4-1.4-2.2 1.2-4.9 2.4-6 2.5 0.4 0.2 0.4 0.7-1.1 1.7-4 2.4-1.7 0.2-4.2 1.3-0.8 0.9-3.5 2.1-3.1 2.9-1.2 0.7-1.6 0.5-2.2 0.6-1.8 1.6-9.4 6.2-6.6 5.5l0.6-0.3c-0.1 0.1-0.2 0.2-0.30001 0.2-1.5 1.3-3.2 2.4-4.9 3.5-0.9 0.5-1.7 1.1-2.6 1.6l-2.6 1.7c-3.4 2.2-6.9 4.4-10 6.8l-0.2-0.2c-0.9 0.8-1.9 1.5-2.8 2.3-1 0.8-1.9 1.6-2.9 2.4-1.9 1.6-3.6 3-4.7 4.3-1.1 0.8-2.9 1.6-2.7 0.9-2.7 2.4-2.8 2.8-7 5.8 2.4-2.7-1.2 0.4 2.6-2.7-3.7 2.8-4.8 3.1-8.1 7 0.8-1.7-3.3 1.5-4.8 3.1l2.8-1.7c-1.8 1.7-3.5 3-5.2 4.5l0.2-1.6c-7.8 5.6-11.3 13.1-17.7 16.9-1.3 2.3 4-3.3 3-1.1-3.2 3-7.4 5.3-8.4 6.2-1.2 1-1.9 1.8-2.5 2.5-0.5 0.7-0.9 1.4-1.2 2-0.7 1.3-1.4 2.6-3.6 4.9 0.8-0.39999 2-0.3-0.8 3.4-3 3.2-4.6 3.1-3.1 0.80001 0.7-0.80001 1.1-1.1 1.1-1 0.8-1.1 2-2.6 0.5-1.6l-0.1 0.7c-1.7 1.4-5.6 6.1-5.1 4.6-1.9 2.8-0.5 1.5 1.3-0.3-4 4-5.6 6.8-9.3 11.3 0.7-0.6 1.6-1.1 1-0.3-2.7 3.3-3 4.2-3.2 4.8-0.1 0.30001-0.1 0.60001-0.3 1-0.2 0.5-0.6 1.2-1.3 2.4-2.2 2.5-0.5-1.7-3.2 3.5-2.1 2.9-1.2 0.1-0.7-1.2-1.1 2.5-2.4 4.6-3.7 6.4-1.2 1.9-2.4 3.4-3.2 4.8l1.1-2.7c-0.6 1.6-1.3 2.8-1.9 4.1 0.4-0.4 0.9-0.8 1.4-1.1-0.9 1.4-1.4 2.7-1.7 2.6-0.3 1.8 1.6-0.7 0.8 2.7-0.3 0.5-0.6 1.1-0.9 1.8-0.3 0.7-0.5 1.4-0.8 2.1-0.5 1.4-1.1 2.6-1.6 2.8 2.6-5.8-0.5-0.80001 0.5-3.9-0.3 0.80001-0.7 1.7-1.2 2.7-0.2 0.2-0.1-0.3 0-0.7-1.7 3-1.6 3.9-1.5 4.7 0 0.39999 0.1 0.89999 0 1.7 0 0.39999-0.1 0.8-0.2 1.4-0.1 0.60001-0.3 1.2-0.5 2.1-0.3-1-1.4 1.3-1.6 2.4 0.7-2.7 1.2-1.1 0.9 1.5-0.2 0.5-0.4 1-0.5 1.4-0.1 0.39999-0.2 0.8-0.2 1.2-0.1 0.7-0.2 1.2-0.2 1.7-0.1 1 0 1.6-0.3 2.8l0.7-2.6c0.4 1-0.2 3.1-0.3 6.2-0.1 0.10001-0.2-0.19999-0.2-0.5 0 1.4-0.4 2.8-0.8 4.4-0.3 2.1-0.8 4.4-0.5 6.8-0.3 2.2-1 0.2-1.2 2.2 0.2 1.4 0.4 2.4 0.4 3.3v2.4c0 1.5-0.1 3.1 0.7 5.9 0.4-1.8 0.2-2 1.6 1.8-0.4-1.5-0.7-3-1-4.5-0.3-1.5-0.6-3.1-0.8-4.6 0.2 1 0.6 2 0.8 2.9 0.3 1 0.6 1.9 0.9 2.9-0.4-2.7-1.2-5.8-1.2-7.5 0.8 2.8 0.6 2.5 1.1 1.1-0.2 1-0.2 1.9-0.1 2.9 0.1 0.9 0.3 1.9 0.6 2.8 0.3 0.89999 0.5 1.9 0.7 2.9s0.4 2 0.5 3.1l-1.8 0.3c0.1 1.7 0.6 3.2 1 4.7 0.5 1.5 1 3 1.7 4.4 1.3 3 2.8 6.1 4.4 10.1l-0.9-2.7c0.6 0.39999 1.1 1.6 1.7 3 0.7 1.4 1.3 3 2.1 4.1-0.6 0 0 1.7 0.2 2.9 0.2-0.20001 0.9 1.2 1.9 2.6 0.9 1.4 2.1 2.8 2.8 2.8 0.5 1.2 1 2.4 1.5 3.6 1.9 2.9 3.4 4.3 5 5.5 0.8 0.60001 1.5 1.2 2.4 2 0.8 0.79999 1.7 1.7 2.8 3-1.8-1.1-0.2 1.5-3.4-1.6 1.4 1.7 2.7 3.3 3 3 0.6 1.3 4.7 4 5.8 5.8 0.8 0.5 1.5 0.29998 3.2 2 0.1 0.20001 0 0.20001-0.1 0.20001 0.5 0.20001 2.9 2.2 1.9 0.39999 1.8 3 5.4 6.1 9.1 9 3.6 2.9 7.4 5.4 9.3 7.7 4.1 2.6 9.1 5.5 12.9 7.6-0.3 0-0.2 0.20001-0.6-0.10001 4.7 3.1 3.9 0.20002 9.5 3.9 2.6 2.5-3.4-1.3-1.7 0.1 0 0.5 0.4 1 1.2 1.5 0.7 0.5 1.8 1 3 1.5 2.3 1 5.1 2 7 3.5l-1.1-0.39999c0.7 0.5 1.6 1 2.6 1.4 1 0.4 2.1 0.70002 3.3 1.1 2.3 0.70001 4.9 1.5 7.6 2.7 0 0-0.3 0.10001-0.1 0.29999 4.1 0.5 11.1 2.9 16.4 4.3-1.9 0.20001-2.5-0.4-1.8 0.70001 2.4 0.70001-0.3-1.4 4.4-0.10001 1.4 0.9 4.7 2.3 4.9 3.2-1.5-0.4-3-0.79999-4.5-1.3 1.9 1.8 5.8 1.7 8.1 2.6l-0.39999 0.4c1.7 0.5 3.1 0.70001 4.2 0.89999 1.1 0.10001 2.1 0.20001 3 0.29999 1.9 0.20001 3.8 0.39999 7.5 1.3l-0.69999-0.5c4.3-0.20001 3.3 1.4 7.5 1.4l1 1.4c2.8 0.39999 9.7 0.6 14.6 1.3-2.9 0.4-8.7-0.1-12.3-0.29998 2.7 0.5 9.2 1.5 10.7 1.2-1.1-0.10001-2.5 0-3.6-0.4 1.7-0.20001 3.7-0.1 5.9 0 2.2 0.10001 4.7 0.29999 7.4 0.70002-0.60001 1.1 2.9 1.8 7 2.2 2.1 0.29999 4.3 0.5 6.2 0.89999 1.9 0.29999 3.6 0.70001 4.6 1.2 2.4 0 4.8 0.10001 7.3 0.29999 2.4 0.10001 4.9 0.29999 7.4 0.5 1.2 0.10001 2.5 0.20001 3.8 0.29999 1.3 0.10001 2.6 0.20001 3.9 0.20001 2.6 0.10001 5.3 0.29999 8.2 0.29999-4-1.8 3.3 0 2.6-1.9 2.6-0.10001 3.6-0.10001 3.8 0l-0.5-0.10001c0.2 0 0.4 0.10001 0.60001 0.10001l4 0.5 4 0.39999c1.9 0.5-2.5 0.5-2.2 0.89999 5.7 0 2.4 0.70002 6.3 1.1-0.80001-0.70001 2-0.89999 5.3-0.89999-1.6-0.20002-3.1-0.4-4.6-0.70002 4-0.6 5.7-0.39999 7.5 0 1.8 0.29999 3.5 0.60001 7.6-0.20001l-2.5 0.79999c2.1-0.29999 5.9-0.60001 9.7-1 3.8-0.5 7.6-1.2 9.5-2.1 0.79999 0.10001 1.8 0.5 0 0.9 9.9-0.9 21.7-4.5 29.4-5.3l-0.70001 0.60001c1.8-0.5 3-1.4 5.4-1.5-0.10001 0.20001-0.60001 0.6 0.20001 0.39999 0.89999-0.39999 4.6-1.9 7.1-2.2l-1.9 1c9.6-1.8 14.1-5.1 21.7-7.9 0.4 1.4 7.8-1 11.4-2.1l-0.10001 0.20001c2.7-1 5.1-2.2 7.3-3.2 1.1-0.60001 2.3-1.1 3.3-1.7 1.1-0.6 2.1-1.2 3.1-1.8 2-1.2 4.1-2.4 6.1-3.7 2-1.3 4.1-2.7 6.3-4.1 1.6-0.4 3.6-1.5 5.8-2.7 2.2-1.3 4.8-2.7 7.2-4.5 1.2-0.9 2.5-1.8 3.8-2.6 1.3-0.89999 2.6-1.7 3.8-2.7 2.4-1.9 4.8-3.7 7-5.2-1.4 0.79998-0.39999-0.9 0.79999-2.3 2-1.5 4.4-5.3 4.9-4.1l-0.70001 0.60001c0.5-0.10001 1.2-0.4 1.9-0.9 0.70001-0.5 1.4-1.1 2.1-1.8 1.5-1.4 3-3.1 4.4-4.5l-0.70002-1.5c2.1-1.6 4.2-3.7 6.3-6 2-2.4 3.9-5.1 5.6-7.6 1.7-2.6 3.2-5.1 4.7-7.2 0.70001-1 1.4-2 2-2.8s1.2-1.5 1.8-2c0.5-1.2 1.1-2.4 1.7-3.7 0.60001-1.2 1.1-2.6 1.6-3.7l0.70001 0.5c1.7-3 3.1-5.3 4.2-7.9 0.60001-1.3 1.2-2.6 1.9-4.1 0.29999-0.8 0.70002-1.5 1-2.4 0.29999-0.9 0.70002-1.8 1-2.8l-0.1 1.9c0.89999-2.3 0.89999-3.9 0.89999-5.5 0-0.80001-0.1-1.6 0-2.4 0.10001-0.89999 0.20001-1.8 0.5-2.8l1.6-0.89999c2.8-7.9 5.8-16.1 6.2-24.5 0.10001 0.19999 0.5 0.5 0.29999 1.8 0.39999-2 1.1-5.7 1.6-8.9 0.29999-1.6 0.29999-3 0.20002-3.9-0.10001-0.8-0.29999-1.3-0.60001-1.2 3e-5 -0.69991 0.20004-2.6999 0.20004-5.0999zm-13.8-61.2c-0.29998-0.9-0.6-1.7-0.79998-2.2 0.1 0.39999 0.39999 1.1 0.79998 2.2zm1.2-12.5s-0.10001-0.1-0.20002-0.1c0.20002 0.1 0.4 0.2 0.60001 0.40001 0.70001 1.4 0.70001 2 0.60001 2.2-0.20002-0.7-0.5-1.5-1-2.5zm0.5 17.6c0.20001-0.39999 0.6-0.10001 0.89999 0.8-0.29999-0.39999 0.10001 1.8 0.20001 3.2-0.30002-1.2-0.6-2.6-1.1-4z"/><path d="m18.1 172.4c-0.1 0.2-0.1 0.30001-0.2 0.5 0.1-0.19999 0.1-0.39999 0.2-0.5z"/><path d="m72.5 309.6c0.3 0.1 0.5 0.29998 0.8 0.29998-0.2-0.1-0.5-0.19998-0.8-0.29998z"/><path d="m441.4 111.6c-0.1-0.2-0.20001-0.3-0.29998-0.6 0.1 0.3 0.1 0.6 0.20001 0.9 0.20001 0.1 0.29999 0.30001 0.5 0.4-0.10001-0.2-0.30002-0.5-0.40003-0.7z"/><path d="m123.5 63.5c0.2-0.1 0.3-0.1 0.4-0.1h-0.19999z"/><path d="m424.9 260.1 0.10001 0.1 0.29999-0.80002z"/><path d="m171.9 39.7c-0.1 0-0.39999 0-0.69999 0.1 0.1 0 0.3 0 0.69999-0.1z"/><path d="m192 30.5 3.1-1c-1.3 0.4-2.3 0.7-3.1 1z"/><path d="m208.5 24.4c0.2-0.2 0.2-0.3 0.2-0.5z"/><path d="m8.1 202.6c0 0.19999-0.1 0.39999-0.1 0.6-0.1 1.5 0 0.49999 0.1-0.6z"/><path d="m46.5 131.4c-0.5 0.80001-1 1.5-1.5 2.2 1-0.99998 1.8-1.8 1.5-2.2z"/><path d="m38.5 283.1c0.1 0.1 0.2 0.29998 0.4 0.39999z"/><path d="m45 133.6c-0.8 0.89999-1.9 1.9-2.6 2.9 1.1-1 1.9-1.9 2.6-2.9z"/><path d="m282.4 4.4c0-0.1 0-0.1 0.10001-0.2l-0.89999 0.3z"/><path d="m283.4 4c-0.39999 0.1-0.79998 0.2-0.89999 0.3z"/><path d="m285.3 3.4c-0.60001 0.2-1.3 0.4-1.9 0.6 0.70002-0.1 1.5-0.3 1.9-0.6z"/><path d="m258.7 9.3c0.10001-0.1 0.20001-0.2 0.20001-0.4z"/><path d="m258.5 9.6 0.20001-0.3c-1 0.7-5.2 0.5-6.6 1.4 1.6-0.3 4.2-0.4 6.4-1.1z"/><path d="m222.6 15.5 5.7-1.7c-1.1 0-2.5 0 0-0.9-7.3 1.5 1.8 0.2-5.7 2.6z"/><path d="m205.1 21.2c2.9-1.3-0.2-0.4-0.10001-0.7-1.8 1.1-2.3 1.3 0.10001 0.7z"/><path d="m89.5 87.2-0.2-0.8c-1.9 1.6 0.099999 0.2 0.2 0.8z"/><path d="m75.1 104.1-2.4 2.6 2.1-1.3z"/><path d="m58.6 112.1c-0.9 1-1.8 2.1-2.7 3.1l2-2.3c0.3-0.19999 0.5-0.49999 0.7-0.79999z"/><path d="m53.1 305.5v-1.2c-1.5-0.9-2.4-0.19998 0 1.2z"/><path d="m147.5 345.1c-2.1-0.5-4.2-1.3-5.3-1.5 0.90001 0.69998 3.6 1.6 5.3 1.5z"/><path d="m414.9 287 2.2-3.1-1.2 1.3z"/></g></g></g></g></svg>
