<?xml version="1.0" encoding="UTF-8"?>
<svg version="1.1" viewBox="0 0 261.33 46.64" xml:space="preserve" xmlns="http://www.w3.org/2000/svg"><defs><clipPath id="e"><path d="m0 2.4414e-4h6e3v3406.2h-6e3z" clip-rule="evenodd"/></clipPath><clipPath id="d"><path d="m0 2.4414e-4h6e3v3375h-6e3z" clip-rule="evenodd"/></clipPath><clipPath id="c"><path d="m0 2.4414e-4h6e3v3375h-6e3z" clip-rule="evenodd"/></clipPath><clipPath id="b"><path d="m1576.2 1983.6h825v146.88h-825z" clip-rule="evenodd"/></clipPath><clipPath id="a"><path d="m0 2.4414e-4h6e3v3375h-6e3z" clip-rule="evenodd"/></clipPath></defs><g transform="matrix(.32 0 0 .32 -506.18 -635.1)"><g display="none"><g clip-path="url(#e)"><g transform="matrix(3.125 0 0 3.125 0 -3406.2)"><path d="m0 1090h1920v1080h-1920z" fill="#fff"/></g></g></g><g display="none"><g clip-path="url(#d)"><g transform="matrix(3.125 0 0 3.125 0 .00024414)"><path d="m0 0h1920v1080h-1920z" fill="#fff"/></g></g></g><g display="none"><g clip-path="url(#c)"><g transform="matrix(3.0978 0 0 3.0978 3287.5 1535.5)"><text transform="translate(0,34)" fill="#000000" font-family="Muli" font-size="32.28px" font-weight="bold"><tspan x="0 36.137543 55.593735 75.566177 87.794861 96.635651 116.60809 129.25624 146.93782 155.77861 184.78545 202.30569 211.14648 231.92557 249.70395 258.12531 266.54663 274.96796" y="0">What are my Skills</tspan></text></g><g transform="matrix(3.0978 0 0 3.0978 3287.5 1808.2)" fill="#000000" font-family="Muli" font-size="28.24px"><text transform="translate(0,30)"><tspan x="0 19.566498 34.926056 51.866745 65.842819 75.724884 83.094086 100.03477 116.97546 124.34467 139.33717 154.69673 171.63742 181.85831" y="0">React +3 years</tspan></text><text transform="translate(0,99)"><tspan x="0 19.566498 34.926056 51.866745 65.842819 75.724884 83.094086 104.15701 121.0977 130.97977 137.69957 152.69208 168.05164 175.42084 192.36153 209.30222 216.67142 231.66393 247.02348 263.96417 274.18506" y="0">React Native +2 years</tspan></text><text transform="translate(0,167)"><tspan x="0 19.679428 35.970718 51.330276 60.619415 74.623718 81.99292 98.933609 115.8743 123.2435 138.23601 153.59557 170.53625 180.75714" y="0">VueJs +2 years</tspan></text><text transform="translate(0,236)"><tspan x="0 21.062927 37.213058 54.153748 69.513306 76.233109 90.237411 97.606613 106.55695 130.52802 146.67815 163.19531 180.24895 196.39908 217.46201 234.40269 240.92487 248.29407 264.89594 280.0014 296.94208 307.16296 322.52252 336.52682 350.53113 359.82025 373.82455 380.34674 387.71594 405.30603 427.10306 442.49084 449.013 456.3822 474.76285 484.98373 491.70355 505.70786 530.526 547.46667 556.41699 563.78619 580.72687 597.66754 605.03674 620.02924 635.38879 652.32947 662.55035" y="0">Nodejs (MongoDb, ExpressJs, SQL, Prisma) +3 years</tspan></text><text transform="translate(0,305)"><tspan x="0 9.2891388 26.229828 41.222336 58.163025 75.753113 89.729187 99.950073 106.66988 123.61057 133.49263 140.0148 147.384 164.40939 179.4019 196.34259 211.70215 225.70645 239.68253 249.90341 256.62323 273.5639" y="0">JavaScript, Typescript</tspan></text><text transform="translate(0,373)"><tspan x="0 23.971069 30.690872 44.666946 54.887833 71.037964 85.042267 101.1924 110.70741 120.58948 127.95868 146.33932 162.48946 187.02522 202.38478 212.60567 219.97487 238.35551 245.07532 262.01599 271.89807 281.41309 297.56323 307.78412 332.60223 339.97144 356.91211 373.85278 381.22198 396.21448 411.57404 428.51471" y="0">Microsoft Power Platform +1 year</tspan></text><text transform="translate(0,442)"><tspan x="0 15.896011 22.615814 39.669449 64.487564 81.428253 87.950424 95.319626 116.04373 132.98442 149.13455 166.07524 181.4348 188.804 196.0885 202.8083 209.52811 225.8194 239.8237 249.70576 259.92664 276.86731 286.74939 302.89954 313.12042 320.48962 339.40674 346.77594 365.15659 381.67377 397.82391 407.70599 423.85614 437.86044 454.37762 470.52777 487.46844 493.9906 501.3598 520.67218 536.82233 547.04321 562.40277 569.12256 576.49176 597.55469 607.77557 624.71625" y="0">Figma, Adobe Illustrator &amp; Photoshop, Corel Draw</tspan></text></g><g transform="matrix(3.0978 0 0 3.0978 3287.5 168.63)"><text transform="translate(0,34)" fill="#000000" font-family="Muli" font-size="32.28px" font-weight="bold"><tspan x="0 28.490585 47.946777 67.04805 75.88884 85.02002 93.860809 113.83325" y="0">who I am</tspan></text></g><g transform="matrix(3.0978 0 0 3.0978 3287.5 385.24)" fill="#000000" font-family="Muli" font-size="28.24px"><text transform="translate(0,30)"><tspan x="0 16.601883 31.707336 48.648026 64.007584 74.22847 80.948273 96.307831 112.825 126.80107 142.16063 159.10132 166.47052 197.86726 213.22682 230.16751 237.53671 254.4774 270.99457 287.93524 295.30444 316.02856 332.96924 349.90991 357.27911 378.34204 393.7016 408.69409 424.05365 430.77344 446.92358 463.86426 479.22382 489.4447 496.8139 521.34967 528.06946 537.95154 554.46869 561.83789 578.77856 585.49835 602.552 609.27179 619.15387 636.09454" y="0">Experienced Web and App Developer with digital</tspan></text><text transform="translate(0,69)"><tspan x="0 15.359558 30.465012 47.405701 62.765259 72.986145 79.705948 95.065506 111.58267 125.55875 140.9183 147.44048 154.80968 172.39977 186.94052 193.66032 200.38013 207.09993 221.10423 228.47343 235.19324 251.7104 265.68646 272.40625 288.69754 305.63824 320.9978 328.367 352.90277 368.26233 385.203 392.5722 409.51288 426.03003 442.9707 450.3399 467.28058 484.22125 501.16193 508.53113 525.4718 540.83136 555.82385 571.18341 577.9032 594.05334 610.99402 635.81213 651.17169 667.68884 677.57092" y="0">experience. Skills include web and app development,</tspan></text><text transform="translate(0,108)"><tspan x="0 16.940689 33.457855 50.398544 57.118347 72.110855 81.99292 88.712723 102.6888 119.62949 126.34929 133.71849 143.60056 160.11772 166.83752 183.35469 197.89545 204.61525 221.13242 238.18605 245.55525 262.49594 279.01312 295.9538 303.323 317.29907 327.51996 342.87952 359.82019 369.70227 376.42206 391.41455 406.77411 414.14331 431.08398 441.30487 457.45502 474.39569 481.11548 496.47504 521.29315 528.66235 542.66663 558.81677 565.53656 580.52905 587.24884 603.76599 620.81964 627.3418 634.711 655.43512 672.37579 679.09558" y="0">analytical thinking and creative problem solving. Able</tspan></text><text transform="translate(0,147)"><tspan x="0 9.8820648 26.032196 33.401398 50.342087 67.282776 84.223465 90.943268 105.93578 113.30498 127.28105 143.57234 157.57664 167.45871 183.60884 208.42696 223.78651 234.0074 241.3766 255.38091 270.74048 280.96136 295.95386 302.67365 316.64972 332.00928 339.37848 353.35455 369.5047 386.02185 399.99792 415.35748 432.29816 442.18024 456.18454 463.55374 473.43579 489.58594 496.95514 513.89581 520.6156 537.66925 544.38904 554.27112 571.21179 577.93158 585.30078 599.30505 614.66461 624.8855 639.87799 646.59778 660.57385 675.93341" y="0">to apply customer service concepts to digital services</tspan></text><text transform="translate(0,186)"><tspan x="0 9.8820648 26.032196 33.401398 40.121201 64.939316 81.880005 92.100891 108.25102 123.24353 138.60309 145.97229 162.26358 176.26788 191.62744 201.84833 209.21753 224.57709 239.68254 256.62323 271.98279 282.20367 288.92346 304.28302 320.80017 334.77625 350.1358 357.505 367.02002 383.17017 393.39105 400.76025 414.73633 421.45612 428.1759 443.53546 460.05261 469.93469 483.939 490.46118 497.83038 513.18994 538.00806 554.94873 561.66852 577.81866 592.81116 608.17072 623.53027 637.53455 644.90375 661.84442 678.36157" y="0">to improve user experience for clients, employees and</tspan></text><text transform="translate(0,225)"><tspan x="0 16.940689 33.881378 58.699493 65.419296 81.936462 88.656265 102.66057 112.54263 122.76352 139.70421 149.58627 156.30608 172.45621 188.97337" y="0">administration.</tspan></text></g><g transform="matrix(3.4339 0 0 3.4339 400.33 1285.8)"><text transform="translate(0,80)" fill="#31e8a6" font-family="GiveYouGlory" font-size="116.48px"><tspan x="0 85.759216 143.99359 183.34729 258.75626 312.55481 370.78918 482.82211" y="0">About Me</tspan></text></g></g></g><g><g clip-path="url(#b)"><g transform="matrix(1.8559 0 0 1.8734 1581.7 1984.3)"><path d="m288.6 76.9-1.4 0.5 2.4 0.6c0.69998 0 0.6-0.6-1-1.1z"/><path d="m280.2 72.6c-1.9-0.2-4.2-0.2-3.4 1 2.1-0.2 2.3 0.3 4.6 0 1.5 0.5 2.5 1.3 2.1 1.5 0.60001 0 2.3 1.1 3.3 0.8-1.7-1.4-4.2-2.4-6.9-2.8-0.50003-0.3 0.1-0.4 0.29999-0.5z"/><path d="m128.8 37.7c-0.3-0.1-0.6-0.1-1-0.2z"/><path d="m127.8 37.5-2.6-0.5c-0.10001 0.3 1.4 0.4 2.6 0.5z"/><path d="m259.1 67.6c0.5 0.1 1 0.2 1.4 0.2-0.39999-0.1-0.79999-0.2-1.3-0.3 0 0.10001 0 0.10001-0.1 0.10001z"/><path d="m170.5 41.8 0.8 0.1c0.2-0.1 0.5-0.2 0.7-0.3z"/><path d="m201.5 48.5c0.5-0.2 1.1-0.3 1.7-0.2 0-0.1 0-0.3-0.2-0.6-0.8-0.2-1.2 0.5-1.5 0.8z"/><path d="m253.1 62.4 0.89999 0.2c-0.2-0.1-0.60001-0.2-0.89999-0.2z"/><path d="m146.9 38.2c0 0.1 0.10001 0.2 0.30001 0.3-0.1-0.2-0.2-0.3-0.30001-0.3z"/><path d="m38.4 15.9v-0.1c-0.2 1e-6 -0.3 0.1 0 0.1z"/><path d="m0.2 15.3 0.5-0.1c0-0.2 0.1-0.3 0.1-0.5z"/><path d="m87.6 30.5h-0.1c-0.8 0.2-0.3 0.1 0.1 0z"/><path d="m365.1 23.3c-3.2-0.6 5.1-1.2 0.29998-1.7 0.5 0.3-4.2 1.4-0.29998 1.7z"/><path d="m258.3 67.3c-0.4-0.1-0.9-0.3-1.3-0.4 0.60001 0.2 1 0.3 1.3 0.4z"/><path d="m156.6 22.9c-0.10001-0.1-0.4-0.2-0.7-0.3-2e-5 0.1 0.2 0.2 0.7 0.3z"/><path d="m104.9 26.2 1.3-0.1c-0.50001 0.1-0.90001 0.1-1.3 0.1z"/><path d="m184.1 21.1c-0.2 0-0.30001 0-0.60001-0.1 0.2 0.1 0.39999 0.1 0.60001 0.1z"/><path d="m184.1 21.1c0.39999 0 0.69999 0.1 1.3 0-0.10001 0-0.2-0.1-0.3-0.1-0.20002 0-0.5 0.1-1 0.1z"/><path d="m211.6 21c-0.10001-0.1-0.30001-0.1-0.5-0.2h-0.9z"/><path d="m123.6 10c-0.6-0.2-1-0.4-1.3-0.7 0.4 0.6-3.7 1 1.3 0.7z"/><path d="m259.2 67.2c-0.20001 0.1-0.5 0.2-0.89999 0.1 0.29999 0.1 0.6 0.2 0.89999 0.2 0.1-0.09999 0.19998-0.19999 0-0.3z"/><path d="m184.6 14.7 4.5 0.1c-1.3-0.1-2.9-0.1-4.5-0.1z"/><path d="m325.1 9-1 0.1c0.39999 0 0.69998-0.1 1-0.1z"/><path d="m202.4 14.6c0.80001 0.3 1.6 0.5 2.5 0.6 0.2-0.1 0.4-0.1 0.5-0.2z"/><path d="m85.9 30.4c-0.4 0.1-0.8 0.2-1.1 0.3 0.39999-0.099999 0.8-0.2 1.1-0.3z"/><path d="m106.4 25.7c0.30001-0.1 0.6-0.2 1-0.3-0.6 0.1-1.6 0.2-1 0.3z"/><path d="m75 26.3c0.1 0 0.3-0.1 0.4-0.1-0.2 0.1-0.3 0.1-0.4 0.1z"/><path d="m339 9.9c-0.20001 0-0.39999 0-0.60001 0.1 0.20002 0 0.4-0.1 0.60001-0.1z"/><path d="m222.9 14.8c0.2 0 0.4 0 0.60001-0.1-0.2 0.1-0.39999 0.1-0.60001 0.1z"/><path d="m273.6 70.9c-0.10001-0.1-0.20002-0.2-0.5-0.2z"/><path d="m440.1 16.4-0.29999-7.2c-7.2-0.8-11.6 0.4-18 0.1 0.1-1.2-6.4-2.2-9.7-2.6l0.1-0.2c-9.7-0.8-16.6-0.1-25.6-0.2-5.5-1.7-18.9-1.7-27.8-3 1.4 0.3-0.29999 1-1.9 1-2.1-0.4-5.9 0.6-5.5-0.5l0.79999 0.1c-1.5-1.2-5.9-1.1-9.3-1.3l-0.50003 1.4c-4.4-1.3-10.2-1.4-15.5-1.3-5.3 0-10.1 0.1-12.5-0.9-2.1 0.3-4.8 0.2-6.9 0.5l0.10001-0.8c-5.9-0.4-8.9-0.6-16.2-0.5l1.5-0.5c-4.1-0.1-5.3 2.2-9.1 2.2l-1.1-1.2c-7.2-0.2-14.5-1.3-21.6-0.3 0.1-0.2 0.29998-0.5 1.5-0.6-3.4-0.1-13.1-1-11.9 0.7-0.1-1.1-7.4-0.2-11.3 0.3l0.6-0.8c-3.3 1-3.4 1.3-8 1.6-1.1-0.1-1-0.6 0.5-0.4-3.6-0.4-2.8 0.8-7.2 0.3l1.6-0.5c-3.7-0.1-3.4 0.2-5.5 0.8-2.3 0.3-7.1-0.1-7.6-0.8-0.5 0.4-2.5 1.1-4.7 0.9-0.3-0.3 0.5-0.4 0.89999-0.5-6.2-0.5-9.2 1-13.5 0.3-0.1-0.3-0.39999-0.4-0.69999-0.5h8.6c-0.1-0.7-4-0.8-0.8-1.8-3.2 0.6-8.7 1.8-12.6 1.6-0.19999-0.1-0.39999-0.1-0.5-0.2l0.4-0.1c-0.9-0.1-1.7 0-2.5 0.2-1.2-0.1-2-0.2-3.2-0.1-0.5-0.6-4.6-0.2-6.6-0.2 0.19999 0.8-2.4 0.7 0 1.3-0.30001-0.1 0.39999-0.1 1.7-0.2 0.30001 0 0.7-0.1 0.80001-0.1 0 0-0.10001 0-0.10001 0.1 1.3 0 3-0.1 4.9-0.2-1.6 0.4-3.2 0.8-5.4 0.4-1 0.5-2.1 1.1-2.7 1.4-2.7-1.1-8-1.5-8.8-2.2-6 0.3-14.2 0.5-18 2.1-1.7 0.3-2-0.4-2.7-0.6 1-0.2 2.2-0.2 2.7-0.4-3.4 0.5-10.2 0.5-11 1.6-4.4-0.3 2.4-1.1-3.6-0.7l0.80001-0.4c-11.8-1.1-19 3.5-32.1 2.1 0.9 0.1 1.4 0.1 1.6 0.3-7.5 0-15.1 0.6-22.7 1.2s-15.2 1.3-22.6 1c-4.2 0-4.6 0.7-7.1 1.4l-1-0.8-4.3 1.3c-6.1 1.2-10.8-1.2-18.5 0.8l1.1 0.5c-2.8 0.1-8.8 1.1-8.4 0.4-0.3 0.1-0.9 0.7-2 0.5l-0.1-0.4-6.8 1.4c-5.4 0.2 0.7-1.9-7.1-1.2-2.9 0.4-8.1 2.1-7 2.3 1.2-0.1 3 0 3.1 0.4l-2.6 0.5c-0.3 1.4-2.2 2.9 4.3 3.2l4.4-1.2 1.5 0.5-3.8 0.4c2.2 0.4 3.5-0.3 5-0.8 0.4 0.3 1 0.5 2 0.5l4.3-1.7c0.6 0.5-1.9 1.2 1.1 1.2 2-0.8-2.1-1 1.3-1.7 2.2 0.4 1.6 0.9 4.1 0.2 0.4 0.3-0.1 0.6-1.1 0.8 2.2-0.6 6-0.7 7.1-1.5 2.3 0.6 7.6-0.8 7.5 0.5 0.7-0.4 3.9-1.3 6-1.5-3.7 1.8 7.8-0.5 6.9 1.1 2.7-1.6 10.1-1.4 15-2.4-0.3 0.2-0.9 0.5-1.3 0.4 2.8-0.1 3.6 0.3 5.5 0.4 0.3-1.1 4.6-1.7 6.9-2.6 3.5 0.8-2 1.5-0.9 2.4-0.2-0.9 5.9-1.3 4.7-2 2.7 0.5 2.3 0.2 3.7 1 0.4-1.4 2.4-0.4 4.6-1.4 3.8 0.5 1.1 1.2 5.2 0.6 2 0.3-1.7 1-1.7 1 4.2-0.2 1.9-1.1 2.8-1.8 5.1-0.6 2.4 0.6 4.1 1.1 3.1-0.5 5.5-1.6 7.9-1.7 0.19999 0.2 0.59999 0.2 0.1 0.4 3.3-1 9.9-0.5 13.8-1.8 0.3 0.1 0.4 0.2 0.5 0.2-0.7-0.5-0.80001-1-0.7-1.4 1.9-0.1 3.5-0.8 4.3-0.2-1.2 0-1.3 0.3-1.8 0.6l2-0.4c1.8 0.9-2.7 0.5-2.7 1.2 3.9-0.5 8.4-1.5 11.4-1.4 0.69999 0.9-7 0.7-2.9 1.3l-4.6-0.2c3.6 1.4-2.8 0 0.5 1.5 6.1 0 6.8-0.8 12.8-0.8 1.3-0.6-0.5-0.8 0.89999-1.4 8.6-1.3 6.9 2.2 13.2 0.7 1.6-0.7 2.2-1.9 6.7-1.5l-1.5 1.1c5.9-0.1 3.3-1.7 9.5-1.1-1.1 0.5-4.6 0.5-3.7 0.6 4 0.8 2.8-0.7 5.9-0.8l0.7 1c6.3-0.3 13.1-1.2 20.1-1.5-0.4 0.3-1.6 0.6 0.1 0.9 8.6-0.2 18.5 0.3 27 0.8l3.2-0.8c0.8 0 1.4 0.4 0.60001 0.5 3.3 0.3 0.19999-0.5 1.7-0.9 1.9-0.1 2.5 0.5 1.3 0.7 5.8-0.7 16.5-1.6 22.7-0.6l-1.2 0.2c4.8 0.4 5.4-1.7 9.8-0.8l-0.79999 0.1c5.2 0.2 10.6 0.2 15.8 0.3 5.1 0.1 10 0.3 13.9 1.1 1.5-1.2 10.2 0.8 10.9-0.9 5.9 1 4.2 1.2 12.5 2.1 2.2 0.2 3.3-0.9 6.1-1v0.9l3.8-0.8 1.9 1.1 2.6-0.1c-1-0.1-2.2-0.5-2-0.7 4-0.3 9.8 1 9.9 1.4l9.5-0.3c-0.20002 0.3-1.1 0.4-2.1 0.5 3.6-0.3 0.29999 1 4.6 0.5-0.60001-0.2 0.39999-0.5 0.5-0.7 2.3 0.6 7.6 0.9 11.5 0.8l-0.79999 0.6c7 0.5 14.9 0.5 22.8 1-2.8-0.4-2.1-1.5 0.20001-1.4l0.89999 1c1.5-0.5-2.4-0.5 0.70001-1 2.9 0.3 1.9 1.2 0.20002 1.4l3.6-0.1c0.20001 0.3-0.70001 0.4-0.89999 0.7 1.5-0.5 6.1 1.3 8.3 0.5l0.20001 0.3c4.4 0.3 7.5 0.4 10.4 0.5h-0.70001c-2.4 0.1-4.6 0.4-6.5 0.9l0.39999-0.1c-2.6 0.5-5.3 1-7.9 1.4-3.7 0.1 2.2-0.7-0.60001-1-4.3 0.9-7.7 1.1-10.9 1.1-3.2 0-6.3 0-9.8 0.6-2.8-0.9-7.7-0.8-12.8-0.5-5.1 0.3-10.5 0.5-14.2-0.1l0.4 0.5c-1.9 0.5-2.3-0.3-3.7-0.4 0.20002 0.4 2.1 0.4 0.9 0.7-16.3 0.7-33.7-0.8-50.4-1.7-6.1-0.3-3.5 2.5-11.2 1.2l2.2-0.9c-12.4 0.8-25.3-0.7-37.4 0 0.7-0.2 0.8-0.5 1.9-0.5-2.5-0.7-9.5-0.2-9.5 0.3-1.9-0.1-0.39999-0.5-1.6-0.8-2.6-0.4-6.5 0.8-7.8 0.1-0.19999-0.1 0.2-0.1 0.60001-0.2-2.2 0.2-7.1-0.2-5.6 0.6-4.6-0.4-8.7 0.3-12.4-0.2-2.4 0.9-7.8-0.5-8.6 0.8 0.30001-1.3-8-1-10.9-0.4 1-0.4-2.5-0.4-1.4-0.9-3.3 0.1-6.3 0.4-5.7 1-6.1-1.5-12.1 1.6-15.6-0.3-9.7 1.1-18.8 2-27.5 3 0.2-1.3 9.7-0.8 9.2-2.1-4.2 0.6-7.4 1.2-10.7 1.7-3.3 0.6-6.5 1.1-10.6 1.3-2.2 0 1.2-0.7 1.9-0.9-8.3 1.3-16.1 1.5-23.4 3.3 0-0.1 0.8-0.4 1.5-0.6-1.4 0.2-3.4 0.3-3.2 0.8l1.4-0.3c2.4 0.5-5.5 2.5-5.7 3 2.2-2.1-7.3 0.8-3.7-2-0.9 0.3-2.1 0.7-1.8 1.1-1.4 0.1-1.9 0-0.6-0.7-5.1 1.2-3.2 1.4-7.9 2.3 0-0.3 0.9-0.6 1.3-1-2.3 1-4.5 2-8.5 2.5 0.2-0.2-0.1-0.3 0.5-0.5-3.2 0.7-5.9 1.6-8.6 2.5-2.9 1-5.9 1.8-9.6 2.5 1.9-1.7-2.6 0.2-3.2-0.7l-4.1 1.5 1.7 0.1c-3.5 0.8-6.3 2.5-9.3 3l2.4-1.2-6.3 2.1 3.2-0.6c-1.4 0.5-2.5 1.1-5.3 1.2v0.4c-0.1 0-0.3 0.1-0.4 0.1l0.6 3.2c0.1 0 0.3 0 0.4-0.1l0.1 0.4c0.2 0 0.4-0.1 0.6-0.1-0.2 0-0.4-0.1-0.6-0.3 0.1 0 0.3 0 0.4-0.1h-0.5c-0.099999-0.2-0.099999-0.4 0.4-0.8 0.9 0 1.7 0.1 2.4 0.3 0.5-0.1 1-0.2 1.5-0.4-0.1 0-0.1 0.1-0.1 0.1 0.2-0.1 0.3-0.1 0.5-0.2 0.4-0.1 0.8-0.2 1.3-0.2-0.1 0.1-0.3 0.2-0.5 0.2-0.9 0.3-1.3 0.3-1.3 0.2-1.1 0.5-2.6 1-1.1 1l0.4-0.5c1.4-0.1 4.5-1 5.5-1.1 0.6 0.3-0.5 1.2-0.1 1.4 1.7-1 8.2-0.8 10.4-1.8-0.7 0.2-0.7 0.8-0.5 0.9l1.4-0.8c1.6 0.2 1.9 0.3 1.6 0.7 4.9 0-1.6-1.3 4.3-0.9-0.5 0.1-0.2 0.2-1.2 0.3 2.9 0.1 5.8-0.2 8.5-0.3 2.8-0.1 5.5-0.3 8.2-0.1 1.6 1.1-4.7 0.3-2.9 1.2 3.9-0.1 7.9-0.6 11.9-0.7 4-0.2 8-0.3 11.7-0.1l-1.4-0.1c0.5-0.7 1.9-0.5 3.7-0.2 1.7 0.4 3.8 0.9 5.7 0.6-0.9 0.1-1.3 0.8-1 0.6 5.1 0.5 10.5 0.1 18.4 0.3l-1 0.3c3 0.6 8 0.8 11.2 1.3 1-0.3 2.9 0 1.8-0.7 4.9 1.7 9.8 1.8 14.4 2 4.7 0.3 9.3 0.5 13.6 2-1.1-0.1-2.6 0-1.7 0.1 2.5 0.2 5.1 0.5 7.6 0.8-0.5-0.7-0.89999-0.6-2.4-1.3 1-0.2 3.2-0.2 5.1 0.1-3.5-0.1-0.1 1 1.3 1.6-0.2-0.2 0.3-0.4 0.19999-0.6 3.8 1.8 0.9-1.2 6.1 0.5l-0.3 0.3c2 0.2 4 0.1 6.1 0.6 0.80001 0.9-2.2-0.1-2.5 0.5 3 0.5 6.3-0.3 8.9 1-1.3 0-3.2-0.4-4.5-0.4 2.8 1.5 3.2 1.3 5.4 1.9l-0.2-0.1c1.7 0.5 3.4 0.9 5 1.4l-1.3-0.5c4.2-1.1 7.8 1.3 13.2 1.2-5.2 0.1-1 0.5-1.6 1.3 1.2 0.5 3.2 1.2 2.5 1.3 2.6-0.1 3.9 1.5 7.5 1.4 0.10001 0.3 2.5 0.7 1.8 1.2 3.2 0.6-0.60001-0.7-0.30001-0.9 2.5 0.1 5.3 1.1 8.3 2.1 3 1.1 6.2 2.2 9.8 2.5 6.1 1.1 7.4 0.6 13 1.8 1.7 1-1.8 0.5-1.8 0.5 2.8 1.3 5.1 1.9 8 2.5-0.60001 0.1-0.10001 0.4 0.60001 1 2.3 0.6 1.8-0.5 4.6 0.9-0.6 0.1-1.4 0.4-2.6 0.3 2.7 0.6 5.4 1 8.2 1.7 0.6 0.7-1.9 0.1-2.9 0.1 3.1 0.8 8 2.3 9.2 1.9l-1.4-0.7c0.29999 0.3-0.29999 0.6-1 0.4-2.8-0.3-3.7-1.5-3.7-1.9l2 0.5c-1.4-2.2-7.8-2.4-11.7-3.8l2-0.6c-1.4-0.2-2.9-0.2-4.3-0.4-0.8-0.6-1.1-1.4 0.79999-0.9-2.6-1.4-2.6-0.4-4.8-1.7-0.2-0.2-0.10001-0.2 0.19999-0.2l-2.9-0.5c0.6-0.1-0.2-0.9 1.4-0.3-4.7-2.2-8.2-1.6-9.8-3h0.39999c-7-1.5-0.89999 0.6-6.4 0.2l-2.9-3-0.9 0.6c-0.7-0.2-2.1-0.7-1.7-1-2.8-0.2 0.4 0.5-1.3 0.6-3.3-1.6-9.6-2-10-3.6-1.4 0.3 3.2 1.3-0.6 0.8-0.7-1.7-4.3-0.9-7.3-2.2 1.1-0.5 4.1 0.5 1-0.8-2.2 0.8-6.1-1.6-8.9-2-0.3 1-5.9-0.9-10.5-1.4 0.39999-0.3-8.4-2.2-12.6-3.3l0.2-0.2c-1 0.9-5.3 0-8.5-0.3 0.2-0.6 0.8-0.7 2.6-0.7l-3-0.5c-0.80001 0.2-1.7 0.2-3.7 0l0.89999-0.7c-4-0.6-8.2-0.2-13.2-1.4-0.39999 0.7 3.8 2.6-1.7 2.3-0.2-0.4-0.30001-1.1 1.2-1.1-0.5 0-1.7 0.1-2.6-0.2l2.3-0.4c-2.3-0.6-1.3 0.4-3.2 0.1 0.10001-0.6-1.3-0.6-1-1 0.5 0 1.6 0.4 2.3 0.3-2.1-0.4-4.6-1-5.4-1.5 0.10001 0.3-0.1 0.8-1.6 0.7-4-0.4-1.3-0.8-3.6-1.4-1 0.3-3.5-0.4-3.7 0.4-1.2-0.1-1.4-0.5-1.8-0.8-2.1 0.1-9.7-0.7-7.5 0.3l0.5 0.1h-0.3c-3.4 0.2-7-0.2-10.5-0.7-3.5-0.4-7-0.8-10.4-0.8v-0.3c-2 0.1-4.3 0-6.4 0-2.1 0-4.1 0.1-5.5 0.4-1.2 0-2.8-0.6-2.3-0.9-3.1 0.1-3.4 0.5-7.9-0.1 3.1-0.4-1.1-0.5 3.2-0.3-4-0.3-4.9-0.8-9.3 0 1.5-0.7-3-0.9-4.9-0.7l3.1 1.3c-2.2 0.1-4 0.1-5.9 0l1-1c-4.1-0.6-7.9 0.1-11.3 0.6-1.6 0.2-3.1 0.4-4.6 0.5 5.7-1.2 2.2-1.3 6.7-2.5 2.9-0.1-0.7 1.4 4-0.1 3-0.3 0.8 0.7-0.3 1.3 2.1-0.8 4.2-1.2 6.1-1.4 1.9-0.1 3.5-0.2 4.8-0.3l-2.3 0.7c1.4-0.4 2.5-0.6 3.7-0.9l-1.5-0.4c1.4-0.1 2.6-0.4 2.6-0.1 1.3-0.7-1.3-0.9 1.4-2 1.9 0 5.5-1.4 6.3-0.6-5.2 0.6-0.5 0.7-2.9 1.5 0.7-0.1 1.5-0.2 2.3-0.3 0.2 0.1-0.2 0.2-0.5 0.3 5.7-0.099998 2.4-1.4 8.1-2.3-0.7 0.6 1.5 0.7 2.4 0.5-2.3 0.4-1.2-0.7 0.8-1.4 3.8-0.1 4-0.8 5.9-1l-2.2 0.1c0.69999-0.6 2.5-0.8 5.1-1.3 0.1 0.1-0.1 0.2-0.30001 0.3 2.6-0.6 6 0.3 9.4-0.5 1.9 0.1 0.30001 0.9 1.9 1 4.4-1.2 4.9 0.2 9.6-0.8-1.4-0.6-1.6-0.4 1.6-1.3l-7.7 1.2 4.9-1.4c-2.3 0.2-4.9 0.8-6.3 0.9 2.3-0.8 2.1-0.6 0.9-1.1 3.3 0.7 6.3-1.2 10.1-0.8v1.7c2.8 0.1 5.3-0.3 8-0.7 2.7-0.4 5.6-1 9.2-0.9l-2.4-0.2c0.89999-0.7 4.5-0.3 6.8-0.7-0.19999 0.6 1.3 0.7 2.3 1-0.10001-0.4 5.3-0.2 5.9-1.3l3.3 0.6c5.9 0.1 6.7-1.8 12.3-1.7-1.7 0.6 0.89999 1-2.9 1.5 1.9 0 3.6 0 3.6-0.3 1.1 0.3 5.2-0.9 7-0.4 0.8-0.3 1-0.8 3.2-0.8 0.1 0.1 0.1 0.2 0.1 0.2 0.4-0.2 3.1-0.4 1.4-0.9 5.8 1.7 16.3-0.2 21.3 1.4 4.1-0.1 9.1-0.3 12.8-0.3-0.19999 0.2 0 0.3-0.69999 0.2 5.2 0.6 3.2-1.6 9.1-0.9 3 1-3.1 0.4-1.3 0.8 0.8 1.9 7.1-0.1 11 1l-1 0.1c3 0.7 7.4-0.5 12.3-0.3 0 0-0.2 0.2 0 0.3 3.4-0.9 9.8-1 14.6-1.2-1.5 0.7-2.2 0.3-1.3 1.1 2.1-0.1-0.6-1.2 3.7-1.3 1.4 0.4 4.4 0.9 4.8 1.6l-4-0.1c2 1.1 5.2 0.1 7.3 0.3l-0.29999 0.4c6.2 0 6.3-1.1 12.9-0.9l-0.70001-0.3c3.6-1 3 0.7 6.6-0.1l1.1 1.1c2.4-0.2 8.4-1 12.7-1.1-2.4 0.8-7.4 1.2-10.6 1.6 2.4 0 8 0 9.3-0.5-1 0.1-2.2 0.4-3.1 0.2 2.9-0.8 6.7-1.2 11.5-1.2-0.79999 2.2 12.3 0.6 15.7 2.3 8.3-0.8 16.6 0.2 26.3-0.3-3.5-1.6 2.8-0.1 2.2-1.9 2.2-0.2 3.1-0.2 3.3-0.1l-0.5-0.1c0.20001 0 0.29998 0 0.5 0.1l6.9 0.7c1.7 0.4-2.1 0.5-1.9 0.9 5-0.1 2.1 0.6 5.4 1-0.70001-0.6 1.7-1 4.5-0.9l-4-0.6c6.9-1.3 6.1 1.1 13-0.3l-2.2 0.7c3.6-0.5 13.3-1 16.6-2.8 0.70002 0.1 1.5 0.5 0 0.8 4.3-0.4 9-1.1 13.5-2 4.5-0.9 8.7-1.6 12.1-1.7l-0.60001 0.5c1.6-0.4 2.6-1.2 4.7-1.1-0.10001 0.2-0.60001 0.5 0.20001 0.4 0.6-0.2 2.5-0.8 4.3-1.2 0.5 0 0.89999 0.1 1.2 0.1l-0.9 0.4c0.99994 0.19999 1.7 0.099991 2.2 0.099991zm-257.7-15s-0.1 0.1-0.19999 0.1c0.1-0.2 0.3-0.3 0.5-0.4 1.3-0.1 1.8 0 2 0.2-0.59999-2e-7 -1.4 0.1-2.3 0.1zm7.7 5.2c0.39999 0 1-0.1 2.1-0.1-0.90001 0-1.6 0.1-2.1 0.1zm6.8-0.2c-0.3-0.3 0-0.6 0.9-0.6-0.5 0.2 1.5 0.3 2.8 0.5-1.1 0-2.4 0-3.7 0.1zm-160.2 33.8h-0.4l-0.6-3c0.1 0 0.3-0.1 0.4-0.1l0.2 0.8c-0.1 0-0.2 0-0.3 0.1l0.3 1.4h0.3l0.1 0.8zm377-26.9c0.4 0.1 0.9 0.1 1.3 0.2-1.4 0.1-2.8 0.1-4.2 0.2 0.90002-0.1 2-0.1 2.9-0.4zm25.5 2.6c0.20001 0 0.5-0.1 0.70001-0.1l-0.70001 0.3z"/><path d="m204.4 1.8v0c0.10001 0.1 0.10001 0.1 0 0z"/><path d="m180.4 2.2c-0.19999 0-0.3 0.1-0.5 0.1 0.30001 0.1 0.5 0.1 0.80001 0.2 0.19999-0.1 0.3-0.2 0.5-0.3h-0.80001z"/><path d="m128.8 37.7c0.10001 0 0.30001 0.1 0.4 0.1-0.10001 0-0.10001-0.1-0.2-0.1z"/><path d="m315.8 9v-0.2l-0.69998 0.2z"/><path d="m174.3 46.1c0.10001 0.1 0.2 0.2 0.60001 0.3-2e-5 4e-6 -0.3-0.1-0.60001-0.3z"/><path d="m193.8 49.9 2.7 0.8c-1.1-0.4-2-0.7-2.7-0.8z"/><path d="m208.6 53.4c0.19999-0.1 0.3-0.2 0.39999-0.3z"/><path d="m103.2 21.1c0.19999 0 0.4-0.1 0.6-0.1 1.3-0.4 0.4-0.2-0.6 0.1z"/><path d="m39.5 39.7c-0.8 0.2-1.5 0.4-2.3 0.5 1.3 0 2.3-0.1 2.3-0.5z"/><path d="m272.6 72.4c0-0.1 0.1-0.1 0.1-0.1l-0.79999-0.2z"/><path d="m273.5 72.5c-0.39999-0.1-0.70001-0.2-0.79999-0.2z"/><path d="m275.2 72.8c-0.6-0.1-1.1-0.3-1.7-0.4 0.60001 0.2 1.3 0.5 1.7 0.4z"/><path d="m252.9 65.4-0.3 0.2c0.10001 0 0.20001-0.1 0.3-0.2z"/><path d="m252.4 65.8 0.30001-0.2c-1 0.1-4.1-2-5.6-1.9 1.3 0.49999 3.3 1.6 5.3 2.1z"/><path d="m228.7 54.1c-6.1-2.5 1.1 1-5.4-0.8l5 1.5c-0.90001-0.5-1.9-1.2 0.4-0.7z"/><path d="m207.8 49.2c2.7 0.5 0.10001-0.4 0.2-0.6-1.8-0.1-2.2-0.1-0.2 0.6z"/><path d="m93.2 34.5c-2.1 0.1 0 0.3-0.3 0.7z"/><path d="m72.9 39.4 1-0.7-3.1 0.3z"/><path d="m206.6 21.6-0.60001-0.9c-1.5 0.2-1.8 1.2 0.60001 0.9z"/><path d="m290.3 22.3c0.89999 0.5 3.3 0.8 4.7 0.4-1.8-0.1-3.7-0.4-4.7-0.4z"/><path d="m340 2.5-3.2 0.1 1.5 0.1z"/></g></g></g><g display="none"><g clip-path="url(#a)"><g transform="matrix(3.0978 0 0 3.0978 400.33 1735.4)"><text transform="translate(0,37)" fill="#000000" font-family="Muli" font-size="37.66px"><tspan x="0 28.844727 49.329758 58.291962 80.885742 89.847946 111.87689 134.62131 144.4496 164.4451 185.98451 207.7122 217.5405 231.17207 251.6571 274.25089 292.89075 314.91968 324.74799 344.74347 366.2829 388.01059 401.64215 411.47046 424.16064 445.88834 454.85052 463.81274 473.64105 496.23483 517.77423 530.95392 551.43896 573.4679 586.64758 595.6098 618.20361" y="0">Helping you reach your full potential</tspan></text></g></g></g></g></svg>
